<?xml version="1.0" encoding="UTF-8"?>
<!DOCTYPE svg PUBLIC "-//W3C//DTD SVG 1.1//EN" "http://www.w3.org/Graphics/SVG/1.1/DTD/svg11.dtd">
<svg xmlns="http://www.w3.org/2000/svg" version="1.1" width="64px" height="64px" style="shape-rendering:geometricPrecision; text-rendering:geometricPrecision; image-rendering:optimizeQuality; fill-rule:evenodd; clip-rule:evenodd" xmlns:xlink="http://www.w3.org/1999/xlink">
<g><path style="opacity:0.802" fill="#30f0b6" d="M 1.5,-0.5 C 3.83333,-0.5 6.16667,-0.5 8.5,-0.5C 10.7802,2.54462 11.1135,5.87795 9.5,9.5C 9.71893,10.938 10.2189,12.2713 11,13.5C 14.1417,13.0999 17.3084,13.5999 20.5,15C 23.5755,15.911 25.9089,17.7443 27.5,20.5C 30.3821,18.8921 33.3821,17.5587 36.5,16.5C 39.1489,9.14438 37.1489,7.14438 30.5,10.5C 24.2142,8.80438 22.8809,5.13772 26.5,-0.5C 28.8333,-0.5 31.1667,-0.5 33.5,-0.5C 35.539,0.911036 36.539,2.91104 36.5,5.5C 40.0206,4.31826 43.0206,2.31826 45.5,-0.5C 49.1667,-0.5 52.8333,-0.5 56.5,-0.5C 59.1667,1.5 61.5,3.83333 63.5,6.5C 63.5,10.1667 63.5,13.8333 63.5,17.5C 59.9673,23.4747 54.6339,26.4747 47.5,26.5C 45.5852,30.7272 44.4186,35.0605 44,39.5C 46.9146,42.07 49.5813,41.7366 52,38.5C 52.1318,32.0459 55.2985,29.8792 61.5,32C 62.0442,32.7172 62.7109,33.2172 63.5,33.5C 63.5,35.8333 63.5,38.1667 63.5,40.5C 60.7687,42.6746 57.7687,43.008 54.5,41.5C 52.3703,42.4672 50.3703,43.6338 48.5,45C 51.5154,52.7663 49.5154,58.9329 42.5,63.5C 38.8333,63.5 35.1667,63.5 31.5,63.5C 28.5412,61.0435 25.7079,58.3769 23,55.5C 20.6183,56.7436 18.785,58.5769 17.5,61C 10.8374,62.6664 8.0041,60.1664 9,53.5C 12.6667,49.5 16.3333,49.5 20,53.5C 21.0113,52.6634 22.1779,52.33 23.5,52.5C 23.3871,48.6732 24.3871,45.1732 26.5,42C 25.3147,40.647 23.9814,39.4803 22.5,38.5C 18.7842,40.6116 14.9509,40.9449 11,39.5C 10.1301,40.1079 9.63008,40.9412 9.5,42C 12.1533,48.9978 9.81992,52.3311 2.5,52C 1.30943,51.3021 0.309426,50.4687 -0.5,49.5C -0.5,47.1667 -0.5,44.8333 -0.5,42.5C 2.39135,41.4594 5.05802,40.1261 7.5,38.5C 1.8662,32.5116 1.03287,25.845 5,18.5C 5.90252,17.2986 7.06919,16.4652 8.5,16C 7.5,14.3333 6.5,12.6667 5.5,11C 3.18867,10.7641 1.18867,9.93073 -0.5,8.5C -0.5,6.16667 -0.5,3.83333 -0.5,1.5C 0.5,1.16667 1.16667,0.5 1.5,-0.5 Z M 3.5,2.5 C 7.16124,2.35012 8.16124,3.85012 6.5,7C 2.70713,7.48656 1.70713,5.98656 3.5,2.5 Z M 28.5,2.5 C 33.5837,2.96578 34.2504,4.63245 30.5,7.5C 27.8068,6.46821 27.1402,4.80154 28.5,2.5 Z M 46.5,2.5 C 57.9384,1.7552 62.105,6.7552 59,17.5C 57.9264,16.3816 56.7598,15.3816 55.5,14.5C 57.67,9.34163 56.0033,6.34163 50.5,5.5C 47.103,5.72754 45.103,7.56087 44.5,11C 46.1507,13.8812 45.484,16.0479 42.5,17.5C 39.4197,11.3263 40.753,6.32631 46.5,2.5 Z M 49.5,8.5 C 55.0047,11.1712 54.6713,12.8378 48.5,13.5C 48.366,11.7085 48.6993,10.0418 49.5,8.5 Z M 11.5,17.5 C 22.8614,16.6855 27.0281,21.6855 24,32.5C 22.9264,31.3816 21.7598,30.3816 20.5,29.5C 22.2043,24.5723 20.5377,21.5723 15.5,20.5C 9.99669,21.3416 8.33003,24.3416 10.5,29.5C 9.24022,30.3816 8.07356,31.3816 7,32.5C 4.38488,26.1839 5.88488,21.1839 11.5,17.5 Z M 47.5,17.5 C 50.9828,16.9159 53.9828,17.7492 56.5,20C 53.1767,22.7629 49.51,23.2629 45.5,21.5C 45.5271,19.8007 46.1938,18.4674 47.5,17.5 Z M 36.5,19.5 C 39.6344,20.2785 42.3011,21.9452 44.5,24.5C 42.7578,28.7254 41.4245,33.0587 40.5,37.5C 36.6166,37.1091 32.95,37.7758 29.5,39.5C 28.0186,38.5197 26.6853,37.353 25.5,36C 26.8932,34.8289 27.7265,33.3289 28,31.5C 28.3333,28.8333 28.6667,26.1667 29,23.5C 31.7685,22.5343 34.2685,21.201 36.5,19.5 Z M 14.5,23.5 C 19.069,24.6681 19.4023,26.3348 15.5,28.5C 12.1912,27.2471 11.8578,25.5804 14.5,23.5 Z M 14.5,31.5 C 18.1382,31.4467 20.1382,33.1134 20.5,36.5C 17.1667,37.8333 13.8333,37.8333 10.5,36.5C 10.4078,33.6 11.7411,31.9333 14.5,31.5 Z M 56.5,34.5 C 60.1612,34.3501 61.1612,35.8501 59.5,39C 55.7071,39.4866 54.7071,37.9866 56.5,34.5 Z M 34.5,40.5 C 45.271,41.0396 48.771,46.3729 45,56.5C 41.9863,54.0253 40.9863,50.6919 42,46.5C 38.6667,42.5 35.3333,42.5 32,46.5C 30.3452,48.7467 30.0119,51.0801 31,53.5C 29.8145,55.5593 28.6479,55.726 27.5,54C 26.2702,47.6255 28.6036,43.1255 34.5,40.5 Z M 3.5,43.5 C 7.90465,44.6255 8.40465,46.6255 5,49.5C 2.40769,47.9917 1.90769,45.9917 3.5,43.5 Z M 34.5,47.5 C 35.8734,47.3433 37.2068,47.51 38.5,48C 39.474,50.702 38.474,52.0354 35.5,52C 34.6198,50.6439 34.2865,49.1439 34.5,47.5 Z M 12.5,53.5 C 17.9305,54.3412 18.4305,56.0079 14,58.5C 11.5658,57.284 11.0658,55.6174 12.5,53.5 Z M 33.5,55.5 C 37.3246,54.7887 40.3246,55.9554 42.5,59C 38.679,61.1407 35.0124,60.974 31.5,58.5C 32.1925,57.4822 32.8592,56.4822 33.5,55.5 Z"/></g>
</svg>
