<?xml version="1.0" encoding="UTF-8"?>
<!DOCTYPE svg PUBLIC "-//W3C//DTD SVG 1.1//EN" "http://www.w3.org/Graphics/SVG/1.1/DTD/svg11.dtd">
<svg xmlns="http://www.w3.org/2000/svg" version="1.1" width="64px" height="64px" style="shape-rendering:geometricPrecision; text-rendering:geometricPrecision; image-rendering:optimizeQuality; fill-rule:evenodd; clip-rule:evenodd" xmlns:xlink="http://www.w3.org/1999/xlink">
<g><path style="opacity:0.988" fill="#2ff2c1" d="M 9.5,1.5 C 24.1667,1.5 38.8333,1.5 53.5,1.5C 53.8323,13.5185 53.499,25.5185 52.5,37.5C 51.914,37.2907 51.414,36.9574 51,36.5C 50.5003,28.1733 50.3336,19.84 50.5,11.5C 37.8333,11.5 25.1667,11.5 12.5,11.5C 12.6664,19.84 12.4997,28.1733 12,36.5C 11.586,36.9574 11.086,37.2907 10.5,37.5C 9.50103,25.5185 9.16769,13.5185 9.5,1.5 Z M 12.5,3.5 C 25.1667,3.5 37.8333,3.5 50.5,3.5C 50.5,5.5 50.5,7.5 50.5,9.5C 37.8333,9.5 25.1667,9.5 12.5,9.5C 12.5,7.5 12.5,5.5 12.5,3.5 Z"/></g>
<g><path style="opacity:0.762" fill="#30efb6" d="M 13.5,5.5 C 15.337,5.63945 15.6704,6.30612 14.5,7.5C 13.7025,7.04311 13.3691,6.37644 13.5,5.5 Z"/></g>
<g><path style="opacity:0.762" fill="#30efb6" d="M 17.5,5.5 C 19.337,5.63945 19.6704,6.30612 18.5,7.5C 17.7025,7.04311 17.3691,6.37644 17.5,5.5 Z"/></g>
<g><path style="opacity:0.764" fill="#30efb6" d="M 21.5,5.5 C 23.337,5.63945 23.6704,6.30612 22.5,7.5C 21.7025,7.04311 21.3691,6.37644 21.5,5.5 Z"/></g>
<g><path style="opacity:0.965" fill="#2fefb6" d="M 35.5,5.5 C 40.2137,5.17338 44.8804,5.50671 49.5,6.5C 47.1667,6.83333 44.8333,7.16667 42.5,7.5C 39.7305,7.47144 37.3972,6.80478 35.5,5.5 Z"/></g>
<g><path style="opacity:0.986" fill="#2ff1b3" d="M 1.5,7.5 C 3.60395,7.2011 5.60395,7.53443 7.5,8.5C 6.37174,9.26209 5.20508,9.92876 4,10.5C 3.5002,20.1609 3.33353,29.8276 3.5,39.5C 21.8333,39.5 40.1667,39.5 58.5,39.5C 58.5,29.5 58.5,19.5 58.5,9.5C 57.325,9.71901 56.325,9.38568 55.5,8.5C 57.396,7.53443 59.396,7.2011 61.5,7.5C 61.5,21.5 61.5,35.5 61.5,49.5C 41.5,49.5 21.5,49.5 1.5,49.5C 1.5,35.5 1.5,21.5 1.5,7.5 Z M 3.5,41.5 C 21.8333,41.5 40.1667,41.5 58.5,41.5C 58.5,43.5 58.5,45.5 58.5,47.5C 40.4969,47.6666 22.4969,47.4999 4.5,47C 3.59391,45.3005 3.26057,43.4672 3.5,41.5 Z"/></g>
<g><path style="opacity:0.786" fill="#2ff3c2" d="M 32.5,15.5 C 33.5,15.5 34.5,15.5 35.5,15.5C 34.2465,22.2623 32.5798,28.929 30.5,35.5C 29.5,35.5 28.5,35.5 27.5,35.5C 28.7535,28.7377 30.4202,22.071 32.5,15.5 Z"/></g>
<g><path style="opacity:0.792" fill="#30f1b8" d="M 21.5,19.5 C 22.5,19.5 23.5,19.5 24.5,19.5C 24.6495,20.552 24.4828,21.552 24,22.5C 22.5134,23.1552 21.3467,24.1552 20.5,25.5C 21.8651,26.941 23.3651,28.2744 25,29.5C 25.5628,30.7248 25.2295,31.7248 24,32.5C 20.941,30.6026 18.441,28.2693 16.5,25.5C 17.8608,23.3006 19.5275,21.3006 21.5,19.5 Z"/></g>
<g><path style="opacity:0.808" fill="#31f0b8" d="M 38.5,19.5 C 48.419,22.4868 48.919,26.4868 40,31.5C 38.9412,31.3699 38.1079,30.8699 37.5,30C 39.2077,28.4905 40.8744,26.9905 42.5,25.5C 41.6533,24.1552 40.4866,23.1552 39,22.5C 38.5172,21.552 38.3505,20.552 38.5,19.5 Z"/></g>
<g><path style="opacity:0.933" fill="#33f1ba" d="M 28.5,43.5 C 30.924,43.1924 33.2573,43.5258 35.5,44.5C 34.3333,44.8333 33.1667,45.1667 32,45.5C 30.3189,45.3917 29.1522,44.7251 28.5,43.5 Z"/></g>
<g><path style="opacity:0.952" fill="#30f0b5" d="M 25.5,50.5 C 27.5988,51.3697 27.9321,52.703 26.5,54.5C 29.8333,55.8333 33.1667,55.8333 36.5,54.5C 35.0892,52.9825 35.2559,51.6492 37,50.5C 39.0194,53.7118 41.8527,55.3784 45.5,55.5C 45.5,57.5 45.5,59.5 45.5,61.5C 36.1667,61.5 26.8333,61.5 17.5,61.5C 17.5,59.5 17.5,57.5 17.5,55.5C 21.1746,55.4997 23.8413,53.833 25.5,50.5 Z M 20.5,57.5 C 28.3401,57.036 36.0068,57.536 43.5,59C 35.5,59.6667 27.5,59.6667 19.5,59C 20.056,58.6174 20.3893,58.1174 20.5,57.5 Z"/></g>
</svg>
