<?xml version="1.0" encoding="UTF-8"?>
<!DOCTYPE svg PUBLIC "-//W3C//DTD SVG 1.1//EN" "http://www.w3.org/Graphics/SVG/1.1/DTD/svg11.dtd">
<svg xmlns="http://www.w3.org/2000/svg" version="1.1" width="64px" height="64px" style="shape-rendering:geometricPrecision; text-rendering:geometricPrecision; image-rendering:optimizeQuality; fill-rule:evenodd; clip-rule:evenodd" xmlns:xlink="http://www.w3.org/1999/xlink">
<g><path style="opacity:0.968" fill="#30f0b6" d="M 1.5,-0.5 C 3.16667,-0.5 4.83333,-0.5 6.5,-0.5C 5.21303,1.25742 3.71303,2.92409 2,4.5C 1.50012,16.8288 1.33346,29.1622 1.5,41.5C 36.1667,42.1667 36.1667,42.8333 1.5,43.5C 1.3291,45.9928 2.3291,47.8261 4.5,49C 12.1883,49.1685 19.8549,49.6685 27.5,50.5C 19.5,51.8333 19.5,53.1667 27.5,54.5C 15.703,56.2856 15.703,57.6189 27.5,58.5C 23.8927,59.4892 20.226,59.8226 16.5,59.5C 16.1601,56.8559 16.8267,54.5225 18.5,52.5C 12.8624,51.6701 7.19576,51.1701 1.5,51C 0.955796,50.2828 0.28913,49.7828 -0.5,49.5C -0.5,33.5 -0.5,17.5 -0.5,1.5C 0.5,1.16667 1.16667,0.5 1.5,-0.5 Z"/></g>
<g><path style="opacity:1" fill="#30f0b5" d="M 8.5,-0.5 C 9.16667,-0.5 9.83333,-0.5 10.5,-0.5C 9.83333,2.16667 9.16667,2.16667 8.5,-0.5 Z"/></g>
<g><path style="opacity:0.961" fill="#30f0b6" d="M 12.5,-0.5 C 28.8333,-0.5 45.1667,-0.5 61.5,-0.5C 61.8333,0.5 62.5,1.16667 63.5,1.5C 63.5,17.5 63.5,33.5 63.5,49.5C 62.5178,50.1408 61.5178,50.8075 60.5,51.5C 60.025,55.7478 59.025,59.7478 57.5,63.5C 48.8333,63.5 40.1667,63.5 31.5,63.5C 31.2172,62.7109 30.7172,62.0442 30,61.5C 29.3333,46.1667 29.3333,30.8333 30,15.5C 30.5,15 31,14.5 31.5,14C 40.1667,13.3333 48.8333,13.3333 57.5,14C 58,14.5 58.5,15 59,15.5C 59.3333,26.5 59.6667,37.5 60,48.5C 61.6326,33.9267 61.966,19.2601 61,4.5C 60.5,3.33333 59.6667,2.5 58.5,2C 42.8006,2.15423 27.4673,1.3209 12.5,-0.5 Z M 34.5,15.5 C 41.175,15.3337 47.8417,15.5004 54.5,16C 55.3081,16.3076 55.9747,16.8076 56.5,17.5C 52.2639,18.4717 48.2639,19.8051 44.5,21.5C 40.7361,19.8051 36.7361,18.4717 32.5,17.5C 33.2427,16.8182 33.9094,16.1515 34.5,15.5 Z M 31.5,20.5 C 33.1667,20.5 34.8333,20.5 36.5,20.5C 36.5,21.5 36.5,22.5 36.5,23.5C 41.8333,23.5 47.1667,23.5 52.5,23.5C 52.5,22.5 52.5,21.5 52.5,20.5C 54.1667,20.5 55.8333,20.5 57.5,20.5C 57.5,32.1667 57.5,43.8333 57.5,55.5C 48.8333,55.5 40.1667,55.5 31.5,55.5C 31.5,43.8333 31.5,32.1667 31.5,20.5 Z M 40.5,30.5 C 43.1873,30.3359 45.854,30.5026 48.5,31C 46.5448,31.9533 44.8782,33.2866 43.5,35C 40.9925,35.0929 38.8259,35.9262 37,37.5C 36.3333,36.5 36.3333,35.5 37,34.5C 38.3756,33.2949 39.5423,31.9616 40.5,30.5 Z M 40.5,45.5 C 41.8734,45.6567 43.2068,45.49 44.5,45C 47,42.5 49.5,40 52,37.5C 51.8642,45.4682 48.0308,48.1349 40.5,45.5 Z M 44.5,39.5 C 43.4574,41.8519 42.1241,42.0185 40.5,40C 41.7932,39.51 43.1266,39.3433 44.5,39.5 Z M 31.5,58.5 C 39.9901,57.3431 48.6567,57.1764 57.5,58C 56.8333,59.3333 55.8333,60.3333 54.5,61C 47.8333,61.6667 41.1667,61.6667 34.5,61C 33.3094,60.3021 32.3094,59.4687 31.5,58.5 Z"/></g>
<g><path style="opacity:0.812" fill="#32f0b5" d="M 12.5,3.5 C 15.1441,3.16007 17.4775,3.82674 19.5,5.5C 22.6311,4.8813 24.9644,6.21464 26.5,9.5C 27.8333,13.5 27.8333,17.5 26.5,21.5C 25.1667,23.5 23.5,25.1667 21.5,26.5C 17.5,27.8333 13.5,27.8333 9.5,26.5C 7.5,25.1667 5.83333,23.5 4.5,21.5C 3.16667,17.5 3.16667,13.5 4.5,9.5C 6.0356,6.21464 8.36894,4.8813 11.5,5.5C 12.2975,5.04311 12.6309,4.37644 12.5,3.5 Z M 21.5,9.5 C 21.3286,12.4877 22.6619,14.4877 25.5,15.5C 22.6619,16.5123 21.3286,18.5123 21.5,21.5C 18.5123,21.3286 16.5123,22.6619 15.5,25.5C 14.4877,22.6619 12.4877,21.3286 9.5,21.5C 9.67142,18.5123 8.33809,16.5123 5.5,15.5C 8.33809,14.4877 9.67142,12.4877 9.5,9.5C 12.4877,9.67142 14.4877,8.33809 15.5,5.5C 16.5123,8.33809 18.5123,9.67142 21.5,9.5 Z M 13.5,13.5 C 14.8333,13.5 16.1667,13.5 17.5,13.5C 17.5,14.8333 17.5,16.1667 17.5,17.5C 16.1667,17.5 14.8333,17.5 13.5,17.5C 13.5,16.1667 13.5,14.8333 13.5,13.5 Z"/></g>
<g><path style="opacity:1" fill="#30f0b5" d="M 41.5,3.5 C 45.8839,3.17443 50.2172,3.50776 54.5,4.5C 52.3333,4.83333 50.1667,5.16667 48,5.5C 45.3897,5.46677 43.223,4.80011 41.5,3.5 Z"/></g>
<g><path style="opacity:1" fill="#30f0b5" d="M 56.5,3.5 C 58.337,3.63945 58.6704,4.30612 57.5,5.5C 56.7025,5.04311 56.3691,4.37644 56.5,3.5 Z"/></g>
<g><path style="opacity:0.8" fill="#2fefb6" d="M 12.5,10.5 C 20.4863,9.99804 22.4863,13.1647 18.5,20C 10.424,20.8047 8.42402,17.638 12.5,10.5 Z M 13.5,13.5 C 13.5,14.8333 13.5,16.1667 13.5,17.5C 14.8333,17.5 16.1667,17.5 17.5,17.5C 17.5,16.1667 17.5,14.8333 17.5,13.5C 16.1667,13.5 14.8333,13.5 13.5,13.5 Z"/></g>
<g><path style="opacity:1" fill="#30f0b5" d="M 40.5,17.5 C 43.2469,17.1866 45.9135,17.52 48.5,18.5C 47.1667,18.8333 45.8333,19.1667 44.5,19.5C 42.6672,19.4146 41.3339,18.7479 40.5,17.5 Z"/></g>
<g><path style="opacity:0.834" fill="#31f0b5" d="M 23.5,26.5 C 25.288,26.2148 26.9547,26.5481 28.5,27.5C 27.675,28.3857 26.675,28.719 25.5,28.5C 25.2542,31.4701 23.5876,32.8034 20.5,32.5C 20.8034,35.5876 19.4701,37.2542 16.5,37.5C 16.1009,40.9877 15.4342,41.1544 14.5,38C 14.8443,36.6349 15.5109,35.4682 16.5,34.5C 15.8813,31.3689 17.2146,29.0356 20.5,27.5C 22.2249,29.0916 23.2249,28.7583 23.5,26.5 Z"/></g>
<g><path style="opacity:0.719" fill="#2ff0b6" d="M 39.5,27.5 C 51.9901,25.8227 57.1568,31.156 55,43.5C 54.2155,45.286 53.0488,46.786 51.5,48C 38.0744,52.2377 32.2411,47.4043 34,33.5C 35.3597,30.9774 37.193,28.9774 39.5,27.5 Z M 40.5,30.5 C 39.5423,31.9616 38.3756,33.2949 37,34.5C 36.3333,35.5 36.3333,36.5 37,37.5C 38.8259,35.9262 40.9925,35.0929 43.5,35C 44.8782,33.2866 46.5448,31.9533 48.5,31C 45.854,30.5026 43.1873,30.3359 40.5,30.5 Z M 40.5,45.5 C 48.0308,48.1349 51.8642,45.4682 52,37.5C 49.5,40 47,42.5 44.5,45C 43.2068,45.49 41.8734,45.6567 40.5,45.5 Z M 44.5,39.5 C 43.1266,39.3433 41.7932,39.51 40.5,40C 42.1241,42.0185 43.4574,41.8519 44.5,39.5 Z"/></g>
<g><path style="opacity:0.847" fill="#30efb6" d="M 23.5,33.5 C 24.5,33.5 25.5,33.5 26.5,33.5C 26.1667,36.5 24.5,38.1667 21.5,38.5C 21.3915,36.4862 22.0582,34.8195 23.5,33.5 Z"/></g>
<g><path style="opacity:1" fill="#30f0b5" d="M 3.5,45.5 C 5.33702,45.6395 5.67036,46.3061 4.5,47.5C 3.70245,47.0431 3.36912,46.3764 3.5,45.5 Z"/></g>
<g><path style="opacity:1" fill="#30f0b5" d="M 7.5,45.5 C 9.60395,45.2011 11.604,45.5344 13.5,46.5C 12.5,46.8333 11.5,47.1667 10.5,47.5C 8.97041,47.3601 7.97041,46.6935 7.5,45.5 Z"/></g>
<g><path style="opacity:1" fill="#30f0b5" d="M 40.5,58.5 C 43.2469,58.1866 45.9135,58.52 48.5,59.5C 47.1667,59.8333 45.8333,60.1667 44.5,60.5C 42.6672,60.4146 41.3339,59.7479 40.5,58.5 Z"/></g>
</svg>
