<?xml version="1.0" encoding="utf-8"?>
<!-- Generator: Adobe Illustrator 27.5.0, SVG Export Plug-In . SVG Version: 6.00 Build 0)  -->
<svg version="1.1" xmlns="http://www.w3.org/2000/svg" xmlns:xlink="http://www.w3.org/1999/xlink" x="0px" y="0px"
	 viewBox="0 0 500 500" style="enable-background:new 0 0 500 500;" xml:space="preserve">
<g id="BACKGROUND">
	<rect style="fill:#FFFFFF;" width="500" height="500"/>
</g>
<g id="OBJECTS">
	<g>
		<g>
			<g>
				<path style="fill:#E5E5E5;" d="M165.688,81.481c-0.026,1.985-0.732,4.188-1.849,6.137c-1.117,1.949-2.645,3.645-4.314,4.618
					l-43.752,25.484c-3.338,1.944-6.027,0.287-5.976-3.684c0.011-0.842,0.146-1.727,0.381-2.61c0.319-1.201,0.827-2.407,1.469-3.527
					c0.829-1.447,1.886-2.755,3.058-3.731c0.48-11.641,8.508-25.41,18.214-31.064c6.35-3.699,11.881-3.028,14.995,1.033
					c0.897-0.857,1.85-1.591,2.839-2.167c0.306-0.178,0.607-0.335,0.902-0.475c4.737-2.222,8.385,0.37,8.31,6.154
					c0,0.003,0,0.003,0,0.006C163.186,75.938,165.739,77.612,165.688,81.481z"/>
			</g>
			<g>
				<path style="fill:#E5E5E5;" d="M207.014,48.54c-0.017,1.328-0.49,2.8-1.237,4.104c-0.747,1.303-1.769,2.438-2.885,3.088
					l-29.257,17.041c-2.232,1.3-4.03,0.192-3.996-2.463c0.007-0.563,0.097-1.155,0.254-1.745c0.214-0.803,0.553-1.61,0.982-2.359
					c0.555-0.968,1.261-1.842,2.045-2.495c0.321-7.785,5.689-16.992,12.18-20.772c4.246-2.473,7.945-2.024,10.027,0.691
					c0.6-0.573,1.237-1.064,1.898-1.449c0.205-0.119,0.406-0.224,0.603-0.318c3.168-1.486,5.607,0.247,5.557,4.115
					c0,0.002,0,0.002,0,0.004C205.34,44.833,207.048,45.953,207.014,48.54z"/>
			</g>
		</g>
		<g>
			<g>
				<path style="fill:#E5E5E5;" d="M369.772,88.529c0.026,1.985,0.732,4.188,1.849,6.137c1.117,1.949,2.645,3.645,4.314,4.618
					l43.752,25.484c3.338,1.945,6.027,0.287,5.975-3.684c-0.011-0.842-0.146-1.727-0.38-2.61c-0.319-1.201-0.827-2.407-1.469-3.527
					c-0.83-1.447-1.886-2.755-3.058-3.73c-0.481-11.642-8.508-25.41-18.215-31.064c-6.35-3.699-11.881-3.028-14.995,1.033
					c-0.897-0.857-1.85-1.591-2.839-2.167c-0.306-0.178-0.607-0.335-0.902-0.475c-4.737-2.222-8.385,0.369-8.31,6.154
					c0,0.003,0,0.003,0,0.006C372.275,82.987,369.722,84.661,369.772,88.529z"/>
			</g>
			<g>
				<path style="fill:#E5E5E5;" d="M332.565,51.64c0.017,1.328,0.49,2.8,1.237,4.104c0.747,1.304,1.769,2.438,2.885,3.088
					l29.256,17.041c2.232,1.3,4.03,0.192,3.996-2.463c-0.007-0.563-0.097-1.155-0.254-1.745c-0.214-0.803-0.553-1.61-0.982-2.359
					c-0.555-0.968-1.261-1.842-2.045-2.495c-0.321-7.785-5.689-16.992-12.18-20.772c-4.246-2.474-7.945-2.025-10.027,0.691
					c-0.6-0.573-1.237-1.064-1.898-1.449c-0.205-0.119-0.406-0.224-0.603-0.318c-3.168-1.486-5.607,0.247-5.557,4.115
					c0,0.002,0,0.002,0,0.004C334.239,47.934,332.532,49.054,332.565,51.64z"/>
			</g>
		</g>
	</g>
	<g>
		<path style="fill:#E5E5E5;" d="M451.964,171.774l7.892,4.422c1.091,0.723,1.041,2.341-0.093,2.995l-43.324,25.01
			c-1.615,0.932-3.606,0.929-5.218-0.01l-85.018-49.492c-0.799-0.462-0.819-1.608-0.036-2.098l8.166-5.056l77.937,45.002
			L451.964,171.774z"/>
		<g>
			<g>
				<path style="fill:#252B3D;" d="M415.113,198.07c0.568,0.015,1.192-0.074,1.824-0.356c0,0,0.001-0.001,0.002-0.001l0.799-0.465
					c0.001-0.001,0.003-0.002,0.004-0.002l0.33-0.192l36.955-21.477c0.666-0.388,1.076-1.099,1.076-1.87l0-4.092
					c-0.012-0.417-0.225-0.827-0.637-1.065l-3.877-2.238l-36.227,20.921l-0.14,6.072L415.113,198.07z"/>
				<path style="fill:#3A4059;" d="M331.532,144.96l0,3.923c0,1.009,0.537,1.941,1.411,2.446l79.696,46.018l0.18,0.103
					c0.005,0.002,0.011,0.005,0.016,0.009c0.372,0.196,1.23,0.583,2.279,0.612l0.109-4.765l0.14-6.072l-79.243-45.432h-0.001
					l-3.965,2.273C331.799,144.276,331.592,144.607,331.532,144.96z"/>
				<polygon style="fill:#FFFFFF;" points="440.992,167.557 405.779,188.016 337.311,148.48 372.759,128.162 				"/>
				<polygon style="fill:#FFFFFF;" points="440.992,167.557 405.779,188.016 337.311,148.48 372.759,128.162 				"/>
				<g>
					<g>
						<path style="fill:#6B749B;" d="M442.547,180.212l0,1.047c0,0.083-0.044,0.16-0.117,0.202l-10.061,5.808
							c-0.155,0.09-0.349-0.023-0.349-0.202v-1.047c0-0.083,0.044-0.16,0.117-0.202l10.061-5.808
							C442.353,179.919,442.547,180.032,442.547,180.212z"/>
					</g>
					<g>
						<path style="fill:#51557C;" d="M442.547,180.212l0,0.594c0,0.083-0.044,0.16-0.117,0.202l-10.061,5.808
							c-0.155,0.09-0.349-0.023-0.349-0.202v-0.594c0-0.083,0.044-0.16,0.117-0.202l10.061-5.808
							C442.353,179.919,442.547,180.032,442.547,180.212z"/>
					</g>
				</g>
				<g>
					<path style="fill:#6B749B;" d="M428.839,188.691c-0.03,0.616-0.312,1.103-0.628,1.087c-0.038-0.002-0.074-0.011-0.109-0.026
						c-0.258-0.113-0.435-0.575-0.408-1.117c0.026-0.523,0.233-0.953,0.488-1.061c0.045-0.02,0.092-0.029,0.14-0.026
						C428.637,187.563,428.869,188.075,428.839,188.691z"/>
					<path style="fill:#51557C;" d="M428.589,188.691c-0.026,0.523-0.233,0.953-0.488,1.061c-0.258-0.113-0.435-0.575-0.408-1.117
						c0.026-0.523,0.233-0.953,0.488-1.061C428.439,187.687,428.616,188.149,428.589,188.691z"/>
				</g>
				<g>
					<path style="fill:#51557C;" d="M331.532,145.401c0.06,0.352,0.265,0.681,0.618,0.885l80.121,46.262
						c0.913,0.528,1.935,0.781,2.952,0.758c0.944-0.018,1.885-0.274,2.73-0.765l37.517-21.783c0.41-0.239,0.621-0.647,0.634-1.062
						v-0.081c-0.012-0.416-0.225-0.827-0.638-1.065l-3.877-2.238l-15.032-8.68l-40.222-23.225l-22.931-13.241
						c-0.393-0.227-0.878-0.228-1.271-0.002L336.119,141.8h-0.001l-3.965,2.273c-0.354,0.203-0.562,0.534-0.621,0.886
						C331.506,145.106,331.506,145.255,331.532,145.401z"/>
					<path style="fill:#3A4059;" d="M435.67,177.133c0.096,1.884-2.139,2.844-4.777,2.844c-2.638,0-4.893-0.844-4.777-2.896
						c0.077-1.352,2.139-2.009,4.777-2.009C433.531,175.072,435.601,175.781,435.67,177.133z"/>
					<path style="fill:#6B749B;" d="M435.67,177.082c0,1.354-2.139,2.452-4.777,2.452c-2.638,0-4.777-1.098-4.777-2.453
						c0-1.354,2.139-2.452,4.777-2.452C433.531,174.629,435.67,175.727,435.67,177.082z"/>
					<path style="opacity:0.3;fill:#6B749B;" d="M434.636,176.921c0,1.061-1.676,1.922-3.743,1.921c-2.067,0-3.743-0.86-3.743-1.922
						c0-1.061,1.676-1.922,3.743-1.921C432.96,175,434.636,175.86,434.636,176.921z"/>
					<path style="fill:#FFFFFF;" d="M340.069,145.843l1.898,1.096l6.302,3.64l14.126,8.16l15.34,8.854l6.156,3.556l11.207,6.475
						l9.776,5.641c0.959,0.553,2.139,0.552,3.096-0.003l1.255-0.727l12.668-7.37l6.158-3.566l11.937-6.941
						c0.734-0.426,0.732-1.487-0.003-1.911l-11.934-6.888l-6.158-3.556l-12.667-7.312l-14.126-8.158l-11.207-6.476l-6.156-3.555
						l-0.456-0.264l-2.333-1.343c-0.956-0.551-2.132-0.552-3.089-0.003l-9.463,5.423l-14.127,8.099l-8.197,4.696
						C339.135,143.948,339.132,145.301,340.069,145.843z"/>
					<path style="fill:#51557C;" d="M340.069,145.843l1.898,1.096l35.314-20.402l-2.333-1.343c-0.956-0.551-2.132-0.552-3.089-0.003
						l-9.463,5.423l-14.127,8.099l-8.197,4.696C339.135,143.948,339.132,145.301,340.069,145.843z"/>
					<g>
						<g>
							<path style="fill:#6B749B;" d="M353.068,138.349c0.12-0.019,0.234-0.056,0.331-0.111l12.943-7.407
								c0.29-0.166,0.307-0.434,0.038-0.599c-0.269-0.165-0.722-0.164-1.012,0.002l-12.942,7.407
								c-0.29,0.166-0.307,0.434-0.038,0.599C352.566,138.35,352.828,138.387,353.068,138.349z"/>
						</g>
					</g>
				</g>
			</g>
		</g>
	</g>
	<g>
		<g>
			
				<ellipse transform="matrix(0.2925 -0.9563 0.9563 0.2925 -121.1373 292.9337)" style="fill:#E5E5E5;" cx="137.397" cy="228.332" rx="22.377" ry="49.323"/>
			<g>
				<path style="fill:#B11118;" d="M178.449,193.517v38.513c-1.366,0.942-2.732,0.942-4.098,0v-38.513H178.449z"/>
				<path style="fill:#B11118;" d="M103.73,188.206v41.428c-1.366,0.942-2.732,0.942-4.098,0v-41.428H103.73z"/>
				<path style="fill:#B11118;" d="M130.482,225.579c1.366,0.942,2.732,0.942,4.098,0v-54.082h-4.098V225.579z"/>
				<path style="fill:#B11118;" d="M142.664,249.65c1.366,0.942,2.732,0.942,4.098,0v-54.082h-4.098V249.65z"/>
				<path style="fill:#D5243A;" d="M153.599,180.974l-19.863-11.468c-0.41-0.235-0.913-0.235-1.323,0.003l-19.759,11.465H99.632
					v7.781h0.114c-0.258,0.582-0.073,1.323,0.551,1.679l41.44,23.595c1.977,1.128,4.402,1.13,6.382,0.008l29.659-16.808
					c0.518-0.293,0.736-0.852,0.652-1.366h0.015v-7.783h-12.54l-5.662-3.27L153.599,180.974z"/>
				<path style="fill:#FF4A67;" d="M177.779,189.23l-29.659,16.807c-1.98,1.122-4.405,1.12-6.383-0.007l-41.439-23.595
					c-0.884-0.503-0.889-1.776-0.009-2.286l32.126-18.641c0.408-0.237,0.912-0.237,1.321-0.001l44.053,25.434
					C178.672,187.451,178.666,188.727,177.779,189.23z"/>
			</g>
		</g>
		<g>
			
				<ellipse transform="matrix(0.2925 -0.9563 0.9563 0.2925 -178.521 259.2905)" style="fill:#E5E5E5;" cx="85.968" cy="250.29" rx="13.158" ry="29.003"/>
			<g>
				<g>
					<path style="fill:#D5243A;" d="M129.016,134.314c-0.012,0.096-0.026,0.192-0.045,0.291c-0.023,0.162-0.054,0.328-0.089,0.495
						c-1.794,8.834-14.706,23.577-14.706,23.577l-6.627-3.871c6.291-8.445,13.254-25.949,13.254-25.949l4.365,2.899L129.016,134.314
						z"/>
					<g>
						<g>
							<path style="fill:#D5243A;" d="M134.127,123.768c-0.809,4.046-2.838,7.65-4.832,10.401c-0.11,0.148-0.216,0.293-0.324,0.436
								c-0.087,0.115-0.171,0.227-0.256,0.338c-0.582,0.758-1.149,1.44-1.673,2.034c-0.91-1.138-1.912-2.193-2.843-3.314
								c-0.746-0.898-1.339-1.912-1.994-2.874c-0.434-0.64-0.894-1.309-1.403-1.93c4.241-9.303,7.896-28.794,7.896-28.794
								S135.941,114.708,134.127,123.768z"/>
						</g>
					</g>
					<g>
						<path style="fill:#B11118;" d="M129.295,134.169c-0.11,0.148-0.216,0.293-0.324,0.436c-0.023,0.162-0.054,0.328-0.089,0.495
							c-0.054-0.052-0.108-0.103-0.167-0.157c-0.837-0.772-2.076-1.71-3.601-2.266c-0.183-0.068-0.3-0.232-0.314-0.413
							c-0.007-0.068,0.002-0.136,0.026-0.202c0.056-0.157,0.188-0.267,0.342-0.305c0.087-0.019,0.183-0.014,0.274,0.019
							C127.071,132.372,128.39,133.345,129.295,134.169z"/>
					</g>
				</g>
				<g>
					<g>
						<g>
							<g>
								<g>
									<path style="fill:#FF4A67;" d="M94.772,240.219c0.964,0.317,1.657,1.187,1.808,2.208c0.132,0.894,0.237,2.171,0.186,3.866
										c-0.116,3.78-0.165,5.372-0.165,5.372s-1.139,1.944-4.419,2.486l-1.257,0.203c0,0-7.131,4.394-10.597,4.737
										c-4.523,0.448-9.146-1.632-5.405-6.033c3.533-4.156,8.729-5.821,10.264-9.15c0.179-0.388,1.338-1.216,1.633-1.521
										C89.325,239.794,91.253,239.06,94.772,240.219z"/>
								</g>
							</g>
						</g>
						<g>
							<g>
								<g>
									<path style="fill:#FFFFFF;" d="M87.023,248.293c-0.164,0-0.319-0.096-0.388-0.256c-0.005-0.012-0.578-1.309-1.644-1.664
										c-1.021-0.341-2.117,0.548-2.128,0.557c-0.18,0.148-0.445,0.123-0.593-0.056c-0.148-0.179-0.124-0.444,0.054-0.593
										c0.059-0.049,1.463-1.199,2.934-0.709c1.428,0.476,2.123,2.064,2.152,2.132c0.092,0.214-0.007,0.462-0.221,0.554
										C87.135,248.281,87.078,248.293,87.023,248.293z"/>
								</g>
							</g>
							<g>
								<g>
									<path style="fill:#FFFFFF;" d="M85.547,249.347c-0.164,0-0.319-0.096-0.388-0.256c-0.005-0.012-0.578-1.309-1.644-1.664
										c-1.021-0.341-2.117,0.548-2.128,0.557c-0.18,0.148-0.445,0.123-0.593-0.056c-0.148-0.179-0.124-0.444,0.054-0.593
										c0.059-0.049,1.463-1.199,2.934-0.709c1.428,0.476,2.123,2.064,2.152,2.132c0.092,0.214-0.007,0.462-0.221,0.554
										C85.659,249.336,85.602,249.347,85.547,249.347z"/>
								</g>
							</g>
							<g>
								<g>
									<path style="fill:#FFFFFF;" d="M83.864,250.29c-0.164,0-0.319-0.096-0.388-0.256c-0.005-0.012-0.578-1.309-1.644-1.664
										c-1.021-0.341-2.117,0.548-2.128,0.557c-0.18,0.148-0.445,0.123-0.593-0.056c-0.148-0.179-0.124-0.444,0.054-0.593
										c0.059-0.049,1.463-1.199,2.934-0.709c1.428,0.476,2.123,2.064,2.152,2.132c0.092,0.214-0.007,0.462-0.221,0.554
										C83.976,250.279,83.919,250.29,83.864,250.29z"/>
								</g>
							</g>
						</g>
						<g>
							<path style="fill:#FCB38F;" d="M96.108,232.972l-1.959,9.154c0,0-3.005,2.347-6.34,0.785l1.612-9.887
								C89.421,233.024,93.807,231.651,96.108,232.972z"/>
						</g>
					</g>
					<path style="fill:#252B3D;" d="M125.458,162.196c0,0-32.341,13.584-33.977,20.326c-1.636,6.742-4.476,53.632-4.476,53.632
						s4.365,2.462,9.191,1.504c0,0,2.918-15.703,4.281-19.917c1.363-4.214,4.453-19.439,4.953-25.048
						c0,0,26.476-10.355,30.151-16.623C143.656,162.299,125.458,162.196,125.458,162.196z"/>
				</g>
				<path style="fill:#252B3D;" d="M160.214,160.908c0,0,2.741,11.601,0.319,21.969c-1.961,8.392-35.348,0.452-36.052-7.319
					c-0.704-7.771,3.284-18.62,3.284-18.62L160.214,160.908z"/>
				<g>
					<g>
						<path style="fill:#FF4A67;" d="M125.458,162.196c12.38,4.212,25.86,9.883,36.075,3.113
							c-1.818-10.133-4.062-26.284-3.035-32.249c1.714-9.95,11.342-26.771,3.245-30.352c-1.923-0.851-4.935-1.678-8.375-2.434
							c-4.576-1.005-9.939-1.891-14.653-2.576c-2.224-0.331-4.76-0.244-6.236-0.033c-3.34,0.477-4.523,1.951-3.585,5.271
							c1.147,4.065,1.308,8.429-0.633,12.863c-3.265,7.458,1.789,11.505,2.53,18.134
							C131.379,139.271,127.424,153.986,125.458,162.196z"/>
					</g>
					<g>
						<path style="fill:#FFFFFF;" d="M143.189,110.275c-0.878,0-1.721-0.251-2.503-0.755c-4.996-3.212-2.212-11.849-2.091-12.215
							l0.891,0.294c-0.027,0.083-2.678,8.312,1.707,11.131c1.28,0.823,2.719,0.809,4.277-0.042c3.333-1.82,6.038-6.788,6.038-9.067
							h0.938c0,2.789-3.073,8.005-6.526,9.89C144.99,110.021,144.071,110.275,143.189,110.275z"/>
					</g>
					<g>
						<path style="fill:#D5243A;" d="M144.423,134.314c-8.604,0-13.214-2.464-13.442-2.589c-0.232-0.127-0.317-0.419-0.19-0.651
							c0.128-0.232,0.419-0.317,0.651-0.19l0,0c0.064,0.035,6.57,3.493,18.377,2.158c0.263-0.03,0.501,0.16,0.531,0.423
							c0.03,0.263-0.16,0.501-0.423,0.531C147.941,134.22,146.106,134.314,144.423,134.314z"/>
					</g>
					<g>
						<path style="fill:#D5243A;" d="M142.387,116.919c-0.046,0-0.093-0.007-0.14-0.021c-5.379-1.636-6.595-5.325-6.644-5.481
							c-0.079-0.253,0.061-0.522,0.314-0.602c0.251-0.079,0.521,0.06,0.601,0.312c0.045,0.14,1.142,3.372,6.008,4.853
							c0.254,0.077,0.397,0.345,0.319,0.599C142.783,116.786,142.593,116.919,142.387,116.919z"/>
					</g>
					<g>
						<path style="fill:#D5243A;" d="M149.188,160.023c-11.821,0-18.507-6.505-18.786-6.782c-0.188-0.186-0.189-0.49-0.003-0.678
							c0.186-0.188,0.49-0.189,0.678-0.003c0.066,0.065,6.703,6.503,18.11,6.503c0.263-0.006,0.483,0.213,0.483,0.48
							c0,0.265-0.215,0.48-0.48,0.48C149.19,160.023,149.188,160.023,149.188,160.023z"/>
					</g>
					<g>
						<path style="fill:#D5243A;" d="M147.82,157.809c-0.004,0-0.008,0-0.012,0c-4.407-0.107-9.958-3.666-10.192-3.817
							c-0.223-0.144-0.286-0.441-0.142-0.663c0.144-0.222,0.441-0.286,0.663-0.142c0.055,0.036,5.559,3.563,9.695,3.664
							c0.265,0.007,0.474,0.226,0.468,0.491C148.293,157.602,148.08,157.809,147.82,157.809z"/>
					</g>
				</g>
				<g>
					<path style="fill:#252B3D;" d="M160.915,176.113c0,0-54.761-5.399-64.528-3.686s-27.245,40.871-27.245,40.871
						s4.359,4.791,6.589,4.62c2.23-0.172,9.576-12.251,12.886-15.401c3.31-3.15,12.493-13.005,14.144-16.681
						c0,0,31.299,15.49,49.433,7.55C162.716,188.781,160.915,176.113,160.915,176.113z"/>
					<g>
						<g>
							<g>
								<g>
									<path style="fill:#FF4A67;" d="M73.807,219.613c0.698,0.736,0.896,1.83,0.546,2.801c-0.307,0.85-0.82,2.024-1.668,3.492
										c-1.893,3.274-2.69,4.653-2.69,4.653s-1.924,1.172-5.07,0.096l-1.203-0.417c0,0-8.362,0.491-11.577-0.849
										c-4.196-1.749-7.281-5.771-1.902-7.873c5.081-1.986,10.445-0.991,13.374-3.195c0.342-0.257,1.754-0.437,2.159-0.566
										C69.212,216.658,71.257,216.925,73.807,219.613z"/>
								</g>
							</g>
						</g>
						<g>
							<g>
								<g>
									<path style="fill:#FFFFFF;" d="M63.158,223.051c-0.144-0.077-0.236-0.236-0.22-0.409c0.001-0.013,0.111-1.427-0.659-2.244
										c-0.738-0.784-2.124-0.52-2.138-0.517c-0.228,0.045-0.45-0.103-0.496-0.33c-0.046-0.228,0.101-0.45,0.329-0.496
										c0.075-0.015,1.857-0.363,2.919,0.766c1.032,1.096,0.892,2.824,0.885,2.897c-0.021,0.232-0.225,0.403-0.457,0.383
										C63.262,223.095,63.207,223.078,63.158,223.051z"/>
								</g>
							</g>
							<g>
								<g>
									<path style="fill:#FFFFFF;" d="M61.359,223.281c-0.144-0.078-0.236-0.236-0.22-0.409c0.001-0.013,0.111-1.426-0.659-2.244
										c-0.737-0.784-2.124-0.52-2.138-0.517c-0.228,0.045-0.45-0.103-0.496-0.33c-0.046-0.228,0.101-0.45,0.329-0.496
										c0.075-0.015,1.856-0.363,2.919,0.766c1.032,1.096,0.891,2.824,0.885,2.897c-0.021,0.232-0.225,0.403-0.457,0.383
										C61.462,223.324,61.407,223.307,61.359,223.281z"/>
								</g>
							</g>
							<g>
								<g>
									<path style="fill:#FFFFFF;" d="M59.43,223.314c-0.144-0.077-0.236-0.236-0.22-0.409c0.001-0.013,0.111-1.427-0.659-2.244
										c-0.737-0.784-2.124-0.52-2.138-0.517c-0.228,0.045-0.45-0.103-0.496-0.331c-0.046-0.228,0.101-0.45,0.329-0.496
										c0.075-0.015,1.856-0.363,2.919,0.766c1.032,1.096,0.892,2.824,0.885,2.897c-0.021,0.232-0.225,0.403-0.457,0.383
										C59.533,223.357,59.478,223.34,59.43,223.314z"/>
								</g>
							</g>
						</g>
						<g>
							<path style="fill:#FCB38F;" d="M74.384,218.555l-2.029,2.441c0,0-3.758,0.643-5.955-2.312l2.823-3.366
								C69.223,215.318,72.984,216.302,74.384,218.555z"/>
						</g>
					</g>
					<path style="fill:#51557C;" d="M69.55,210.531l-2.255,4.057c0,0,3.529,4.165,9.001,5.674l2.178-3.525
						C78.475,216.737,72.681,213.777,69.55,210.531z"/>
				</g>
				<g>
					<g>
						<path style="fill:#252B3D;" d="M149.697,91.53c0,0,6.334-2.331,7.598-8.827c1.264-6.497,0.893-16.039-7.975-18.845
							c-8.867-2.806-17.062-0.114-19.039,8.069C130.281,71.926,137.084,88.223,149.697,91.53z"/>
					</g>
					<g>
						<g>
							<g>
								<path style="fill:#FCB38F;" d="M139.749,94.633l0.482,4.497l0.269,2.63c5.128,2.208,10.38-1.1,10.323-1.565
									c-0.561-1.995-0.987-5.414-1.127-8.665c-0.09-0.063-0.187-0.115-0.291-0.156C146.702,90.197,139.749,94.633,139.749,94.633z
									"/>
							</g>
							<g>
								<path style="fill:#FD8471;" d="M139.749,94.633l0.482,4.497c5.123-1.813,7.926-5.588,9.174-7.757
									C146.702,90.197,139.749,94.633,139.749,94.633z"/>
							</g>
						</g>
						<g>
							<g>
								<path style="fill:#FD8471;" d="M131.826,80.412c0,0-1.998-2.371-3.263-0.245c-1.265,2.126,1.03,8.064,4.328,6.396
									L131.826,80.412z"/>
							</g>
							<g>
								<path style="fill:#FFFFFF;" d="M130.861,85.589c-0.039,0.235-0.262,0.394-0.497,0.355c-0.235-0.039-0.394-0.262-0.355-0.497
									c0.039-0.235,0.262-0.394,0.497-0.355C130.742,85.131,130.9,85.353,130.861,85.589z"/>
							</g>
							<g>
								<g>
									<path style="fill:#D6615D;" d="M132.046,84.736c-0.125,0.007-0.244-0.069-0.287-0.193c-0.63-1.838-2.607-2.485-2.627-2.492
										c-0.15-0.048-0.234-0.209-0.186-0.359c0.048-0.151,0.208-0.234,0.359-0.187c0.092,0.029,2.271,0.736,2.997,2.852
										c0.051,0.149-0.029,0.312-0.178,0.364C132.098,84.73,132.072,84.734,132.046,84.736z"/>
								</g>
							</g>
							<g>
								<g>
									<path style="fill:#D6615D;" d="M130.04,83.906c-0.053,0.003-0.107-0.009-0.157-0.037c-0.138-0.078-0.186-0.253-0.108-0.39
										c0.013-0.023,0.326-0.564,1.023-0.925c0.14-0.073,0.313-0.018,0.386,0.123c0.073,0.14,0.018,0.313-0.123,0.386
										c-0.54,0.279-0.786,0.695-0.788,0.699C130.223,83.849,130.134,83.901,130.04,83.906z"/>
								</g>
							</g>
						</g>
						<g>
							<path style="fill:#FCB38F;" d="M130.211,83.383c0.048,0.667,0.118,1.291,0.21,1.856c0.843,5.094,5.32,15.438,14.281,10.168
								c2.15-1.265,3.749-2.515,4.995-3.878c0.941-1.027,1.686-2.118,2.321-3.326c0.246-0.466,0.357-0.991,0.517-1.492
								c0.029-0.088,0.055-0.179,0.082-0.266c0.015-0.051,0.031-0.099,0.046-0.149c0.446-1.462,0.784-2.938,1.047-4.345
								c0.327-1.756,0.535-3.393,0.663-4.739c0.237-2.476-0.855-4.889-2.866-6.353c-5.445-3.967-11.729-3.444-15.953-2.352
								c-2.932,0.757-5.046,3.308-5.244,6.325c-0.097,1.432-0.175,3.063-0.198,4.684C130.096,80.852,130.119,82.185,130.211,83.383z
								"/>
						</g>
						<g>
							<path style="fill:#252B3D;" d="M133.978,78.498c-0.009-0.263-0.232-0.468-0.495-0.459c-0.702,0.024-1.582,0.117-2.381,0.39
								c-1.668,0.57-1.895,1.045-1.895,1.045s0.208,0.197,2.392-0.247c0.561-0.114,1.305-0.16,1.948-0.222
								c0.253-0.024,0.439-0.244,0.43-0.498C133.978,78.505,133.978,78.502,133.978,78.498z"/>
						</g>
						<g>
							<path style="fill:#252B3D;" d="M139.757,78.161c-0.05-0.311,0.165-0.602,0.476-0.652c0.829-0.133,1.883-0.226,2.884-0.089
								c2.089,0.286,2.464,0.791,2.464,0.791s-0.198,0.279-2.864,0.259c-0.684-0.005-1.568,0.112-2.337,0.187
								c-0.303,0.03-0.572-0.186-0.62-0.486C139.758,78.169,139.757,78.165,139.757,78.161z"/>
						</g>
						<g>
							<g>
								<path style="fill:#FD8471;" d="M138.139,87.313c-0.025-0.004-0.051-0.011-0.076-0.021l-1.872-0.727l0.762-4.549
									c0.035-0.209,0.233-0.35,0.441-0.315c0.209,0.035,0.35,0.232,0.315,0.441l-0.659,3.934l1.29,0.501
									c0.197,0.077,0.295,0.299,0.218,0.496C138.492,87.246,138.315,87.342,138.139,87.313z"/>
							</g>
						</g>
						<g>
							<path style="fill:#FD8471;" d="M148.969,86.299c0,0,0.931,1.802,3.049,1.905c0.187-0.492,0.357-0.991,0.517-1.492
								C151.512,86.895,149.946,87.012,148.969,86.299z"/>
						</g>
						<g>
							<path style="fill:#252B3D;" d="M149.697,91.53c0.941-1.027,1.686-2.118,2.321-3.326c0.246-0.466,0.357-0.991,0.517-1.492
								c0.029-0.088,0.055-0.179,0.082-0.266c-0.217,0.01-0.571,0.079-1.152,0.267C151.465,86.712,149.064,89.459,149.697,91.53z"/>
						</g>
						<g>
							<path style="fill:#FFFFFF;" d="M134.954,89.296c0.441,1.292,1.645,3.617,4.599,3.222c2.962-0.396,3.493-2.739,3.573-4.315
								L134.954,89.296z"/>
						</g>
						<g>
							<path style="fill:#252B3D;" d="M141.311,82.111c0.041,0.718,0.444,1.279,0.9,1.253c0.457-0.026,0.794-0.629,0.753-1.347
								c-0.041-0.718-0.444-1.279-0.9-1.253C141.608,80.789,141.27,81.393,141.311,82.111z"/>
						</g>
						<g>
							<path style="fill:#252B3D;" d="M131.906,82.644c0.041,0.718,0.444,1.279,0.9,1.253c0.457-0.026,0.794-0.629,0.753-1.347
								c-0.041-0.718-0.444-1.279-0.9-1.254C132.203,81.323,131.866,81.926,131.906,82.644z"/>
						</g>
						<g>
							<g>
								<path style="fill:#FCB38F;" d="M151.636,80.937c0,0,2.046-2.097,3.092-0.007c1.046,2.091-1.035,7.276-4.672,5.769
									L151.636,80.937z"/>
							</g>
							<g>
								<path style="fill:#FFFFFF;" d="M152.403,86.322c-0.039,0.235-0.262,0.394-0.497,0.355c-0.235-0.039-0.394-0.262-0.355-0.497
									c0.039-0.235,0.262-0.394,0.497-0.355C152.284,85.865,152.442,86.087,152.403,86.322z"/>
							</g>
							<g>
								<g>
									<path style="fill:#FD8471;" d="M151.13,84.997c0.117,0.015,0.235-0.048,0.284-0.162c0.72-1.689,2.628-2.163,2.647-2.168
										c0.145-0.035,0.235-0.181,0.2-0.326c-0.034-0.145-0.18-0.235-0.325-0.201c-0.089,0.021-2.191,0.537-3.02,2.482
										c-0.058,0.138,0.005,0.296,0.143,0.355C151.082,84.987,151.106,84.994,151.13,84.997z"/>
								</g>
							</g>
							<g>
								<g>
									<path style="fill:#FD8471;" d="M153.078,84.352c0.05,0.006,0.102-0.001,0.15-0.024c0.135-0.064,0.193-0.225,0.129-0.36
										c-0.011-0.022-0.268-0.554-0.901-0.942c-0.127-0.078-0.294-0.038-0.372,0.089c-0.078,0.127-0.038,0.294,0.089,0.372
										c0.489,0.3,0.693,0.709,0.695,0.713C152.909,84.286,152.99,84.341,153.078,84.352z"/>
								</g>
							</g>
						</g>
					</g>
					<g>
						<path style="fill:#252B3D;" d="M154.023,80.079c-0.89-0.15-1.522-0.093-2.014,0.134c-0.343,0.158-0.618,0.394-0.866,0.699
							c-0.051,0.062-0.101,0.128-0.151,0.197c-0.111-0.045-0.217-0.107-0.317-0.183c-0.227-0.17-0.426-0.411-0.602-0.693
							c-0.468-0.746-1.024-1.299-1.196-1.994c-0.262-1.06-1.417-2.028-1.417-2.028c-9.032,2.811-16.18-4.974-16.18-4.974
							c2.794-8.6,17.984-4.503,21.903-2.422C157.1,70.894,158.463,80.823,154.023,80.079z"/>
					</g>
					<path style="fill:#252B3D;" d="M171.25,82.13c0,0-3.32,7.48-10.67,4.84c-7.35-2.64-7.2-14.85-7.2-14.85s-3.05-8.48-10.77-9.22
						c-0.42-0.05-0.85-0.07-1.3-0.06c0,0-0.02-0.28,0.02-0.75c0.17-2.19,1.5-8.38,11.29-8.59c11.88-0.25,8.06,12.85,9.72,20.05
						C164,80.75,166.88,85.27,171.25,82.13z"/>
					<g>
						<path style="fill:#FF4A67;" d="M155.718,71.395c0.347,0.016-0.131-0.002,0.216,0.01c0-2.999-1.629-6.139-4.115-7.745
							c-3.94-2.53-8.58-1.96-10.49-1.57c-0.04,0.47-0.02,0.75-0.02,0.75c0.45-0.01,0.88,0.01,1.3,0.06c2.13-0.27,5.68-0.32,8.66,1.6
							C153.471,65.92,154.964,68.618,155.718,71.395z"/>
					</g>
					<g>
						<path style="fill:#252B3D;" d="M133.319,71.842c0,0,0.773,5.977-3.338,8.082C129.982,79.924,128.211,67.799,133.319,71.842z"
							/>
					</g>
				</g>
				<g>
					<g>
						<g>
							<path style="fill:#51557C;" d="M133.7,189.965l20.666-11.798c1.081-0.617,1.075-2.177-0.01-2.786l-24.282-13.624
								c-0.474-0.266-1.051-0.273-1.531-0.019l-20.737,10.966c-1.105,0.584-1.144,2.153-0.069,2.791l24.353,14.455
								C132.585,190.245,133.2,190.25,133.7,189.965z"/>
							<path style="fill:#3A4059;" d="M133.7,187.529l20.666-11.798c1.081-0.617,1.075-2.177-0.01-2.786l-24.282-13.624
								c-0.474-0.266-1.051-0.273-1.531-0.019l-20.737,10.966c-1.105,0.584-1.144,2.153-0.069,2.791l24.353,14.455
								C132.585,187.809,133.2,187.815,133.7,187.529z"/>
							<path style="fill:#51557C;" d="M155.156,176.703v-2.286l-21.367,11.773v3.776l20.479-11.729
								C154.817,177.921,155.156,177.336,155.156,176.703z"/>
						</g>
						<path style="fill:#51557C;" d="M133.789,162.236v26.363c0,1.376-1.135,2.35-2.361,2.338h-4.55v-2.281l-33.183-19.153
							c-0.722-0.424-1.169-1.192-1.169-2.029v-24.942h-2.143v-3.76h4.493c0.011,0,0.011,0,0.023,0c0.378,0,0.768,0.092,1.135,0.309
							l36.587,21.125C133.342,160.62,133.789,161.4,133.789,162.236z"/>
						<path style="fill:#6B749B;" d="M91.559,139.085l36.584,21.122c0.724,0.418,1.17,1.19,1.17,2.026v26.362
							c0,1.801-1.95,2.927-3.509,2.026l-36.584-21.122c-0.724-0.418-1.17-1.19-1.17-2.026v-26.362
							C88.049,139.31,89.999,138.185,91.559,139.085z"/>
						<path style="fill:#9CA6C8;" d="M109.671,165.916c0.009,2.064-1.2,3.743-2.7,3.75c-1.501,0.007-2.725-1.661-2.734-3.726
							c-0.009-2.064,1.2-3.743,2.7-3.75C108.437,162.184,109.662,163.852,109.671,165.916z"/>
					</g>
				</g>
				<g>
					<g>
						<g>
							<path style="fill:#D5243A;" d="M164.864,141.133c-2.787-0.396-5.923-1.541-8.677-2.142c0.066-0.338,0.131-0.701,0.195-1.086
								c0.024-0.134,0.045-0.272,0.068-0.413c0.026-0.176,0.054-0.354,0.08-0.537c1.611-10.837,2.395-35.261,2.395-35.261
								s8.297,0.134,9.446,9.301C169.135,117.11,166.215,134.3,164.864,141.133z"/>
						</g>
					</g>
					<path style="fill:#D5243A;" d="M164.864,141.133c-2.752,8.344-21.698,28.161-21.698,28.161l-4.87-5.935
						c12.683-16.873,16.988-23.873,17.936-25.487c0.152-0.26,0.218-0.38,0.218-0.38l4,1.731L164.864,141.133z"/>
					<g>
						<g>
							<g>
								<path style="fill:#B11118;" d="M160.503,139.154c-0.016,0.026-0.035,0.049-0.054,0.07c-0.028,0.028-0.059,0.054-0.091,0.075
									c-0.152,0.096-0.354,0.103-0.518-0.002c-1.159-0.746-2.419-1.161-3.458-1.391c-0.052-0.012-0.101-0.023-0.15-0.033
									c0.152-0.26,0.218-0.38,0.218-0.38c0.026-0.176,0.054-0.354,0.08-0.537c1.138,0.244,2.529,0.699,3.828,1.534
									C160.58,138.635,160.648,138.931,160.503,139.154z"/>
							</g>
						</g>
					</g>
					<path style="fill:#FCB38F;" d="M138.295,163.359c0,0-4.209,0.479-4.506,2.062v2.698v6.298c0,0,5.916-0.486,9.377-5.122
						L138.295,163.359z"/>
				</g>
			</g>
		</g>
	</g>
	<g>
		<path style="fill:#E5E5E5;" d="M89.766,315.474l-22.808,12.78c-3.153,2.09-3.008,6.766,0.268,8.658l125.212,72.284
			c4.668,2.695,10.422,2.684,15.08-0.027l245.716-143.042c2.308-1.336,2.366-4.648,0.106-6.063l-23.602-14.613L204.488,375.513
			L89.766,315.474z"/>
		<g>
			<g>
				<path style="fill:#252B3D;" d="M196.272,391.474c-1.641,0.043-3.446-0.214-5.273-1.028c0,0-0.003-0.003-0.006-0.003l-2.31-1.344
					c-0.003-0.003-0.009-0.006-0.012-0.006l-0.954-0.554L80.912,326.466c-1.926-1.121-3.109-3.176-3.109-5.406l-0.001-11.827
					c0.034-1.204,0.65-2.39,1.842-3.078l11.205-6.468l104.702,60.466l0.403,17.549L196.272,391.474z"/>
				<path style="fill:#3A4059;" d="M437.836,237.977l0.001,11.338c0,2.917-1.551,5.61-4.077,7.069l-230.335,133l-0.52,0.297
					c-0.015,0.006-0.031,0.016-0.046,0.025c-1.074,0.567-3.554,1.684-6.585,1.768l-0.316-13.772l-0.403-17.549l229.026-131.306
					h0.003l11.459,6.57C437.065,236.001,437.663,236.958,437.836,237.977z"/>
				<polygon style="fill:#FFFFFF;" points="121.478,303.286 223.25,362.417 421.134,248.152 318.682,189.429 				"/>
				<polygon style="fill:#FFFFFF;" points="121.478,303.286 223.25,362.417 421.134,248.152 318.682,189.429 				"/>
				<g>
					<g>
						<path style="fill:#6B749B;" d="M116.984,339.861l0,3.025c0,0.24,0.128,0.464,0.337,0.585l29.079,16.786
							c0.449,0.26,1.01-0.065,1.01-0.585l0-3.025c0-0.24-0.128-0.464-0.337-0.584l-29.079-16.786
							C117.545,339.016,116.984,339.341,116.984,339.861z"/>
					</g>
					<g>
						<path style="fill:#51557C;" d="M116.984,339.861l0,1.717c0,0.24,0.128,0.464,0.337,0.585l29.079,16.786
							c0.449,0.26,1.01-0.065,1.01-0.584l0-1.717c0-0.24-0.128-0.464-0.337-0.584l-29.079-16.786
							C117.545,339.016,116.984,339.341,116.984,339.861z"/>
					</g>
				</g>
				<g>
					<path style="fill:#6B749B;" d="M156.603,364.369c0.088,1.781,0.902,3.187,1.816,3.142c0.11-0.006,0.215-0.032,0.316-0.076
						c0.746-0.326,1.258-1.661,1.18-3.229c-0.075-1.511-0.672-2.755-1.409-3.066c-0.131-0.058-0.267-0.084-0.405-0.077
						C157.186,361.108,156.515,362.588,156.603,364.369z"/>
					<path style="fill:#51557C;" d="M157.324,364.369c0.075,1.512,0.672,2.753,1.411,3.066c0.746-0.326,1.258-1.661,1.18-3.229
						c-0.075-1.511-0.672-2.755-1.409-3.066C157.758,361.466,157.246,362.8,157.324,364.369z"/>
				</g>
				<g>
					<path style="fill:#51557C;" d="M437.836,239.251c-0.172,1.016-0.766,1.967-1.785,2.556L204.488,375.513
						c-2.637,1.525-5.591,2.256-8.532,2.19c-2.729-0.053-5.447-0.792-7.89-2.21l-108.43-62.957c-1.183-0.69-1.795-1.871-1.833-3.07
						v-0.233c0.035-1.204,0.65-2.39,1.844-3.078l11.205-6.468l43.446-25.087l116.249-67.124l66.274-38.269
						c1.135-0.655,2.536-0.658,3.674-0.005l104.084,59.644h0.003l11.46,6.57c1.024,0.587,1.623,1.542,1.795,2.561
						C437.912,238.399,437.912,238.831,437.836,239.251z"/>
					<path style="fill:#3A4059;" d="M136.86,330.964c-0.277,5.444,6.182,8.219,13.808,8.219c7.626,0,14.142-2.441,13.807-8.369
						c-0.221-3.908-6.182-5.807-13.807-5.806C143.041,325.008,137.059,327.055,136.86,330.964z"/>
					<path style="fill:#6B749B;" d="M136.86,330.815c0,3.914,6.182,7.087,13.808,7.087c7.625,0,13.807-3.174,13.807-7.089
						c0-3.914-6.182-7.087-13.807-7.087C143.041,323.727,136.86,326.901,136.86,330.815z"/>
					<path style="opacity:0.3;fill:#6B749B;" d="M139.848,330.351c0,3.067,4.844,5.554,10.819,5.553
						c5.975,0,10.819-2.487,10.819-5.554c0-3.067-4.844-5.554-10.819-5.553C144.691,324.797,139.848,327.284,139.848,330.351z"/>
					<path style="fill:#FFFFFF;" d="M413.161,240.529l-5.486,3.168l-18.214,10.522l-40.828,23.582l-44.336,25.589l-17.793,10.277
						l-32.391,18.715l-28.255,16.303c-2.771,1.598-6.183,1.595-8.948-0.009l-3.626-2.102l-36.613-21.3l-17.797-10.306
						l-34.501-20.062c-2.121-1.232-2.115-4.297,0.009-5.523l34.49-19.907l17.796-10.277l36.611-21.133l40.828-23.579l32.391-18.718
						l17.793-10.274l1.319-0.762l6.743-3.883c2.762-1.592,6.161-1.595,8.926-0.01l27.349,15.675l40.83,23.408l23.689,13.572
						C415.861,235.052,415.87,238.962,413.161,240.529z"/>
					<path style="fill:#51557C;" d="M413.161,240.529l-5.486,3.168l-102.064-58.965l6.743-3.883c2.762-1.592,6.161-1.595,8.926-0.01
						l27.349,15.675l40.83,23.408l23.689,13.572C415.861,235.052,415.87,238.962,413.161,240.529z"/>
					<g>
						<g>
							<path style="fill:#6B749B;" d="M375.594,218.871c-0.346-0.054-0.677-0.161-0.955-0.32l-37.406-21.409
								c-0.838-0.48-0.888-1.255-0.111-1.731c0.777-0.476,2.087-0.474,2.924,0.006l37.406,21.408
								c0.838,0.48,0.888,1.255,0.111,1.731C377.044,218.874,376.288,218.979,375.594,218.871z"/>
						</g>
					</g>
				</g>
			</g>
		</g>
		<g>
			<polygon style="opacity:0.15;fill:#252B3D;" points="317.264,245.786 198.823,312.037 134.518,274.517 250.767,207.392 			"/>
			<g>
				<path style="fill:#D5243A;" d="M320.522,153.433l0.272,88.835c0.002,0.887-0.469,1.705-1.237,2.148l-102.811,59.358
					l-5.765,3.328l1.499,10.102l-12.652-4.507l-0.318-0.114c-0.855-0.367-1.501-1.21-1.499-2.274l0.1-97.471
					c0.002-0.386,0.092-0.758,0.258-1.093c0.211-0.43,0.547-0.797,0.977-1.045l117.441-67.963c0.656-0.379,1.378-0.42,2.009-0.209
					c0.053,0.017,0.104,0.034,0.155,0.056l13.226,4.745L320.522,153.433z"/>
				<path style="fill:#B11118;" d="M210.981,307.102l1.499,10.102l-12.652-4.507l-0.318-0.114c-0.855-0.367-1.501-1.21-1.499-2.274
					l0.1-97.471c0.002-0.386,0.092-0.758,0.258-1.093l16.795,5.738l1.584,86.291L210.981,307.102z"/>
				<path style="fill:#FF4A67;" d="M333.758,246.884c0.003,0.887-0.469,1.708-1.234,2.15l-117.842,68.034
					c-1.65,0.952-3.71-0.238-3.707-2.143l0.007-6.958l0.005-5.588l0.087-84.549v-0.377c0.003-0.882,0.471-1.696,1.234-2.135
					l0.173-0.1l117.269-67.864c0.797-0.462,1.693-0.42,2.403-0.039c0.755,0.403,1.305,1.19,1.307,2.17l0.005,1.271l0.231,75.568
					l0.01,3.066L333.758,246.884z"/>
				<g>
					<path style="fill:#D5243A;" d="M257.748,231.637l-46.767,76.33l0.005-5.588l44.276-72.266c0.42-0.688,1.317-0.904,2.004-0.481
						C257.952,230.053,258.168,230.949,257.748,231.637z"/>
				</g>
				<g>
					<path style="fill:#D5243A;" d="M333.704,229.39l-41.193-13.308c-0.765-0.248-1.186-1.069-0.938-1.834
						c0.245-0.768,1.069-1.188,1.834-0.94l40.287,13.017L333.704,229.39z"/>
				</g>
				<polygon style="opacity:0.5;fill:#B11118;" points="211.074,217.83 280.801,244.855 333.464,150.756 278.204,237.622 				"/>
				<g>
					<path style="fill:#D5243A;" d="M333.464,150.756l-54.448,88.871l-67.942-21.797v-0.377c0.003-0.882,0.471-1.696,1.234-2.135
						l0.173-0.1l65.247,20.934l54.424-88.837c0.755,0.403,1.305,1.19,1.307,2.17L333.464,150.756z"/>
				</g>
			</g>
		</g>
	</g>
	<g>
		<ellipse style="fill:#E5E5E5;" cx="75.771" cy="416.457" rx="28.832" ry="9.318"/>
		<g>
			<g>
				<path style="fill:#51557C;" d="M96.518,374.062v36.611c0,6.108-9.294,11.056-20.747,11.056
					c-11.453,0-20.739-4.948-20.739-11.056v-36.611H96.518z"/>
				<ellipse style="fill:#3A4059;" cx="75.772" cy="374.059" rx="20.744" ry="11.063"/>
				<path style="fill:#252B3D;" d="M93.917,374.062c0,0.379-0.13,0.792-0.399,1.24c-1.604,2.721-8.063,6.372-17.748,6.372
					s-16.143-3.651-17.747-6.372c-0.269-0.448-0.399-0.861-0.399-1.24c0-2.686,6.893-7.623,18.146-7.623
					C87.024,366.439,93.917,371.376,93.917,374.062z"/>
			</g>
			<g>
				<g>
					<path style="fill:#B11118;" d="M75.37,375.058c-0.024,0-0.048-0.001-0.073-0.003c-0.551-0.04-0.967-0.519-0.927-1.07
						c0.026-0.367,2.519-36.933-6.557-58.701c-0.213-0.51,0.029-1.096,0.539-1.309c0.511-0.213,1.097,0.029,1.309,0.539
						c9.26,22.208,6.733,59.243,6.706,59.614C76.33,374.655,75.89,375.058,75.37,375.058z"/>
				</g>
				<g>
					<path style="fill:#B11118;" d="M75.368,353.52c-0.468,0-0.887-0.331-0.981-0.807c-2.619-13.242-15.376-17.035-15.504-17.072
						c-0.532-0.152-0.839-0.706-0.687-1.238c0.152-0.532,0.707-0.839,1.238-0.687c0.573,0.164,14.064,4.179,16.918,18.609
						c0.107,0.542-0.246,1.069-0.788,1.176C75.498,353.514,75.432,353.52,75.368,353.52z"/>
				</g>
				<g>
					<path style="fill:#B11118;" d="M74.151,337.683c-0.533,0-0.976-0.42-1-0.957c-0.599-13.545,6.054-23.555,6.337-23.975
						c0.309-0.458,0.932-0.578,1.39-0.269c0.458,0.31,0.579,0.932,0.269,1.39c-0.084,0.126-6.564,9.924-5.996,22.765
						c0.024,0.552-0.404,1.02-0.956,1.044C74.181,337.683,74.166,337.683,74.151,337.683z"/>
				</g>
				<g>
					<path style="fill:#B11118;" d="M75.009,345.479c-0.061,0-0.122-0.006-0.184-0.017c-0.544-0.101-0.902-0.624-0.801-1.168
						c0.912-4.907,4.254-8.572,9.664-10.598c3.986-1.492,7.662-1.57,7.816-1.573c0.006,0,0.011,0,0.017,0
						c0.545,0,0.992,0.437,1.001,0.984c0.009,0.553-0.431,1.008-0.984,1.018l0,0c-0.136,0.003-13.656,0.368-15.546,10.535
						C75.903,345.143,75.482,345.479,75.009,345.479z"/>
				</g>
				<g>
					<g>
						<path style="fill:#FF4A67;" d="M52.491,351.061c-11.998,1.937-15.093-3.353-15.093-3.353s5.804-17.545,14.061-19.221
							c6.508-1.325,7.567,3.284,7.724,5.295c0.04,0.543,0.017,0.895,0.017,0.895s0.77-0.132,1.782-0.043
							c1.439,0.129,3.37,0.707,4.28,2.752C66.72,340.665,64.775,349.081,52.491,351.061z"/>
					</g>
					<g>
						<g>
							<path style="fill:#D5243A;" d="M60.981,334.634c-6.686,2.037-15.093,11.721-15.185,11.826
								c-0.143,0.163-0.343,0.249-0.543,0.249c-0.166,0-0.332-0.057-0.466-0.174c-0.298-0.257-0.332-0.709-0.074-1.007
								c0.363-0.421,7.701-8.874,14.47-11.746c0.04,0.543,0.017,0.895,0.017,0.895S59.969,334.546,60.981,334.634z"/>
						</g>
					</g>
				</g>
				<g>
					<g>
						<path style="fill:#FF4A67;" d="M69.289,314.964c-0.18-0.011-0.366-0.034-0.552-0.066c-0.226,0.26-0.463,0.504-0.712,0.729
							c-3.161,2.895-8.053,3.167-11.412,0.363c-1.476-1.233-3.236-3.855-4.207-6.339c-4.081-10.435-0.57-19.8,6.47-24.569
							c0,0,8.508-2.174,14.924,8.794C80.057,304.565,76.255,315.53,69.289,314.964z"/>
					</g>
					<g>
						<g>
							<path style="fill:#D5243A;" d="M69.289,314.964c-0.18-0.011-0.366-0.034-0.552-0.066c-0.226,0.26-0.463,0.504-0.712,0.729
								c-3.567-6.66-7.738-25.349-7.924-26.196c-0.086-0.386,0.157-0.767,0.541-0.852c0.386-0.086,0.769,0.157,0.855,0.543
								C61.542,289.329,65.836,308.579,69.289,314.964z"/>
						</g>
					</g>
				</g>
				<g>
					<g>
						<path style="fill:#FF4A67;" d="M105.475,305.767c0,0-11.517,18.412-19.877,17.371c-6.977-0.87-5.988-7.126-5.47-9.174
							c0.103-0.409,0.189-0.649,0.189-0.649s-0.526-0.083-1.236-0.34c-1.03-0.378-2.452-1.133-3.184-2.555
							c-0.24-0.461-0.406-0.993-0.464-1.605c-0.097-1.05,0.432-2.543,1.536-4.048c2.655-3.619,8.622-7.309,17.127-5.101
							C100.786,301.401,105.475,305.767,105.475,305.767z"/>
					</g>
					<g>
						<g>
							<path style="fill:#D5243A;" d="M98.7,305.461c0.034,0.392-0.255,0.741-0.646,0.778c-9.372,0.87-15.651,5.687-17.925,7.724
								c0.103-0.409,0.189-0.649,0.189-0.649s-0.526-0.083-1.236-0.34c2.343-2.143,8.865-7.232,18.841-8.159
								C98.311,304.78,98.663,305.066,98.7,305.461z"/>
						</g>
					</g>
				</g>
				<g>
					<g>
						<path style="fill:#FF4A67;" d="M106.845,354.079c0,0-21.304-4.223-23.301-12.407c-1.522-6.239,3.522-7.861,6.008-8.279
							c0.775-0.132,1.302-0.146,1.302-0.146s-0.066-0.318-0.1-0.812c-0.097-1.37,0.06-4.117,2.572-5.353
							c3.218-1.582,13.823,1.825,15.182,14.195C109.262,348.146,106.845,354.079,106.845,354.079z"/>
					</g>
					<g>
						<g>
							<path style="fill:#D5243A;" d="M103.215,347.994c-0.089,0.034-0.18,0.051-0.269,0.051c-0.283,0-0.552-0.169-0.664-0.446
								c-3.545-8.783-11.721-13.637-12.73-14.206c0.775-0.132,1.302-0.146,1.302-0.146s-0.066-0.318-0.1-0.812
								c2.191,1.316,9.443,6.173,12.856,14.627C103.755,347.428,103.581,347.845,103.215,347.994z"/>
						</g>
					</g>
				</g>
			</g>
		</g>
	</g>
	<g>
		<ellipse style="fill:#E5E5E5;" cx="411.852" cy="429.03" rx="36.027" ry="11.56"/>
		<g>
			<g>
				<g>
					<g>
						<path style="fill:#FF4A67;" d="M447.594,432.576c0,0-1.95,2.019-4.479,1.454l-1.07-0.278l-0.883-0.278
							c0,0-10.501-2.321-14.295-3.553c-4.049-1.315-6.28-4.651-2.318-7.185c3.961-2.534,11.154-1.783,13.233-3.289
							c0,0,7.07-1.158,7.614,2.638C446.49,426.006,447.203,427.759,447.594,432.576z"/>
						<g>
							<g>
								<path style="fill:#FFFFFF;" d="M430.29,424.08c0.129-0.102,0.193-0.275,0.147-0.444c-0.004-0.013-0.359-1.395,0.262-2.339
									c0.594-0.906,2.014-0.886,2.029-0.885c0.234,0.005,0.428-0.181,0.434-0.414c0.006-0.234-0.178-0.428-0.412-0.434
									c-0.077-0.002-1.904-0.036-2.76,1.268c-0.832,1.266-0.391,2.954-0.372,3.025c0.061,0.226,0.294,0.361,0.52,0.3
									C430.195,424.141,430.247,424.115,430.29,424.08z"/>
							</g>
							<g>
								<path style="fill:#FFFFFF;" d="M431.719,424.039c0.129-0.102,0.193-0.275,0.147-0.444c-0.004-0.013-0.359-1.395,0.262-2.339
									c0.594-0.906,2.014-0.886,2.029-0.885c0.234,0.005,0.428-0.18,0.434-0.414c0.006-0.234-0.178-0.428-0.412-0.435
									c-0.077-0.002-1.903-0.036-2.76,1.268c-0.832,1.266-0.391,2.954-0.372,3.026c0.061,0.226,0.294,0.36,0.52,0.3
									C431.624,424.1,431.675,424.073,431.719,424.039z"/>
							</g>
							<g>
								<path style="fill:#FFFFFF;" d="M433.299,423.935c0.129-0.102,0.193-0.275,0.147-0.444c-0.004-0.013-0.359-1.395,0.262-2.339
									c0.594-0.906,2.014-0.886,2.029-0.886c0.234,0.005,0.428-0.18,0.434-0.414c0.006-0.234-0.178-0.428-0.412-0.435
									c-0.077-0.002-1.903-0.036-2.76,1.268c-0.832,1.266-0.391,2.954-0.372,3.025c0.061,0.227,0.294,0.361,0.52,0.3
									C433.204,423.995,433.256,423.969,433.299,423.935z"/>
							</g>
						</g>
					</g>
					<path style="fill:#FCB38F;" d="M441.731,410.588l2.357,11.042c0,0-1.772,1.59-5.957,1.065l-4.087-9.838
						C434.044,412.858,438.711,409.996,441.731,410.588z"/>
				</g>
				<path style="fill:#51557C;" d="M432.173,308.24l-18.15,4.77c0,0,3.711,42.115,5.416,51.851
					c1.706,9.736,14.788,50.796,14.788,50.796c5.325,1.405,9.199-1.954,9.199-1.954s-5.267-25.989-5.568-31.359
					c-0.301-5.37-2.588-15.599-3.84-17.663c0,0-0.185-29.98,0.247-37.14C434.698,320.381,432.173,308.24,432.173,308.24z"/>
				<g>
					<path style="fill:#252B3D;" d="M435.912,415.074c-0.222,0-0.426-0.148-0.487-0.372c-0.119-0.434-11.93-43.482-14.035-48.416
						c-2.154-5.048-3.584-35.55-3.644-36.846c-0.013-0.279,0.203-0.516,0.482-0.528c0.274-0.015,0.516,0.203,0.529,0.482
						c0.014,0.315,1.481,31.613,3.564,36.495c2.132,4.997,13.594,46.769,14.081,48.545c0.074,0.269-0.085,0.548-0.354,0.622
						C436.001,415.068,435.956,415.074,435.912,415.074z"/>
				</g>
				<path style="fill:#6B749B;" d="M443.133,410.701c0,0-5.802,2.353-10.669,2.503c0.153,1.835,0.872,3.6,1.574,4.467
					c0,0,5.8-0.198,9.847-2.491C444.015,413.739,443.955,412.104,443.133,410.701z"/>
			</g>
			<path style="fill:#D5243A;" d="M424.805,230.424c0,0,18.803,19.151,18.015,40.402c-0.358,9.654-9.879,33.371-9.879,33.371
				l-4.281-7.931c0,0,2.655-15.046,5.215-25.44l-6.1-19.95C427.774,250.875,421.583,233.363,424.805,230.424z"/>
			<g>
				<g>
					<g>
						<path style="fill:#FF4A67;" d="M400.02,433.289c0,0-2.307,1.473-4.577,0.363l-0.952-0.506l-0.774-0.464
							c0,0-9.432-4.583-12.75-6.612c-3.541-2.165-4.9-5.835-0.569-7.339c4.331-1.505,10.981,0.839,13.295-0.117
							c0,0,6.967,0.506,6.622,4.228C400.464,426.808,400.742,428.632,400.02,433.289z"/>
						<g>
							<g>
								<path style="fill:#FFFFFF;" d="M385.538,421.307c0.146-0.067,0.245-0.217,0.24-0.387c0-0.013-0.024-1.404,0.779-2.159
									c0.769-0.724,2.111-0.383,2.125-0.38c0.221,0.058,0.447-0.074,0.505-0.294c0.058-0.22-0.072-0.447-0.292-0.506
									c-0.073-0.02-1.797-0.466-2.905,0.577c-1.076,1.012-1.041,2.713-1.039,2.785c0.006,0.229,0.197,0.408,0.425,0.402
									C385.434,421.343,385.489,421.33,385.538,421.307z"/>
							</g>
							<g>
								<path style="fill:#FFFFFF;" d="M386.902,421.592c0.146-0.067,0.245-0.217,0.24-0.387c0-0.013-0.024-1.404,0.779-2.159
									c0.769-0.724,2.111-0.383,2.125-0.38c0.221,0.058,0.447-0.074,0.505-0.294c0.058-0.22-0.072-0.447-0.292-0.505
									c-0.073-0.02-1.796-0.466-2.905,0.576c-1.076,1.012-1.041,2.713-1.039,2.785c0.006,0.229,0.197,0.409,0.425,0.402
									C386.798,421.628,386.853,421.615,386.902,421.592z"/>
							</g>
							<g>
								<path style="fill:#FFFFFF;" d="M388.425,421.851c0.146-0.067,0.245-0.217,0.24-0.387c0-0.013-0.024-1.404,0.779-2.159
									c0.769-0.724,2.111-0.383,2.125-0.38c0.221,0.058,0.447-0.074,0.506-0.294c0.058-0.22-0.072-0.447-0.292-0.505
									c-0.073-0.02-1.797-0.466-2.905,0.577c-1.076,1.012-1.041,2.713-1.039,2.784c0.006,0.229,0.197,0.409,0.425,0.402
									C388.321,421.888,388.375,421.874,388.425,421.851z"/>
							</g>
						</g>
					</g>
					<path style="fill:#FCB38F;" d="M399.447,411.107l-0.269,11.006c0,0-2.041,1.106-5.89-0.341l-1.645-10.256
						C391.643,411.516,396.718,409.861,399.447,411.107z"/>
				</g>
				<path style="fill:#51557C;" d="M413.598,311.884l-18.293,0.406c0,0-6.034,40.779-6.625,50.398
					c-0.591,9.619,2.502,51.523,2.502,51.523c4.731,2.54,9.166,0.234,9.166,0.234s0.9-25.84,1.833-31
					c0.933-5.16,1.084-15.38,0.365-17.62c0,0,12.159-32.44,14.193-39.132C418.774,320.002,413.598,311.884,413.598,311.884z"/>
				<g>
					<path style="fill:#252B3D;" d="M393.027,414.068c-0.272,0-0.496-0.216-0.505-0.489c-0.014-0.439-1.45-43.939-2.328-49.094
						c-0.898-5.278,4.665-34.529,4.902-35.771c0.053-0.274,0.316-0.453,0.592-0.402c0.274,0.052,0.454,0.317,0.402,0.592
						c-0.058,0.302-5.766,30.313-4.898,35.412c0.889,5.223,2.283,47.436,2.341,49.23c0.009,0.279-0.21,0.513-0.489,0.522
						C393.038,414.068,393.032,414.068,393.027,414.068z"/>
				</g>
				<path style="fill:#6B749B;" d="M400.751,411.533c0,0-6.036,0.915-10.685-0.047c-0.271,1.775,0.011,3.612,0.48,4.593
					c0,0,5.545,1.127,9.903-0.129C400.899,414.614,401.213,413.05,400.751,411.533z"/>
			</g>
			<path style="fill:#FF4A67;" d="M433.453,317.635c-10.793,11.218-43.511,0.932-43.511,0.932s2.837-20.596,3.263-37.473
				c0.148-5.903-0.971-13.525-1.958-20.612c-0.059-0.418-0.116-0.832-0.174-1.245c-1.229-8.901-2.116-16.733,0.19-18.899
				c3.242-3.048,15.149-6.512,25.019-9.406c0,0,6.795-3.195,9.176,0.182c2.381,3.377,5.208,28.142,5.357,35.403
				S435.199,310.152,433.453,317.635z"/>
			<g>
				<path style="fill:#D5243A;" d="M409.257,304.196c0.023,0,0.046-0.001,0.069-0.005c12.099-1.838,19.796-13.795,19.872-13.915
					c0.135-0.213,0.072-0.496-0.142-0.631c-0.213-0.135-0.495-0.071-0.63,0.142c-0.074,0.117-7.556,11.726-19.237,13.501
					c-0.25,0.038-0.421,0.271-0.383,0.52C408.84,304.034,409.035,304.196,409.257,304.196z"/>
			</g>
			<g>
				<path style="fill:#D5243A;" d="M391.073,259.237c0.057,0.414,0.114,0.827,0.174,1.245c2.696-3.221,4.435-7.014,4.528-7.219
					c0.105-0.231,0.005-0.5-0.226-0.605c-0.231-0.105-0.5-0.002-0.605,0.226C394.922,252.929,393.41,256.228,391.073,259.237z"/>
			</g>
			<g>
				<g>
					<g>
						<path style="fill:#D5243A;" d="M414.284,283.482c0.115,0,0.231-0.043,0.32-0.13c7.487-7.334,10.089-24.35,10.196-25.07
							c0.037-0.25-0.135-0.482-0.385-0.519c-0.25-0.037-0.482,0.135-0.519,0.385c-0.026,0.174-2.665,17.434-9.932,24.552
							c-0.18,0.176-0.183,0.466-0.007,0.646C414.047,283.436,414.166,283.482,414.284,283.482z"/>
					</g>
				</g>
			</g>
			<g>
				<path style="fill:#FCB38F;" d="M391.542,217.477c0,0-0.303,3.219-0.301,4.227c0.001,1.008,1.729,1.397,1.729,1.397
					S392.281,218.417,391.542,217.477z"/>
				<path style="fill:#FCB38F;" d="M413.065,232.412c-0.127,0.824-1.817,1.79-4.324,2.712c-1.237,0.455-3.656,0.837-6.011,0.455
					l-0.268-1.799l-0.071-0.447l-0.123-0.792l-0.453-2.922l-0.04-0.259l-0.031-0.205c0,0,6.974-4.929,9.828-3.844
					c0.112,0.038,0.214,0.087,0.31,0.145C412.081,227.656,412.672,230.537,413.065,232.412z"/>
				<path style="fill:#FD8471;" d="M406.453,228.785c0,0-1.792,2.172-4.185,3.757l-0.453-2.922l-0.04-0.259L406.453,228.785z"/>
				<path style="fill:#FCB38F;" d="M391.29,213.975c0.05,1.383,0.142,2.76,0.294,3.997c0.08,0.687,0.183,1.331,0.306,1.908
					c0.123,0.577,0.297,1.221,0.518,1.897c0,0,0.002,0.005,0.004,0.011c0.021,0.119,0.21,1.084,0.534,2.331
					c0.007,0.03,0.016,0.059,0.023,0.089c0.281,1.075,0.655,2.342,1.107,3.438c0.03,0.073,0.059,0.144,0.089,0.215
					c0.431,1.007,0.924,1.842,1.463,2.216c2.762,1.924,12.098-1.185,12.098-1.185l0.918-0.372c1.075-0.279,1.223-0.751,1.753-1.276
					c0.653-0.589,1.23-1.185,1.739-1.799c0.922-1.107,1.641-2.273,2.239-3.554c0.23-0.493,0.32-1.043,0.461-1.568
					c0.025-0.091,0.05-0.187,0.071-0.279c0.014-0.053,0.03-0.103,0.043-0.155c0.388-1.536,0.664-3.079,0.87-4.547
					c0.253-1.833,0.388-3.536,0.452-4.935c0.125-2.572-1.123-5.015-3.273-6.432c-5.825-3.837-12.301-2.99-16.615-1.653
					c-2.997,0.924-5.058,3.668-5.117,6.8C391.237,210.606,391.237,212.3,391.29,213.975z"/>
				<path style="fill:#252B3D;" d="M392.7,223.101c0,0-0.351,0.59,0.247,1.018l3.072-0.562c0,0,0.207,3.447-1.943,4.088
					c0,0-0.708,3.877,1.013,5.077s5.404-1.06,5.376-3.627c-0.028-2.567,0.667-10.299,0.379-11.763l-1.894,0.399
					c0,0-0.02,3.551-1.108,4.082C396.754,222.343,394.756,221.432,392.7,223.101z"/>
				<path style="fill:#252B3D;" d="M392.171,216.706c0.073,0.704,0.37,1.251,0.662,1.22c0.292-0.03,0.47-0.626,0.397-1.33
					c-0.073-0.704-0.37-1.251-0.662-1.22C392.275,215.406,392.097,216.002,392.171,216.706z"/>
				<g>
					<path style="fill:#252B3D;" d="M391.219,212.12c1.127-0.158,2.486-0.173,3.708,0.294c0.115,0.044,0.18,0.166,0.158,0.287
						l-0.145,0.812c-0.025,0.139-0.155,0.233-0.295,0.21c-0.526-0.088-1.828-0.254-3.365-0.068c-0.153,0.019-0.29-0.096-0.293-0.25
						c-0.006-0.347-0.005-0.694,0.012-1.04C391.004,212.241,391.097,212.137,391.219,212.12z"/>
				</g>
				<path style="fill:#252B3D;" d="M416.281,218.325c0.975-4.599,0-10.696,0-10.696c-0.587-3.138-2.877-5.783-2.877-5.783
					c-1.095-1.111-3.1-1.932-5.207-2.529c-1.342-0.245-2.445-0.196-3.649,0c-1.751,0.285-3.653,0.445-5.357,0.946
					c-3.402,1-8.056,1.912-7.515,6.399c1.375,1.819,1.233,4.095,3.434,4.102c2.83,0.008,2.709,2.442,2.826,4.913
					c0.117,2.471,2.985,3.279,2.908,1.656c0,0-0.236-3.346,1.602-4.227c1.363-0.654,3.999-0.778,4.389,3.369
					c0.37,3.93-2.626,4.448-2.626,4.448s0.572,0.24,3.195,0.24c1.609,0,1.644,5.306,4.237,5.291
					C414.234,226.439,415.657,221.754,416.281,218.325z"/>
				<g>
					<path style="fill:#FD8471;" d="M402.943,219.201c0.108-0.057,0.17-0.181,0.144-0.306c-0.395-1.86,0.941-3.397,0.954-3.412
						c0.102-0.116,0.092-0.293-0.024-0.395c-0.116-0.102-0.292-0.092-0.395,0.023c-0.063,0.071-1.537,1.759-1.083,3.9
						c0.032,0.151,0.181,0.248,0.332,0.216C402.897,219.221,402.921,219.212,402.943,219.201z"/>
				</g>
				<g>
					<path style="fill:#FD8471;" d="M404.211,217.496c0.046-0.024,0.086-0.061,0.113-0.11c0.076-0.135,0.029-0.305-0.105-0.382
						c-0.022-0.013-0.557-0.31-1.324-0.263c-0.154,0.009-0.272,0.142-0.262,0.297c0.009,0.154,0.142,0.272,0.297,0.262
						c0.593-0.037,1.009,0.189,1.013,0.191C404.028,217.54,404.129,217.538,404.211,217.496z"/>
				</g>
				<path style="fill:#FFFFFF;" d="M392.947,224.119c0.007,0.03,0.016,0.059,0.023,0.089c0.281,1.075,0.655,2.342,1.107,3.438
					c1.605-0.929,1.917-2.666,1.943-3.956v-0.132l-0.208,0.039L392.947,224.119z"/>
				<g>
					<path style="fill:#FF4A67;" d="M392.947,202.01c0,0,2.206-5.405,9.505-6.481c9.273-1.367,14.162,4.125,15.599,7.54
						c1.438,3.415,0,9.088,0,9.088S400.497,209.147,392.947,202.01z"/>
					<path style="fill:#D5243A;" d="M391.24,204.747c0,0,7.292,6.862,26.51,11.904c0,0,1.592-2.564,0.915-4.776
						c0,0-12.492-3.255-25.579-11.286C393.087,200.59,391.706,201.576,391.24,204.747z"/>
				</g>
			</g>
			<g>
				<path style="fill:#FF4A67;" d="M391.263,240.339c0,0-18.936,20.863-24.16,21.134l2.992,8.924c0,0,16.255-4.234,21.676-12.118
					C397.041,250.616,391.263,240.339,391.263,240.339z"/>
				<path style="fill:#FF4A67;" d="M353.911,245.435c0,0,4.512,20.158,9.28,23.69c4.768,3.532,8.353,0.466,8.353,0.466
					s0.813-4.512-2.123-8.7c-0.174-0.247-0.359-0.493-0.562-0.738c-0.313-0.384-0.665-0.763-1.053-1.133
					c-4.821-4.583-7.343-13.685-7.343-13.685C358.537,245.766,355.987,246.089,353.911,245.435z"/>
				<g>
					<g>
						<polygon style="fill:#252B3D;" points="360.553,220.172 359.774,220.856 359.68,220.939 359.292,219.848 359.294,219.848 
							359.295,219.848 						"/>
						<path style="fill:#252B3D;" d="M359.609,220.191l4.406,17.676c0.042,0.169-0.009,0.348-0.135,0.468l-6.89,6.613
							c-0.269,0.259-0.718,0.129-0.808-0.233l-4.352-17.461c-0.046-0.186-0.016-0.38,0.081-0.54c0.031-0.052,0.069-0.1,0.114-0.144
							l6.775-6.609c0.141-0.138,0.334-0.168,0.497-0.112c0,0,0.001,0,0.001,0C359.442,219.899,359.566,220.018,359.609,220.191z"/>
						<polygon style="fill:#252B3D;" points="356.65,245.083 357.988,245.118 357.7,243.965 						"/>
						<path style="fill:#3A4059;" d="M360.553,220.172l-0.779,0.684l0.129,0.516l-6.074,5.868l-1.92-0.527
							c0.031-0.052,0.069-0.1,0.114-0.144l6.775-6.609c0.141-0.138,0.334-0.168,0.497-0.112c0,0,0.001,0,0.001,0L360.553,220.172z"
							/>
					</g>
					<path style="fill:#51557C;" d="M361.014,220.638l4.319,17.326c0.056,0.223-0.012,0.459-0.178,0.618l-6.632,6.365
						c-0.356,0.341-0.948,0.171-1.067-0.308l-4.297-17.241c-0.055-0.221,0.011-0.455,0.175-0.614l6.611-6.449
						C360.298,219.988,360.895,220.157,361.014,220.638z"/>
					<g>
						<path style="fill:#FFFFFF;" d="M360.343,222.047l3.93,15.767c0.029,0.118-0.007,0.244-0.095,0.328l-5.481,5.26
							c-0.069,0.066-0.155,0.096-0.239,0.095c-0.146-0.002-0.287-0.097-0.327-0.258l-3.913-15.697
							c-0.029-0.117,0.006-0.242,0.093-0.326l2.891-2.82l2.573-2.51c0.017-0.016,0.035-0.031,0.054-0.043
							C360.017,221.72,360.285,221.815,360.343,222.047z"/>
					</g>
					<path style="fill:#51557C;" d="M355.566,225.976l0.212,0.849c0.031,0.124,0.184,0.167,0.275,0.078l2.869-2.796
						c0.042-0.041,0.059-0.101,0.045-0.158l-0.257-1.031L355.566,225.976z"/>
				</g>
				<path style="fill:#FCB38F;" d="M360.463,245.335c0,0,1.542-2.809,1.385-4.753c-0.157-1.944,0.125-5.588-1.129-5.793
					c-1.254-0.204-0.486,2.877-1.678,4.096c-1.192,1.219-4.915-1.863-5.205-3.575c-0.24-1.417-0.919-3.686-0.919-3.686
					s-3.362,1.84-3.279,5.952c0.083,4.112,4.683,8.473,4.683,8.473S358.807,246.822,360.463,245.335z"/>
				<g>
					<path style="fill:#D5243A;" d="M367.109,262.952c0.085,0.064,0.18,0.094,0.279,0.094c0.137,0,0.272-0.062,0.363-0.178
						c0.546-0.715,1.12-1.38,1.67-1.976c-0.174-0.247-0.359-0.493-0.562-0.738c-0.603,0.644-1.234,1.371-1.835,2.159
						C366.872,262.513,366.91,262.799,367.109,262.952z"/>
				</g>
			</g>
		</g>
	</g>
	<g>
		
			<ellipse transform="matrix(0.9359 -0.3521 0.3521 0.9359 -127.9881 133.5189)" style="fill:#E5E5E5;" cx="303.032" cy="418.582" rx="44.429" ry="20.158"/>
		<g>
			<polygon style="fill:#6B749B;" points="337.261,370.165 297.832,392.929 271.546,377.753 310.735,354.85 			"/>
			<g>
				<defs>
					<polygon id="SVGID_1_" points="278.379,377.735 297.832,388.966 330.396,370.165 329.686,342.583 312.333,336.443 
						277.475,354.764 					"/>
				</defs>
				<clipPath id="SVGID_00000155825837308304769720000010389986998841691318_">
					<use xlink:href="#SVGID_1_"  style="overflow:visible;"/>
				</clipPath>
				<polygon style="clip-path:url(#SVGID_00000155825837308304769720000010389986998841691318_);fill:#252B3D;" points="
					330.396,370.165 310.745,358.819 278.379,377.735 297.832,388.966 				"/>
				<g style="clip-path:url(#SVGID_00000155825837308304769720000010389986998841691318_);">
					<path style="fill:#D5243A;" d="M321.856,346.069l0.08,26.035c0.001,0.26-0.137,0.5-0.362,0.629l-30.131,17.396l-1.69,0.975
						l0.439,2.96l-3.708-1.321l-0.093-0.033c-0.251-0.108-0.44-0.355-0.439-0.666l0.029-28.566c0.001-0.113,0.027-0.222,0.076-0.32
						c0.062-0.126,0.16-0.234,0.286-0.306l34.419-19.918c0.192-0.111,0.404-0.123,0.589-0.061c0.016,0.005,0.031,0.01,0.046,0.016
						l3.876,1.391L321.856,346.069z"/>
					<path style="fill:#B11118;" d="M289.753,391.105l0.439,2.96l-3.708-1.321l-0.093-0.033c-0.251-0.108-0.44-0.355-0.439-0.666
						l0.029-28.566c0.001-0.113,0.027-0.222,0.076-0.32l4.922,1.682l0.464,25.289L289.753,391.105z"/>
					<path style="fill:#FF4A67;" d="M325.735,373.457c0.001,0.26-0.137,0.501-0.362,0.63l-34.536,19.939
						c-0.483,0.279-1.087-0.07-1.086-0.628l0.002-2.039l0.001-1.638l0.026-24.779v-0.11c0.001-0.258,0.138-0.497,0.362-0.626
						l0.05-0.029l34.368-19.889c0.234-0.135,0.496-0.123,0.704-0.011c0.221,0.118,0.382,0.349,0.383,0.636l0.001,0.372l0.068,22.147
						l0.003,0.899L325.735,373.457z"/>
					<g>
						<path style="fill:#D5243A;" d="M303.459,368.989l-13.706,22.37l0.001-1.638l12.976-21.179
							c0.123-0.202,0.386-0.265,0.587-0.141C303.519,368.524,303.582,368.787,303.459,368.989z"/>
					</g>
					<g>
						<path style="fill:#D5243A;" d="M325.72,368.33l-12.073-3.9c-0.224-0.073-0.347-0.313-0.275-0.537
							c0.072-0.225,0.313-0.348,0.538-0.276l11.807,3.815L325.72,368.33z"/>
					</g>
					<polygon style="opacity:0.5;fill:#B11118;" points="289.78,364.942 310.215,372.862 325.649,345.285 309.454,370.743 					"/>
					<g>
						<path style="fill:#D5243A;" d="M325.649,345.285l-15.957,26.046l-19.912-6.388v-0.11c0.001-0.258,0.138-0.497,0.362-0.626
							l0.05-0.029l19.122,6.135l15.95-26.036c0.221,0.118,0.382,0.349,0.383,0.636L325.649,345.285z"/>
					</g>
				</g>
			</g>
			<polygon style="fill:#51557C;" points="337.261,370.165 337.261,415.694 297.832,438.458 297.832,392.929 			"/>
			<polygon style="fill:#3A4059;" points="297.832,438.458 271.546,422.969 271.546,377.753 297.832,392.929 			"/>
			<path style="fill:#6B749B;" d="M327.014,393.988l-4.635-2.857l0,0l-3.688-2.274l-0.439,0.763l-2.214,3.863l-1.151,2.011
				l-4.784,8.344c-1.049,1.834-1.075,3.825-0.058,4.456c1.02,0.625,2.697-0.352,3.746-2.182l2.095-3.655l-0.2,15.342
				c-0.023,1.74,1.145,2.459,2.608,1.607c1.463-0.852,2.667-2.953,2.69-4.693l0.2-15.338l2.028,1.25
				c0.51,0.311,1.183,0.225,1.862-0.171c0.677-0.394,1.358-1.097,1.884-2.011C328.005,396.61,328.031,394.619,327.014,393.988z"/>
		</g>
	</g>
	<g>
		<g>
			<g>
				<g>
					<polygon style="fill:#FF4A67;" points="319.352,133.462 315.633,141.6 315.633,135.609 					"/>
					<polygon style="fill:#B11118;" points="315.636,141.6 313.792,140.535 313.792,136.672 315.633,135.609 					"/>
				</g>
				<polygon style="fill:#B11118;" points="298.354,113.172 298.354,140.227 303.032,142.928 302.626,115.657 				"/>
				<polygon style="fill:#FF4A67;" points="326.852,101.67 326.852,129.175 303.032,142.928 302.626,115.657 				"/>
				<g>
					<path style="fill:#FFFFFF;" d="M320.296,122.332l0.081,3.734l-9.197,5.133l-0.064-2.959l4.045-7.09
						c0.767-1.357,0.87-1.973,0.859-2.462c-0.015-0.694-0.401-0.912-1.139-0.5c-0.689,0.384-1.334,1.22-1.66,2.269l-2.957-0.187
						c0.794-2.426,2.421-4.697,4.896-6.078c2.721-1.519,4.677-0.835,4.736,1.879c0.03,1.408-0.237,2.838-1.869,5.649l-1.599,2.772
						L320.296,122.332z"/>
				</g>
				<polygon style="fill:#D5243A;" points="298.354,113.172 322.58,99.185 326.852,101.67 302.626,115.657 				"/>
			</g>
		</g>
		<g>
			<g>
				<g>
					<polygon style="fill:#FF4A67;" points="360.712,205 358.101,210.714 358.101,206.508 					"/>
					<polygon style="fill:#B11118;" points="358.103,210.714 356.809,209.966 356.809,207.254 358.101,206.508 					"/>
				</g>
				<polygon style="fill:#B11118;" points="351.829,187.371 351.829,206.366 355.113,208.262 354.828,189.116 				"/>
				<polygon style="fill:#FF4A67;" points="378.876,175.232 378.876,194.543 355.113,208.262 354.828,189.116 				"/>
				<g>
					<path style="fill:#FFFFFF;" d="M363.379,191.209c0.887,0.016,1.444,1.173,1.244,2.584c-0.2,1.411-1.082,2.543-1.969,2.527
						c-0.887-0.016-1.444-1.173-1.244-2.584C361.61,192.324,362.492,191.193,363.379,191.209z"/>
					<path style="fill:#FFFFFF;" d="M368.032,188.73c0.887,0.016,1.444,1.173,1.244,2.584s-1.082,2.542-1.969,2.527
						c-0.887-0.016-1.444-1.173-1.244-2.584C366.263,189.845,367.145,188.714,368.032,188.73z"/>
					<path style="fill:#FFFFFF;" d="M372.717,186.251c0.887,0.016,1.444,1.173,1.244,2.584c-0.2,1.411-1.082,2.542-1.969,2.527
						c-0.887-0.016-1.444-1.173-1.244-2.584C370.948,187.367,371.83,186.235,372.717,186.251z"/>
				</g>
				<polygon style="fill:#D5243A;" points="351.829,187.371 375.866,173.493 378.865,175.238 354.828,189.116 				"/>
			</g>
		</g>
		<g>
			<g>
				<g>
					<polygon style="fill:#FF4A67;" points="383.672,145.613 387.36,153.683 387.36,147.742 					"/>
					<polygon style="fill:#B11118;" points="387.357,153.683 389.186,152.628 389.186,148.796 387.36,147.742 					"/>
				</g>
				<polygon style="fill:#B11118;" points="404.496,125.491 404.496,152.322 399.856,155 400.259,127.956 				"/>
				<polygon style="fill:#FF4A67;" points="376.234,114.085 376.234,141.362 399.856,155 400.259,127.956 				"/>
				<polygon style="fill:#D5243A;" points="404.496,125.491 380.47,111.62 376.234,114.085 400.259,127.956 				"/>
			</g>
			<g>
				<path style="fill:#FFFFFF;" d="M389.045,137.597l-3.698-2.126l-0.54-12.5l5.547,3.189L389.045,137.597z M386.948,144.235
					c-1.602-0.921-2.663-3.055-2.604-4.883c0.06-1.856,1.215-2.631,2.816-1.71c1.603,0.921,2.667,2.972,2.607,4.828
					C389.708,144.298,388.551,145.156,386.948,144.235z"/>
			</g>
		</g>
		<g>
			<g>
				<g>
					<polygon style="fill:#FF4A67;" points="98.148,131.417 100.759,137.131 100.759,132.925 					"/>
					<polygon style="fill:#B11118;" points="100.756,137.131 102.051,136.383 102.051,133.671 100.759,132.925 					"/>
				</g>
				<polygon style="fill:#B11118;" points="107.031,113.788 107.031,132.783 103.746,134.679 104.032,115.533 				"/>
				<polygon style="fill:#FF4A67;" points="79.984,101.649 79.984,120.96 103.746,134.679 104.032,115.533 				"/>
				<g>
					<path style="fill:#FFFFFF;" d="M95.481,117.626c-0.887,0.016-1.444,1.173-1.244,2.584c0.2,1.411,1.082,2.543,1.969,2.527
						c0.887-0.016,1.444-1.173,1.244-2.584C97.249,118.742,96.368,117.61,95.481,117.626z"/>
					<path style="fill:#FFFFFF;" d="M90.828,115.147c-0.887,0.016-1.444,1.173-1.244,2.584c0.2,1.411,1.082,2.543,1.969,2.527
						c0.887-0.016,1.444-1.173,1.244-2.584C92.597,116.262,91.715,115.131,90.828,115.147z"/>
					<path style="fill:#FFFFFF;" d="M86.143,112.668c-0.887,0.016-1.444,1.173-1.244,2.584c0.2,1.411,1.082,2.543,1.969,2.527
						c0.887-0.016,1.444-1.173,1.244-2.584C87.911,113.784,87.03,112.652,86.143,112.668z"/>
				</g>
				<polygon style="fill:#D5243A;" points="107.031,113.788 82.993,99.91 79.994,101.655 104.032,115.533 				"/>
			</g>
		</g>
	</g>
	<g>
		<path style="fill:#E5E5E5;" d="M256.156,167.811c0,3.887-9.75,7.038-21.778,7.038c-12.027,0-21.778-3.151-21.778-7.038
			s9.75-7.038,21.778-7.038C246.406,160.773,256.156,163.924,256.156,167.811z"/>
		<g>
			<g>
				<path style="fill:#51557C;" d="M250.049,135.789v27.653c0,4.613-7.02,8.35-15.671,8.35c-8.651,0-15.664-3.737-15.664-8.35
					v-27.653H250.049z"/>
				<ellipse style="fill:#3A4059;" cx="234.379" cy="135.786" rx="15.668" ry="8.356"/>
				<path style="fill:#252B3D;" d="M248.085,135.789c0,0.286-0.098,0.598-0.301,0.936c-1.211,2.055-6.09,4.813-13.405,4.813
					c-7.315,0-12.193-2.757-13.405-4.813c-0.203-0.338-0.301-0.65-0.301-0.936c0-2.029,5.206-5.758,13.706-5.758
					C242.879,130.031,248.085,133.76,248.085,135.789z"/>
			</g>
			<g>
				<path style="fill:#D5243A;" d="M234.28,134.217l-1.133-0.906l-0.601-0.481l-1.702-1.362c0,0,4.064-39.463,20.831-40.955
					c5.162-0.46,8.94,5.858-1.624,17.666C240.259,119.123,234.28,134.217,234.28,134.217z"/>
				<g>
					<path style="fill:#B11118;" d="M233.146,133.31l-0.601-0.481c2.082-8.753,5.931-16.968,8.926-22.518
						c3.556-6.59,6.71-10.954,6.742-10.997c0.113-0.156,0.33-0.19,0.485-0.077c0.156,0.113,0.191,0.33,0.078,0.485
						c-0.032,0.044-3.165,4.377-6.699,10.929C239.069,116.23,235.193,124.515,233.146,133.31z"/>
				</g>
			</g>
			<g>
				<path style="fill:#D5243A;" d="M225.963,121.702l0.861-1.168l0.456-0.62l1.293-1.755c0,0-14.104-37.079-30.689-34.197
					c-5.106,0.887-7.126,7.965,6.125,16.649C216.293,108.662,225.963,121.702,225.963,121.702z"/>
				<g>
					<path style="fill:#B11118;" d="M226.824,120.534l0.456-0.62c-4.269-7.92-10.107-14.865-14.432-19.454
						c-5.135-5.45-9.309-8.853-9.35-8.886c-0.149-0.122-0.368-0.099-0.489,0.051c-0.122,0.149-0.099,0.368,0.05,0.489
						c0.042,0.034,4.186,3.412,9.291,8.832C216.696,105.559,222.578,112.564,226.824,120.534z"/>
				</g>
			</g>
			<g>
				<path style="fill:#FF4A67;" d="M238.383,136.669c-1.046-4.68-5.076-24.446-3.008-42.919c2.552-22.795-7.207-27.077-12.91-22.203
					c-17.261,14.75,6.142,59.124,9.422,65.122H238.383z"/>
				<g>
					<path style="fill:#D5243A;" d="M236.155,136.669c-4.715-11.832-7.006-24.433-8.109-33.309
						c-1.33-10.696-1.27-18.436-1.27-18.515c0.003-0.277-0.221-0.505-0.499-0.507c-0.278-0.004-0.506,0.219-0.508,0.498
						c-0.002,0.077-0.061,7.872,1.275,18.631c1.098,8.848,3.37,21.376,8.029,33.202H236.155z"/>
				</g>
			</g>
		</g>
	</g>
</g>
<g id="DESIGNED_BY_FREEPIK">
	<g>
		<g id="XMLID_1_">
			<g id="XMLID_20_">
				<path id="XMLID_28_" style="fill:#112129;" d="M260.104,465.465c-0.432,0.443-0.803,0.931-1.108,1.453l-0.465-0.241
					c-0.067-0.298-0.349-0.503-0.659-0.466c-0.331,0.039-0.568,0.339-0.529,0.67c0.039,0.331,0.339,0.568,0.67,0.529
					c0.065-0.008,0.127-0.026,0.183-0.052l0.452,0.234c-0.251,0.554-0.433,1.139-0.539,1.744l0.747,0.132
					c0.23-1.306,0.85-2.507,1.792-3.473L260.104,465.465z"/>
				<path id="XMLID_27_" style="fill:#112129;" d="M265.592,463.163c-0.171,0-0.341,0.006-0.51,0.017l-0.074-0.626
					c0.188-0.149,0.296-0.389,0.266-0.645c-0.046-0.393-0.402-0.674-0.795-0.628c-0.393,0.046-0.674,0.402-0.628,0.795
					c0.03,0.254,0.189,0.461,0.405,0.564l0.073,0.624c-0.714,0.116-1.403,0.332-2.06,0.646l0.327,0.684
					c0.934-0.447,1.942-0.673,2.995-0.673c0.496,0,0.993,0.053,1.475,0.158l0.161-0.741
					C266.692,463.222,266.142,463.163,265.592,463.163z"/>
				<path id="XMLID_26_" style="fill:#112129;" d="M272.194,465.711c0.331-0.04,0.566-0.341,0.526-0.672
					c-0.04-0.331-0.341-0.566-0.672-0.526c-0.309,0.038-0.535,0.304-0.53,0.609l-0.416,0.363c-0.418-0.43-0.89-0.813-1.408-1.139
					l-0.404,0.641c1.134,0.715,2.021,1.726,2.563,2.925l0.691-0.313c-0.251-0.554-0.568-1.072-0.942-1.545l0.402-0.351
					C272.065,465.716,272.129,465.719,272.194,465.711z"/>
				<path id="XMLID_25_" style="fill:#112129;" d="M265.044,473.372c-0.386,0.023-0.775,0.035-1.157,0.035
					c-0.88,0-1.733-0.061-2.478-0.179c-0.39-0.062-0.846-0.155-1.27-0.292c1.046,1.861,3.069,3.125,5.388,3.125
					c2.855,0,5.262-1.916,5.95-4.504c-0.682,0.449-1.505,0.825-2.459,1.123C267.839,473.047,266.464,473.286,265.044,473.372z"/>
				<path id="XMLID_21_" style="fill:#112129;" d="M265.592,464.68c-3.352,0-6.08,2.666-6.08,5.943c0,0.426,0.046,0.849,0.137,1.261
					c0.673,0.483,2.706,0.89,5.348,0.731c2.879-0.173,5.297-0.957,6.672-2.159c-0.005-0.195-0.021-0.39-0.045-0.582
					C271.244,466.913,268.65,464.68,265.592,464.68z M263.432,471.194c-1.02,0-1.85-0.83-1.85-1.85c0-1.02,0.83-1.85,1.85-1.85
					c1.02,0,1.85,0.83,1.85,1.85C265.282,470.365,264.452,471.194,263.432,471.194z M268.17,470.286c-0.75,0-1.36-0.61-1.36-1.36
					s0.61-1.361,1.36-1.361c0.75,0,1.361,0.61,1.361,1.361S268.92,470.286,268.17,470.286z"/>
			</g>
			<path id="XMLID_18_" style="fill:#112129;" d="M281.595,466.547c-0.295-0.116-0.805-0.309-1.382-0.237
				c-0.551,0.069-0.844,0.341-0.844,1.007v0.866h2.228v1.717h-2.228v5.455h-1.932v-5.455h-1.34v-1.717h1.34v-0.888
				c0-1.68,0.896-2.783,2.568-2.783c0.643,0,1.157,0.122,1.59,0.308L281.595,466.547z"/>
			<path id="XMLID_16_" style="fill:#112129;" d="M286.298,469.879c-0.177-0.03-0.358-0.046-0.526-0.046
				c-0.896,0-1.51,0.548-1.51,1.614v3.908h-1.932v-7.172h1.873v0.785c0.451-0.673,1.14-0.977,2.021-0.977
				c0.414,0,0.848,0.128,1.094,0.337L286.298,469.879z"/>
			<path id="XMLID_13_" style="fill:#112129;" d="M293.965,471.757c0,0.222-0.015,0.489-0.037,0.651h-5.085
				c0.207,1.036,0.933,1.488,1.843,1.488c0.622,0,1.295-0.252,1.813-0.688l1.132,1.243c-0.814,0.748-1.85,1.088-3.057,1.088
				c-2.198,0-3.723-1.495-3.723-3.753c0-2.258,1.48-3.797,3.627-3.797C292.544,467.99,293.958,469.522,293.965,471.757z
				 M288.851,471.091h3.175c-0.177-0.918-0.733-1.436-1.562-1.436C289.554,469.655,289.021,470.203,288.851,471.091z"/>
			<path id="XMLID_10_" style="fill:#112129;" d="M301.618,471.757c0,0.222-0.015,0.489-0.037,0.651h-5.085
				c0.207,1.036,0.933,1.488,1.843,1.488c0.622,0,1.295-0.252,1.813-0.688l1.132,1.243c-0.814,0.748-1.85,1.088-3.057,1.088
				c-2.198,0-3.723-1.495-3.723-3.753c0-2.258,1.48-3.797,3.627-3.797C300.197,467.99,301.611,469.522,301.618,471.757z
				 M296.504,471.091h3.175c-0.178-0.918-0.733-1.436-1.562-1.436C297.207,469.655,296.674,470.203,296.504,471.091z"/>
			<path id="XMLID_7_" style="fill:#112129;" d="M309.964,471.764c0,2.154-1.495,3.775-3.471,3.775
				c-0.962,0-1.643-0.378-2.109-0.933v3.708h-1.924v-10.133h1.887v0.792c0.466-0.585,1.155-0.984,2.139-0.984
				C308.469,467.99,309.964,469.61,309.964,471.764z M304.287,471.764c0,1.132,0.747,1.976,1.843,1.976
				c1.14,0,1.85-0.881,1.85-1.976c0-1.095-0.71-1.976-1.85-1.976C305.035,469.788,304.287,470.632,304.287,471.764z"/>
			<path id="XMLID_4_" style="fill:#112129;" d="M313.068,465.836c0,0.696-0.54,1.229-1.236,1.229c-0.696,0-1.229-0.533-1.229-1.229
				c0-0.696,0.533-1.243,1.229-1.243C312.527,464.592,313.068,465.14,313.068,465.836z M312.809,475.354h-1.932v-7.172h1.932
				V475.354z"/>
			<path id="XMLID_2_" style="fill:#112129;" d="M316.032,470.736l2.701-2.554h2.368l-3.479,3.375l3.501,3.797h-2.376l-2.716-2.901
				v2.901H314.1v-10.658h1.932V470.736z"/>
		</g>
		<g>
			<path style="fill:#112129;" d="M184.412,475.289v-1.055c-0.527,0.718-1.391,1.23-2.387,1.23c-1.846,0-3.149-1.406-3.149-3.706
				c0-2.256,1.289-3.721,3.149-3.721c0.952,0,1.816,0.469,2.387,1.245v-3.765h1.099v9.77H184.412z M184.412,473.37v-3.208
				c-0.395-0.615-1.245-1.143-2.124-1.143c-1.421,0-2.27,1.172-2.27,2.739c0,1.567,0.85,2.724,2.27,2.724
				C183.168,474.483,184.017,473.986,184.412,473.37z"/>
			<path style="fill:#112129;" d="M186.932,471.744c0-2.051,1.465-3.706,3.486-3.706c2.139,0,3.398,1.67,3.398,3.794v0.279h-5.727
				c0.088,1.333,1.025,2.446,2.549,2.446c0.805,0,1.626-0.322,2.182-0.894l0.527,0.718c-0.703,0.703-1.655,1.084-2.812,1.084
				C188.44,475.465,186.932,473.956,186.932,471.744z M190.403,468.947c-1.509,0-2.256,1.274-2.314,2.358h4.643
				C192.718,470.25,192.015,468.947,190.403,468.947z"/>
			<path style="fill:#112129;" d="M194.607,474.351l0.571-0.791c0.469,0.542,1.362,1.011,2.329,1.011c1.084,0,1.67-0.513,1.67-1.216
				c0-1.714-4.38-0.659-4.38-3.281c0-1.098,0.952-2.036,2.636-2.036c1.201,0,2.051,0.454,2.622,1.026l-0.513,0.762
				c-0.424-0.513-1.201-0.894-2.109-0.894c-0.967,0-1.567,0.483-1.567,1.113c0,1.552,4.38,0.527,4.38,3.281
				c0,1.187-0.952,2.138-2.783,2.138C196.306,475.465,195.325,475.113,194.607,474.351z"/>
			<path style="fill:#112129;" d="M201.477,466.471c0-0.41,0.337-0.747,0.732-0.747c0.41,0,0.747,0.337,0.747,0.747
				c0,0.41-0.337,0.732-0.747,0.732C201.814,467.203,201.477,466.881,201.477,466.471z M201.667,475.289v-7.075h1.099v7.075H201.667
				z"/>
			<path style="fill:#112129;" d="M204.582,477.105l0.556-0.82c0.586,0.703,1.289,0.967,2.3,0.967c1.172,0,2.27-0.571,2.27-2.124
				v-1.011c-0.513,0.718-1.377,1.26-2.373,1.26c-1.845,0-3.149-1.377-3.149-3.662c0-2.27,1.289-3.677,3.149-3.677
				c0.952,0,1.802,0.469,2.373,1.245v-1.069h1.098v6.87c0,2.344-1.641,3.076-3.369,3.076
				C206.237,478.16,205.417,477.926,204.582,477.105z M209.709,473.253v-3.091c-0.381-0.615-1.23-1.143-2.109-1.143
				c-1.421,0-2.27,1.128-2.27,2.695c0,1.553,0.849,2.695,2.27,2.695C208.478,474.41,209.328,473.868,209.709,473.253z"/>
			<path style="fill:#112129;" d="M217.413,475.289v-4.629c0-1.245-0.63-1.641-1.582-1.641c-0.865,0-1.685,0.527-2.095,1.099v5.17
				h-1.099v-7.075h1.099v1.025c0.498-0.586,1.465-1.201,2.519-1.201c1.48,0,2.256,0.747,2.256,2.285v4.966H217.413z"/>
			<path style="fill:#112129;" d="M219.932,471.744c0-2.051,1.465-3.706,3.486-3.706c2.139,0,3.398,1.67,3.398,3.794v0.279h-5.727
				c0.088,1.333,1.025,2.446,2.549,2.446c0.806,0,1.626-0.322,2.183-0.894l0.527,0.718c-0.703,0.703-1.655,1.084-2.812,1.084
				C221.441,475.465,219.932,473.956,219.932,471.744z M223.404,468.947c-1.509,0-2.256,1.274-2.314,2.358h4.643
				C225.718,470.25,225.015,468.947,223.404,468.947z"/>
			<path style="fill:#112129;" d="M233.35,475.289v-1.055c-0.527,0.718-1.392,1.23-2.388,1.23c-1.846,0-3.149-1.406-3.149-3.706
				c0-2.256,1.289-3.721,3.149-3.721c0.952,0,1.817,0.469,2.388,1.245v-3.765h1.098v9.77H233.35z M233.35,473.37v-3.208
				c-0.396-0.615-1.245-1.143-2.124-1.143c-1.421,0-2.27,1.172-2.27,2.739c0,1.567,0.849,2.724,2.27,2.724
				C232.105,474.483,232.954,473.986,233.35,473.37z"/>
			<path style="fill:#112129;" d="M239.692,475.289v-9.77h1.098v3.765c0.572-0.776,1.421-1.245,2.388-1.245
				c1.845,0,3.149,1.465,3.149,3.721c0,2.299-1.304,3.706-3.149,3.706c-0.996,0-1.86-0.513-2.388-1.23v1.055H239.692z
				 M242.9,474.483c1.436,0,2.285-1.157,2.285-2.724c0-1.568-0.85-2.739-2.285-2.739c-0.864,0-1.728,0.527-2.109,1.143v3.208
				C241.171,473.986,242.036,474.483,242.9,474.483z"/>
			<path style="fill:#112129;" d="M247.528,477.061c0.161,0.073,0.425,0.117,0.601,0.117c0.483,0,0.805-0.161,1.055-0.747
				l0.469-1.069l-2.959-7.148h1.187l2.358,5.8l2.344-5.8h1.201l-3.545,8.51c-0.425,1.025-1.143,1.421-2.08,1.435
				c-0.234,0-0.601-0.044-0.806-0.103L247.528,477.061z"/>
		</g>
	</g>
</g>
</svg>
