<?xml version="1.0" encoding="utf-8"?>
<!-- Generator: Adobe Illustrator 27.5.0, SVG Export Plug-In . SVG Version: 6.00 Build 0)  -->
<svg version="1.1" id="Paid_Per_Click_2_" xmlns="http://www.w3.org/2000/svg" xmlns:xlink="http://www.w3.org/1999/xlink" x="0px"
	 y="0px" viewBox="0 0 1200 1200" style="enable-background:new 0 0 1200 1200;" xml:space="preserve">
<g id="Background">
	<rect id="Background_1" style="fill:#826EA1;" width="1200" height="1200"/>
	<circle id="Background_2" style="fill:#9A8AB3;" cx="600" cy="600" r="399"/>
</g>
<g id="Paid_Per_Click">
	<path style="fill:#F2F2F2;" d="M410.21,1082.879c5.606,0,9.917,1.065,12.931,3.197c3.014,2.132,4.522,5.31,4.522,9.533
		c0,2.304-0.413,4.272-1.238,5.904c-0.826,1.632-2.016,2.957-3.571,3.975s-3.447,1.756-5.674,2.217
		c-2.228,0.461-4.743,0.691-7.545,0.691h-4.435v14.804h-5.587v-39.343c1.574-0.382,3.331-0.642,5.271-0.776
		C406.821,1082.946,408.598,1082.879,410.21,1082.879z M410.671,1087.775c-2.382,0-4.206,0.058-5.472,0.172v15.668h4.205
		c1.919,0,3.648-0.124,5.184-0.375c1.536-0.248,2.831-0.67,3.888-1.267c1.055-0.594,1.872-1.411,2.448-2.448
		c0.576-1.035,0.864-2.361,0.864-3.975c0-1.535-0.297-2.802-0.893-3.802c-0.595-0.997-1.402-1.794-2.418-2.391
		c-1.019-0.594-2.199-1.008-3.543-1.237C413.589,1087.892,412.168,1087.775,410.671,1087.775z"/>
	<path style="fill:#F2F2F2;" d="M458.422,1123.2c-0.653-1.729-1.268-3.428-1.844-5.098c-0.576-1.671-1.172-3.37-1.785-5.098h-18.087
		l-3.628,10.195h-5.818c1.536-4.224,2.976-8.131,4.32-11.723c1.343-3.589,2.659-6.998,3.945-10.225
		c1.286-3.225,2.564-6.307,3.831-9.243c1.267-2.938,2.592-5.847,3.974-8.728h5.126c1.383,2.881,2.708,5.789,3.975,8.728
		c1.267,2.937,2.543,6.019,3.83,9.243c1.286,3.227,2.602,6.636,3.946,10.225c1.344,3.592,2.784,7.499,4.32,11.723H458.422z
		 M453.18,1108.396c-1.229-3.342-2.448-6.576-3.657-9.705c-1.21-3.13-2.468-6.136-3.773-9.016c-1.345,2.88-2.621,5.886-3.83,9.016
		c-1.21,3.129-2.411,6.363-3.6,9.705H453.18z"/>
	<path style="fill:#F2F2F2;" d="M469.94,1083.282h5.588v39.918h-5.588V1083.282z"/>
	<path style="fill:#F2F2F2;" d="M518.209,1103.213c0,3.455-0.538,6.46-1.612,9.014c-1.076,2.555-2.592,4.666-4.55,6.336
		c-1.959,1.67-4.302,2.92-7.027,3.744c-2.728,0.825-5.722,1.238-8.986,1.238c-1.613,0-3.389-0.067-5.328-0.202
		c-1.94-0.135-3.696-0.393-5.271-0.776v-38.709c1.575-0.382,3.331-0.642,5.271-0.776c1.939-0.135,3.715-0.202,5.328-0.202
		c3.264,0,6.258,0.414,8.986,1.239c2.726,0.826,5.068,2.074,7.027,3.743c1.958,1.671,3.475,3.782,4.55,6.337
		C517.672,1096.752,518.209,1099.756,518.209,1103.213z M496.495,1118.648c5.299,0,9.254-1.353,11.865-4.06
		c2.611-2.708,3.917-6.499,3.917-11.376c0-4.878-1.306-8.67-3.917-11.377c-2.611-2.707-6.566-4.061-11.865-4.061
		c-1.575,0-2.793,0.02-3.658,0.058c-0.864,0.038-1.469,0.077-1.814,0.114v30.529c0.345,0.038,0.951,0.077,1.814,0.115
		C493.701,1118.63,494.92,1118.648,496.495,1118.648z"/>
	<path style="fill:#F2F2F2;" d="M550.407,1082.879c5.607,0,9.917,1.065,12.931,3.197c3.014,2.132,4.522,5.31,4.522,9.533
		c0,2.304-0.413,4.272-1.238,5.904c-0.826,1.632-2.016,2.957-3.571,3.975c-1.555,1.018-3.447,1.756-5.674,2.217
		c-2.228,0.461-4.743,0.691-7.546,0.691h-4.435v14.804h-5.587v-39.343c1.574-0.382,3.331-0.642,5.271-0.776
		C547.019,1082.946,548.795,1082.879,550.407,1082.879z M550.869,1087.775c-2.382,0-4.206,0.058-5.472,0.172v15.668h4.205
		c1.919,0,3.647-0.124,5.184-0.375c1.536-0.248,2.831-0.67,3.888-1.267c1.055-0.594,1.872-1.411,2.448-2.448
		c0.576-1.035,0.864-2.361,0.864-3.975c0-1.535-0.297-2.802-0.893-3.802c-0.595-0.997-1.402-1.794-2.419-2.391
		c-1.018-0.594-2.199-1.008-3.542-1.237C553.786,1087.892,552.366,1087.775,550.869,1087.775z"/>
	<path style="fill:#F2F2F2;" d="M574.829,1123.2v-39.918h24.365v4.781h-18.778v11.865h16.704v4.667h-16.704v13.823h20.217v4.781
		H574.829z"/>
	<path style="fill:#F2F2F2;" d="M627.244,1106.496c0.613,0.769,1.392,1.776,2.334,3.023c0.94,1.248,1.909,2.631,2.908,4.147
		c0.998,1.518,1.986,3.102,2.967,4.752c0.979,1.651,1.814,3.246,2.505,4.781h-6.106c-0.768-1.46-1.604-2.939-2.507-4.436
		c-0.902-1.498-1.814-2.929-2.734-4.292c-0.922-1.362-1.836-2.64-2.736-3.83c-0.902-1.189-1.72-2.227-2.448-3.11
		c-0.499,0.038-1.008,0.059-1.526,0.059c-0.518,0-1.047,0-1.584,0h-5.011v15.609h-5.588v-39.343
		c1.575-0.382,3.331-0.642,5.271-0.776c1.938-0.135,3.715-0.202,5.327-0.202c5.607,0,9.879,1.057,12.815,3.168
		c2.939,2.113,4.406,5.262,4.406,9.447c0,2.648-0.7,4.915-2.103,6.797C632.034,1104.172,629.971,1105.574,627.244,1106.496z
		 M618.778,1087.775c-2.383,0-4.206,0.058-5.473,0.172v15.034h3.975c1.92,0,3.647-0.095,5.184-0.287
		c1.535-0.192,2.831-0.557,3.887-1.095c1.058-0.537,1.873-1.296,2.449-2.275c0.575-0.979,0.864-2.275,0.864-3.889
		c0-1.497-0.289-2.744-0.864-3.742c-0.576-0.999-1.354-1.786-2.333-2.363c-0.979-0.576-2.132-0.979-3.456-1.209
		C621.686,1087.892,620.274,1087.775,618.778,1087.775z"/>
	<path style="fill:#F2F2F2;" d="M674.419,1124.063c-2.805,0-5.358-0.46-7.662-1.383c-2.304-0.922-4.282-2.265-5.932-4.032
		c-1.652-1.765-2.93-3.944-3.831-6.537c-0.903-2.592-1.354-5.559-1.354-8.898c0-3.342,0.509-6.308,1.525-8.899
		c1.018-2.593,2.391-4.772,4.118-6.538c1.729-1.766,3.745-3.11,6.05-4.032c2.304-0.921,4.76-1.383,7.372-1.383
		c1.651,0,3.14,0.116,4.464,0.347c1.325,0.229,2.477,0.499,3.457,0.807c0.978,0.307,1.775,0.613,2.391,0.921
		c0.612,0.308,1.035,0.539,1.266,0.691l-1.613,4.607c-0.344-0.229-0.844-0.479-1.497-0.749c-0.653-0.268-1.393-0.537-2.218-0.806
		c-0.826-0.269-1.727-0.489-2.707-0.662c-0.979-0.174-1.969-0.261-2.967-0.261c-2.111,0-4.013,0.366-5.702,1.095
		c-1.69,0.731-3.129,1.786-4.319,3.169c-1.191,1.383-2.103,3.063-2.735,5.039c-0.634,1.979-0.952,4.196-0.952,6.654
		c0,2.381,0.279,4.55,0.836,6.508c0.557,1.959,1.391,3.639,2.507,5.039c1.113,1.404,2.505,2.487,4.175,3.256
		c1.67,0.769,3.619,1.152,5.847,1.152c2.571,0,4.704-0.269,6.394-0.808c1.689-0.537,2.956-1.017,3.802-1.439l1.44,4.608
		c-0.269,0.191-0.748,0.431-1.44,0.719c-0.691,0.289-1.556,0.567-2.592,0.836c-1.037,0.269-2.247,0.498-3.63,0.691
		C677.529,1123.967,676.031,1124.063,674.419,1124.063z"/>
	<path style="fill:#F2F2F2;" d="M716.983,1118.36v4.84h-24.019v-39.918h5.588v35.078H716.983z"/>
	<path style="fill:#F2F2F2;" d="M722.859,1083.282h5.588v39.918h-5.588V1083.282z"/>
	<path style="fill:#F2F2F2;" d="M755.519,1124.063c-2.805,0-5.357-0.46-7.662-1.383c-2.304-0.922-4.281-2.265-5.932-4.032
		c-1.652-1.765-2.93-3.944-3.831-6.537c-0.903-2.592-1.353-5.559-1.353-8.898c0-3.342,0.509-6.308,1.526-8.899
		c1.017-2.593,2.391-4.772,4.117-6.538c1.73-1.766,3.746-3.11,6.05-4.032c2.304-0.921,4.76-1.383,7.372-1.383
		c1.651,0,3.14,0.116,4.464,0.347c1.325,0.229,2.477,0.499,3.457,0.807c0.979,0.307,1.775,0.613,2.391,0.921
		c0.612,0.308,1.036,0.539,1.266,0.691l-1.612,4.607c-0.345-0.229-0.844-0.479-1.498-0.749c-0.652-0.268-1.393-0.537-2.217-0.806
		c-0.826-0.269-1.727-0.489-2.707-0.662c-0.981-0.174-1.969-0.261-2.968-0.261c-2.111,0-4.013,0.366-5.702,1.095
		c-1.69,0.731-3.129,1.786-4.319,3.169c-1.191,1.383-2.103,3.063-2.735,5.039c-0.634,1.979-0.951,4.196-0.951,6.654
		c0,2.381,0.278,4.55,0.835,6.508c0.557,1.959,1.392,3.639,2.507,5.039c1.113,1.404,2.506,2.487,4.176,3.256
		c1.67,0.769,3.618,1.152,5.846,1.152c2.571,0,4.704-0.269,6.394-0.808c1.688-0.537,2.955-1.017,3.801-1.439l1.44,4.608
		c-0.269,0.191-0.748,0.431-1.44,0.719c-0.691,0.289-1.556,0.567-2.592,0.836c-1.037,0.269-2.246,0.498-3.629,0.691
		C758.63,1123.967,757.132,1124.063,755.519,1124.063z"/>
	<path style="fill:#F2F2F2;" d="M803.614,1083.282c-1.19,1.307-2.534,2.757-4.032,4.349c-1.498,1.594-3.063,3.226-4.694,4.896
		c-1.632,1.671-3.253,3.312-4.867,4.924c-1.612,1.614-3.13,3.111-4.55,4.493c1.649,1.153,3.398,2.573,5.241,4.264
		c1.844,1.689,3.649,3.494,5.415,5.414c1.766,1.921,3.427,3.879,4.982,5.876c1.555,1.996,2.851,3.897,3.887,5.702h-6.565
		c-1.153-1.805-2.477-3.619-3.976-5.444c-1.497-1.824-3.082-3.571-4.752-5.241c-1.67-1.671-3.36-3.216-5.068-4.637
		c-1.71-1.421-3.37-2.63-4.982-3.63v18.952h-5.588v-39.918h5.588v17.626c1.343-1.268,2.821-2.697,4.435-4.291
		s3.206-3.197,4.781-4.81c1.574-1.612,3.062-3.159,4.465-4.637c1.4-1.478,2.581-2.774,3.541-3.889H803.614z"/>
</g>
<g id="Paid_Per_Click_1_">
	<g>
		<path style="fill-rule:evenodd;clip-rule:evenodd;fill:#FFFFFF;" d="M215.176,273.429h651.313c8.985,0,16.429,7.443,16.429,16.43
			v370.589c0,9.055-7.443,16.498-16.429,16.498H215.176c-9.053,0-16.43-7.443-16.43-16.498V289.858
			C198.746,280.872,206.124,273.429,215.176,273.429L215.176,273.429z"/>
		<path style="fill-rule:evenodd;clip-rule:evenodd;fill:#353F49;" d="M213.164,273.429H868.5c7.914,0,14.418,6.505,14.418,14.418
			v44.396c0,0.603-0.536,1.207-1.206,1.207H198.746v-45.603C198.746,279.934,205.251,273.429,213.164,273.429L213.164,273.429z"/>
		<path style="fill-rule:evenodd;clip-rule:evenodd;fill:#F77B55;" d="M232.545,315.946c6.907,0,12.541-5.969,12.541-13.212
			c0-7.241-5.634-13.143-12.541-13.143c-6.907,0-12.539,5.902-12.539,13.143C220.005,309.978,225.638,315.946,232.545,315.946
			L232.545,315.946z"/>
		<path style="fill-rule:evenodd;clip-rule:evenodd;fill:#76D0DE;" d="M267.688,315.946c6.906,0,12.54-5.969,12.54-13.212
			c0-7.241-5.634-13.143-12.54-13.143c-6.975,0-12.608,5.902-12.608,13.143C255.079,309.978,260.712,315.946,267.688,315.946
			L267.688,315.946z"/>
		<path style="fill-rule:evenodd;clip-rule:evenodd;fill:#FFDB79;" d="M302.76,315.946c6.907,0,12.541-5.969,12.541-13.212
			c0-7.241-5.634-13.143-12.541-13.143c-6.908,0-12.541,5.902-12.541,13.143C290.22,309.978,295.853,315.946,302.76,315.946
			L302.76,315.946z"/>
		<rect x="334.347" y="291.67" style="fill-rule:evenodd;clip-rule:evenodd;fill:#FFFFFF;" width="529.056" height="24.947"/>
		<g>
			<rect x="253.671" y="356.789" style="fill-rule:evenodd;clip-rule:evenodd;fill:#CCCCCC;" width="146.8" height="19.447"/>
			<rect x="461.363" y="356.789" style="fill-rule:evenodd;clip-rule:evenodd;fill:#CCCCCC;" width="146.8" height="19.447"/>
			<rect x="669.658" y="356.789" style="fill-rule:evenodd;clip-rule:evenodd;fill:#CCCCCC;" width="146.803" height="19.447"/>
			<rect x="258.364" y="421.839" style="fill-rule:evenodd;clip-rule:evenodd;fill:#CCCCCC;" width="262.619" height="10.796"/>
			<rect x="308.527" y="449.2" style="fill-rule:evenodd;clip-rule:evenodd;fill:#CCCCCC;" width="262.618" height="10.797"/>
			<rect x="266.077" y="476.563" style="fill-rule:evenodd;clip-rule:evenodd;fill:#CCCCCC;" width="262.618" height="10.796"/>
			<rect x="258.364" y="503.921" style="fill-rule:evenodd;clip-rule:evenodd;fill:#CCCCCC;" width="262.619" height="10.799"/>
			<rect x="308.527" y="531.351" style="fill-rule:evenodd;clip-rule:evenodd;fill:#CCCCCC;" width="262.618" height="10.797"/>
			<rect x="266.077" y="558.715" style="fill-rule:evenodd;clip-rule:evenodd;fill:#CCCCCC;" width="262.618" height="10.794"/>
			<rect x="258.364" y="586.073" style="fill-rule:evenodd;clip-rule:evenodd;fill:#CCCCCC;" width="262.619" height="10.8"/>
			<rect x="308.527" y="613.435" style="fill-rule:evenodd;clip-rule:evenodd;fill:#CCCCCC;" width="262.618" height="10.799"/>
		</g>
		<g>
			<rect x="614.198" y="412.315" style="fill-rule:evenodd;clip-rule:evenodd;fill:#08C6A2;" width="228.146" height="228.014"/>
			<path style="fill-rule:evenodd;clip-rule:evenodd;fill:#E6E6E6;" d="M755.029,507.879c10.731,0,19.449,8.717,19.449,19.449
				c0,10.729-8.718,19.446-19.449,19.446c-10.729,0-19.447-8.717-19.447-19.446C735.582,516.597,744.301,507.879,755.029,507.879
				L755.029,507.879z M755.029,513.178c7.848,0,14.219,6.302,14.219,14.15c0,7.846-6.371,14.151-14.219,14.151
				c-7.778,0-14.148-6.305-14.148-14.151C740.881,519.48,747.251,513.178,755.029,513.178L755.029,513.178z"/>
			<path style="fill-rule:evenodd;clip-rule:evenodd;fill:#CCCCCC;" d="M755.029,497.485c16.499,0,29.845,13.344,29.845,29.843
				c0,16.498-13.346,29.843-29.845,29.843c-16.43,0-29.843-13.345-29.843-29.843C725.186,510.83,738.6,497.485,755.029,497.485
				L755.029,497.485z M755.029,494.13c18.378,0,33.264,14.824,33.264,33.198c0,18.374-14.886,33.262-33.264,33.262
				c-18.308,0-33.195-14.888-33.195-33.262C721.834,508.954,736.722,494.13,755.029,494.13L755.029,494.13z"/>
			<path style="fill-rule:evenodd;clip-rule:evenodd;fill:#B3B3B3;" d="M755.029,478.975c26.692,0,48.354,21.662,48.354,48.354
				c0,26.691-21.662,48.352-48.354,48.352c-26.69,0-48.284-21.66-48.284-48.352C706.745,500.637,728.34,478.975,755.029,478.975
				L755.029,478.975z M755.029,481.995c25.016,0,45.337,20.32,45.337,45.334c0,25.014-20.321,45.335-45.337,45.335
				c-25.015,0-45.266-20.321-45.266-45.335C709.764,502.315,730.015,481.995,755.029,481.995L755.029,481.995z"/>
			<polygon style="fill-rule:evenodd;clip-rule:evenodd;fill:#FEFEFE;" points="755.162,525.718 795.199,547.514 835.235,569.31 
				801.103,579.032 828.063,623.16 808.547,635.031 781.587,590.902 757.443,616.857 756.305,571.256 			"/>
			<path style="fill-rule:evenodd;clip-rule:evenodd;fill:#FFFFFF;" d="M658.528,474.952l1.944,10.194h5.633l-9.657-50.565h-8.181
				l-9.658,50.565h5.165l1.945-10.194H658.528z M652.021,440.951l5.704,29.172h-11.268L652.021,440.951z M670.533,434.581v50.565
				h11.801c7.914,0,11.469-4.762,11.469-12.475v-25.483c0-7.846-3.555-12.607-11.469-12.607H670.533z M676.166,479.982v-40.237
				h6.034c4.092,0,6.036,2.48,6.036,7.108v26.019c0,4.627-1.944,7.109-5.969,7.109H676.166z M709.695,434.11
				c-7.578,0-11.198,4.829-11.198,12.608c0,14.218,16.899,15.291,16.899,26.559c0,4.559-1.878,7.241-5.901,7.241
				c-4.022,0-5.902-2.683-5.902-7.241v-3.153h-5.296v2.883c0,7.645,3.619,12.607,11.332,12.607c7.711,0,11.402-4.963,11.402-12.607
				c0-14.217-16.969-15.29-16.969-26.623c0-4.493,1.746-7.176,5.768-7.176c4.092,0,5.768,2.684,5.768,7.242v1.677h5.364v-1.409
				C720.963,439.073,717.34,434.11,709.695,434.11L709.695,434.11z"/>
		</g>
	</g>
	<g>
		<path style="fill-rule:evenodd;clip-rule:evenodd;fill:#FFB438;" d="M848.114,479.108c8.314,4.963,60.825,36.417,66.058,27.766
			l7.309-12.206c0.737-1.209,0.938-2.549,0.804-3.824c-0.201-1.742-7.979-5.027-9.591-5.967l-96.569-59.352
			c-1.743-1.005-11.87-6.974-13.547-6.168c-1.072,0.469-2.077,1.273-2.683,2.346l-7.309,12.139
			C786.416,444.17,839.396,473.878,848.114,479.108L848.114,479.108z"/>
		<path style="fill-rule:evenodd;clip-rule:evenodd;fill:#FCD471;" d="M865.886,449.669c-33.064-19.851-61.43-33.331-63.375-30.111
			c-1.944,3.286,23.273,21.996,56.332,41.847c33.062,19.852,61.496,33.331,63.441,30.044
			C924.228,488.23,898.946,469.52,865.886,449.669L865.886,449.669z"/>
		<path style="fill-rule:evenodd;clip-rule:evenodd;fill:#FFB438;" d="M865.013,451.077c-27.094-16.296-51.101-28.233-59.887-30.245
			c12.944,5.499,34.805,17.168,59.083,31.72c24.209,14.487,44.797,28.367,55.727,37.22
			C914.037,482.932,892.172,467.374,865.013,451.077L865.013,451.077z"/>
		<path style="fill-rule:evenodd;clip-rule:evenodd;fill:#FFB438;" d="M614.198,578.362c6.842-6.908,50.096-50.229,42.921-57.404
			l-10.06-10.059c-1.004-0.94-2.213-1.543-3.486-1.676c-1.744-0.204-6.841,6.502-8.181,7.845l-80.878,79.403
			c-1.408,1.407-9.658,9.789-9.322,11.667c0.202,1.142,0.738,2.214,1.611,3.151l10.059,9.993
			C565.376,629.801,607.024,585.538,614.198,578.362L614.198,578.362z"/>
		<path style="fill-rule:evenodd;clip-rule:evenodd;fill:#FCD471;" d="M589.922,553.951c-27.228,27.294-47.145,51.639-44.462,54.254
			c2.615,2.683,26.891-17.233,54.186-44.527c27.226-27.364,47.145-51.639,44.529-54.322
			C641.494,506.74,617.216,526.656,589.922,553.951L589.922,553.951z"/>
		<path style="fill-rule:evenodd;clip-rule:evenodd;fill:#FFB438;" d="M591.129,555.159c-22.398,22.398-39.768,42.785-43.858,50.833
			c8.45-11.199,25.081-29.64,45.065-49.694c19.917-19.984,38.361-36.615,49.558-45.066
			C633.848,515.324,613.528,532.76,591.129,555.159L591.129,555.159z"/>
		<path style="fill-rule:evenodd;clip-rule:evenodd;fill:#FFB438;" d="M473.501,514.989c-2.012-9.457-14.753-69.342-24.679-67.264
			l-13.949,2.951c-1.341,0.268-2.481,1.005-3.286,2.011c-1.14,1.341,1.744,9.255,2.079,11.132l22.399,111.124
			c0.401,1.945,2.95,13.412,4.695,14.149c1.073,0.471,2.28,0.605,3.554,0.337l13.882-2.953
			C489.932,583.995,475.581,524.981,473.501,514.989L473.501,514.989z"/>
		<path style="fill-rule:evenodd;clip-rule:evenodd;fill:#FCD471;" d="M439.836,522.03c7.981,37.756,17.437,67.734,21.124,66.927
			c3.689-0.804,0.202-31.989-7.778-69.746c-7.98-37.756-17.435-67.731-21.125-66.926C428.368,453.09,431.855,484.274,439.836,522.03
			L439.836,522.03z"/>
		<path style="fill-rule:evenodd;clip-rule:evenodd;fill:#FFB438;" d="M441.445,521.693c6.572,30.984,14.15,56.668,18.644,64.514
			c-4.762-13.21-11.132-37.219-17.034-64.847c-5.834-27.632-9.724-52.177-10.663-66.192
			C431.385,464.154,434.873,490.71,441.445,521.693L441.445,521.693z"/>
		<path style="fill-rule:evenodd;clip-rule:evenodd;fill:#FFB438;" d="M822.494,407.689c9.659,1.207,70.35,9.053,71.692-1.007
			l1.811-14.082c0.201-1.341-0.134-2.682-0.807-3.823c-0.872-1.475-9.319-1.407-11.199-1.675l-112.195-15.694
			c-2.013-0.268-13.681-1.675-14.954-0.334c-0.806,0.871-1.34,2.012-1.475,3.219l-1.879,14.083
			C751.944,400.311,812.435,406.347,822.494,407.689L822.494,407.689z"/>
		<path style="fill-rule:evenodd;clip-rule:evenodd;fill:#FCD471;" d="M827.056,373.621c-38.292-5.03-69.679-6.036-70.147-2.28
			c-0.47,3.755,30.111,10.864,68.406,15.827c38.224,4.962,69.609,5.97,70.146,2.214C895.93,385.625,865.281,378.583,827.056,373.621
			L827.056,373.621z"/>
		<path style="fill-rule:evenodd;clip-rule:evenodd;fill:#FFB438;" d="M826.853,375.229c-31.384-4.091-58.209-5.498-67.061-3.755
			c14.083-0.134,38.83,1.744,66.795,5.432c28.031,3.622,52.442,8.115,65.988,11.802C884.461,384.82,858.241,379.321,826.853,375.229
			L826.853,375.229z"/>
	</g>
	<g>
		<path style="fill-rule:evenodd;clip-rule:evenodd;fill:#FFB438;" d="M407.444,870.354c12.072,0,88.658-0.133,88.658-12.81v-17.703
			c0-1.744-0.604-3.354-1.61-4.628c-1.341-1.745-11.804-0.269-14.15-0.269l-141.638-1.408c-2.481,0-17.234,0.134-18.575,2.012
			c-0.805,1.206-1.341,2.683-1.341,4.293v17.703C318.789,872.567,394.702,870.354,407.444,870.354L407.444,870.354z"/>
		<path style="fill-rule:evenodd;clip-rule:evenodd;fill:#FCD471;" d="M407.578,844.466c48.085,0,87.249-3.888,87.249-8.583
			c0-4.694-39.164-8.516-87.249-8.516c-48.083,0-87.314,3.821-87.314,8.516C320.264,840.578,359.495,844.466,407.578,844.466
			L407.578,844.466z"/>
		<path style="fill-rule:evenodd;clip-rule:evenodd;fill:#FFB438;" d="M407.578,829.445c-39.566,0-73.031,2.55-83.693,6.103
			c17.368-2.415,48.351-4.025,83.693-4.025c35.276,0,66.258,1.61,83.694,4.025C480.543,831.995,447.146,829.445,407.578,829.445
			L407.578,829.445z"/>
		<path style="fill-rule:evenodd;clip-rule:evenodd;fill:#FFB438;" d="M407.444,839.102c12.072,0,88.658-0.134,88.658-12.809
			v-17.704c0-1.745-0.604-3.353-1.61-4.629c-1.341-1.741-11.804-0.267-14.15-0.267l-141.638-1.406
			c-2.481,0-17.234,0.132-18.575,2.01c-0.805,1.207-1.341,2.684-1.341,4.292v17.704
			C318.789,841.315,394.702,839.102,407.444,839.102L407.444,839.102z"/>
		<path style="fill-rule:evenodd;clip-rule:evenodd;fill:#FCD471;" d="M407.578,813.217c48.085,0,87.249-3.892,87.249-8.584
			c0-4.694-39.164-8.518-87.249-8.518c-48.083,0-87.314,3.824-87.314,8.518C320.264,809.325,359.495,813.217,407.578,813.217
			L407.578,813.217z"/>
		<path style="fill-rule:evenodd;clip-rule:evenodd;fill:#FFB438;" d="M407.578,798.192c-39.566,0-73.031,2.55-83.693,6.104
			c17.368-2.416,48.351-4.023,83.693-4.023c35.276,0,66.258,1.608,83.694,4.023C480.543,800.742,447.146,798.192,407.578,798.192
			L407.578,798.192z"/>
		<path style="fill-rule:evenodd;clip-rule:evenodd;fill:#FFB438;" d="M407.444,807.852c12.072,0,88.658-0.135,88.658-12.809
			v-17.705c0-1.744-0.604-3.354-1.61-4.627c-1.341-1.677-11.804-0.268-14.15-0.268l-141.638-1.408
			c-2.481,0-17.234,0.132-18.575,2.012c-0.805,1.206-1.341,2.682-1.341,4.292v17.705
			C318.789,810.065,394.702,807.852,407.444,807.852L407.444,807.852z"/>
		<path style="fill-rule:evenodd;clip-rule:evenodd;fill:#FCD471;" d="M407.578,781.967c48.085,0,87.249-3.893,87.249-8.586
			c0-4.695-39.164-8.517-87.249-8.517c-48.083,0-87.314,3.821-87.314,8.517C320.264,778.074,359.495,781.967,407.578,781.967
			L407.578,781.967z"/>
		<path style="fill-rule:evenodd;clip-rule:evenodd;fill:#FFB438;" d="M407.578,766.943c-39.566,0-73.031,2.549-83.693,6.102
			c17.368-2.415,48.351-4.026,83.693-4.026c35.276,0,66.258,1.611,83.694,4.026C480.543,769.492,447.146,766.943,407.578,766.943
			L407.578,766.943z"/>
		<path style="fill-rule:evenodd;clip-rule:evenodd;fill:#FFB438;" d="M407.444,776.6c12.072,0,88.658-0.135,88.658-12.809v-17.704
			c0-1.743-0.604-3.354-1.61-4.63c-1.341-1.674-11.804-0.267-14.15-0.267l-141.638-1.406c-2.481,0-17.234,0.133-18.575,2.01
			c-0.805,1.209-1.341,2.684-1.341,4.294v17.704C318.789,778.812,394.702,776.6,407.444,776.6L407.444,776.6z"/>
		<path style="fill-rule:evenodd;clip-rule:evenodd;fill:#FCD471;" d="M407.578,750.714c48.085,0,87.249-3.89,87.249-8.584
			c0-4.694-39.164-8.518-87.249-8.518c-48.083,0-87.314,3.823-87.314,8.518C320.264,746.824,359.495,750.714,407.578,750.714
			L407.578,750.714z"/>
		<path style="fill-rule:evenodd;clip-rule:evenodd;fill:#FFB438;" d="M407.578,735.691c-39.566,0-73.031,2.549-83.693,6.102
			c17.368-2.412,48.351-4.023,83.693-4.023c35.276,0,66.258,1.61,83.694,4.023C480.543,738.24,447.146,735.691,407.578,735.691
			L407.578,735.691z"/>
		<path style="fill-rule:evenodd;clip-rule:evenodd;fill:#FFB438;" d="M426.893,742.666c12.139,0,88.657-0.067,88.657-12.74v-17.773
			c0-1.743-0.604-3.353-1.61-4.626c-1.341-1.678-11.803-0.201-14.15-0.269l-141.636-1.409c-2.481,0-17.235,0.134-18.577,2.079
			c-0.805,1.207-1.341,2.615-1.341,4.225v17.773C338.236,744.88,414.152,742.666,426.893,742.666L426.893,742.666z"/>
		<path style="fill-rule:evenodd;clip-rule:evenodd;fill:#FCD471;" d="M427.026,716.782c48.084,0,87.317-3.825,87.317-8.587
			c0-4.694-39.233-8.516-87.317-8.516c-48.083,0-87.315,3.821-87.315,8.516C339.711,712.957,378.943,716.782,427.026,716.782
			L427.026,716.782z"/>
		<path style="fill-rule:evenodd;clip-rule:evenodd;fill:#FFB438;" d="M427.026,701.759c-39.567,0-72.964,2.549-83.693,6.101
			c17.37-2.414,48.352-4.024,83.693-4.024c35.276,0,66.259,1.61,83.695,4.024C499.991,704.308,466.594,701.759,427.026,701.759
			L427.026,701.759z"/>
		<path style="fill-rule:evenodd;clip-rule:evenodd;fill:#FFB438;" d="M404.962,708.666c12.14,0,88.658-0.068,88.658-12.742v-17.772
			c0-1.677-0.604-3.285-1.609-4.562c-1.341-1.741-11.737-0.267-14.083-0.267l-141.704-1.406c-2.482-0.067-17.167,0.133-18.508,2.011
			c-0.872,1.208-1.341,2.681-1.341,4.225v17.772C316.374,710.945,392.221,708.666,404.962,708.666L404.962,708.666z"/>
		<path style="fill-rule:evenodd;clip-rule:evenodd;fill:#FCD471;" d="M405.097,682.847c48.085,0,87.316-3.892,87.316-8.583
			c0-4.695-39.232-8.518-87.316-8.518c-48.083,0-87.314,3.822-87.314,8.518C317.782,678.955,357.014,682.847,405.097,682.847
			L405.097,682.847z"/>
		<path style="fill-rule:evenodd;clip-rule:evenodd;fill:#FFB438;" d="M405.097,667.823c-39.566,0-72.963,2.549-83.693,6.104
			c17.436-2.414,48.417-4.023,83.693-4.023c35.344,0,66.325,1.609,83.695,4.023C478.061,670.372,444.665,667.823,405.097,667.823
			L405.097,667.823z"/>
		<path style="fill-rule:evenodd;clip-rule:evenodd;fill:#FFB438;" d="M368.682,671.579c11.938-2.011,87.384-14.888,85.304-27.428
			l-3.017-17.503c-0.268-1.677-1.141-3.153-2.348-4.225c-1.609-1.477-11.668,1.676-13.948,2.079L294.78,646.834
			c-2.482,0.403-16.967,3.018-17.974,5.098c-0.603,1.34-0.871,2.884-0.603,4.425l2.95,17.502
			C281.702,688.612,356.141,673.725,368.682,671.579L368.682,671.579z"/>
		<path style="fill-rule:evenodd;clip-rule:evenodd;fill:#FCD471;" d="M361.641,629.197c-47.547,8.046-85.438,18.374-84.633,23.068
			c0.738,4.628,39.97,1.876,87.449-6.238c47.548-8.046,85.438-18.373,84.701-23C448.353,618.332,409.189,621.148,361.641,629.197
			L361.641,629.197z"/>
		<path style="fill-rule:evenodd;clip-rule:evenodd;fill:#FFB438;" d="M361.976,631.275c-39.03,6.572-71.555,14.752-81.48,19.983
			c16.765-5.298,47.011-12.069,81.816-17.972c34.806-5.901,65.655-9.523,83.226-10.06
			C434.337,621.551,401.007,624.637,361.976,631.275L361.976,631.275z"/>
		<path style="fill-rule:evenodd;clip-rule:evenodd;fill:#FFB438;" d="M262.186,876.254c46.878,0,85.103-38.224,85.103-85.102
			c0-46.945-38.225-85.17-85.103-85.17c-46.943,0-85.169,38.225-85.169,85.17C177.017,838.03,215.244,876.254,262.186,876.254
			L262.186,876.254z"/>
		<path style="fill-rule:evenodd;clip-rule:evenodd;fill:#FCD471;" d="M262.186,861.232c38.628,0,70.081-31.45,70.081-70.08
			c0-38.627-31.452-70.148-70.081-70.148c-38.627,0-70.147,31.521-70.147,70.148C192.039,829.782,223.559,861.232,262.186,861.232
			L262.186,861.232z"/>
		<path style="fill-rule:evenodd;clip-rule:evenodd;fill:#FFB438;" d="M262.186,857.278c36.415,0,66.124-29.711,66.124-66.126
			c0-36.413-29.709-66.123-66.124-66.123c-36.415,0-66.123,29.71-66.123,66.123C196.064,827.567,225.771,857.278,262.186,857.278
			L262.186,857.278z"/>
		<path style="fill-rule:evenodd;clip-rule:evenodd;fill:#FCD471;" d="M254.945,829.177h15.223v-6.101
			c8.45-2.952,14.485-10.464,14.485-19.317c0-4.962-1.742-9.456-4.895-13.076c-4.091-4.829-10.528-7.981-17.704-7.981
			c-3.018,0-5.432-2.28-5.432-5.028c0-2.817,2.415-5.164,5.432-5.164c3.019,0,5.567,2.347,5.567,5.164h17.032
			c0-8.854-6.035-16.365-14.485-19.383v-7.042h-15.223v6.773c-8.988,2.749-15.358,10.53-15.358,19.718
			c0,11.533,9.993,20.722,22.466,20.722c3.019,0,5.567,2.28,5.567,5.098c0,2.815-2.549,5.029-5.567,5.029
			c-3.018,0-5.432-2.214-5.432-5.098H239.52c0,9.524,6.438,17.236,15.425,19.917V829.177z"/>
	</g>
	<g>
		<path style="fill:#FFFFFF;" d="M426.155,880.547c-2.145,1.206-4.828,0.402-6.103-1.678c-1.207-2.146-0.401-4.896,1.678-6.1
			l69.342-63.31c-0.603-1.942-0.938-4.09-0.938-6.236c0-11.535,9.322-20.921,20.922-20.921c5.366,0,10.328,2.076,14.017,5.431
			l90.201-64.449c-1.141-2.479-1.745-5.297-1.745-8.247c0-11.535,9.389-20.925,20.924-20.925c11.536,0,20.925,9.39,20.925,20.925
			c0,0.671-0.068,1.408-0.135,2.08l86.108,30.715c3.687-5.9,10.26-9.792,17.771-9.792c5.767,0,10.996,2.347,14.754,6.1
			l45.804-29.306c1.274-0.804,2.815-0.94,4.092-0.399l0,0l82.553,34.468l-3.756,12.004c-0.401,1.209,0.135-2.549,0.337-3.753
			l-80.41-33.602l-43.791,28.1c0.806,2.28,1.273,4.695,1.273,7.244c0,11.602-9.32,20.925-20.855,20.925
			c-11.602,0-20.923-9.323-20.923-20.925c0-0.873,0.066-1.742,0.134-2.683l-85.839-30.646c-3.624,6.236-10.33,10.394-18.041,10.394
			c-5.366,0-10.329-2.079-14.016-5.433l-90.201,64.448c1.073,2.549,1.677,5.298,1.677,8.247c0,11.536-9.322,20.924-20.857,20.924
			c-6.236,0-11.735-2.682-15.557-6.974L426.155,880.547z"/>
		<path style="fill-rule:evenodd;clip-rule:evenodd;fill:#A3D3BB;" d="M511.056,818.648c8.518,0,15.425-6.908,15.425-15.425
			c0-8.516-6.907-15.49-15.425-15.49c-8.516,0-15.49,6.975-15.49,15.49C495.565,811.739,502.54,818.648,511.056,818.648
			L511.056,818.648z"/>
		<path style="fill-rule:evenodd;clip-rule:evenodd;fill:#C93237;" d="M634.452,730.46c8.517,0,15.491-6.908,15.491-15.424
			c0-8.517-6.975-15.425-15.491-15.425c-8.517,0-15.426,6.907-15.426,15.425C619.026,723.552,625.935,730.46,634.452,730.46
			L634.452,730.46z"/>
		<path style="fill-rule:evenodd;clip-rule:evenodd;fill:#FCB238;" d="M759.121,774.388c8.449,0,15.424-6.975,15.424-15.492
			c0-8.516-6.975-15.424-15.424-15.424c-8.517,0-15.491,6.908-15.491,15.424C743.63,767.413,750.604,774.388,759.121,774.388
			L759.121,774.388z"/>
		<rect x="611.918" y="752.993" style="fill-rule:evenodd;clip-rule:evenodd;fill:#C93237;" width="45.134" height="132.047"/>
		<rect x="491.54" y="838.03" style="fill-rule:evenodd;clip-rule:evenodd;fill:#A3D3BB;" width="45.132" height="47.01"/>
		<rect x="737.26" y="793.566" style="fill-rule:evenodd;clip-rule:evenodd;fill:#FCB238;" width="45.131" height="91.474"/>
	</g>
	<g>
		<path style="fill:#FFFFFF;" d="M875.945,557.238c-3.758,0-6.773-3.084-6.773-6.841c0-3.757,3.016-6.774,6.773-6.774h55.326
			c0.268,0,0.469,0,0.67,0c16.298,0.203,26.692,3.69,33.531,9.121c7.443,5.901,10.463,13.613,12.004,21.931
			c0.067,0.401,0.135,0.803,0.135,1.275l0,0v81.212c0,3.754-3.018,6.771-6.771,6.771c-3.756,0-6.842-3.018-6.842-6.771v-80.676
			c-1.074-5.166-2.884-9.861-6.975-13.146c-4.628-3.688-12.34-6.035-25.215-6.169c-0.135,0.067-0.337,0.067-0.537,0.067H875.945z"/>
		<path style="fill-rule:evenodd;clip-rule:evenodd;fill:#E5E6E7;" d="M971.107,654.479L971.107,654.479
			c39.43,0,71.755,32.325,71.755,71.755v81.617c0,39.433-32.325,71.756-71.755,71.756l0,0c-39.501,0-71.826-32.323-71.826-71.756
			v-81.617C899.281,686.805,931.606,654.479,971.107,654.479L971.107,654.479z"/>
		<path style="fill-rule:evenodd;clip-rule:evenodd;fill:#D0D2D4;" d="M966.681,768.752l-67.399-11.867v-30.65
			c0-37.956,29.979-69.341,67.399-71.62V768.752z"/>
		<path style="fill-rule:evenodd;clip-rule:evenodd;fill:#D0D2D4;" d="M975.465,768.752l67.398-11.867v-30.65
			c0-37.956-29.977-69.341-67.398-71.62V768.752z"/>
		<path style="fill-rule:evenodd;clip-rule:evenodd;fill:#A6A9AB;" d="M971.107,691.162L971.107,691.162
			c4.761,0,8.649,3.958,8.649,8.718v24.209c0,4.761-3.889,8.72-8.649,8.72l0,0c-4.83,0-8.719-3.959-8.719-8.72V699.88
			C962.389,695.12,966.277,691.162,971.107,691.162L971.107,691.162z"/>
	</g>
</g>
</svg>
