<?xml version="1.0" encoding="utf-8"?>
<!-- Generator: Adobe Illustrator 27.5.0, SVG Export Plug-In . SVG Version: 6.00 Build 0)  -->
<svg version="1.1" xmlns="http://www.w3.org/2000/svg" xmlns:xlink="http://www.w3.org/1999/xlink" x="0px" y="0px"
	 viewBox="0 0 500 500" style="enable-background:new 0 0 500 500;" xml:space="preserve">
<g id="BACKGROUND">
	<rect x="0" style="fill:#FBD3FF;" width="500" height="500"/>
</g>
<g id="OBJECTS">
	<g>
		<defs>
			<rect id="SVGID_1_" x="0" width="500" height="500"/>
		</defs>
		<clipPath id="SVGID_00000106118107338676042140000001757025576476455333_">
			<use xlink:href="#SVGID_1_"  style="overflow:visible;"/>
		</clipPath>
		<path style="clip-path:url(#SVGID_00000106118107338676042140000001757025576476455333_);fill:#F5BDFF;" d="M-25.274-21.605
			v54.829C0.965,98.802,71.608,143.77,142.128,139.783c35.811-2.025,69.886-15.246,104.684-23.946s73.103-12.557,105.311,3.229
			c35.36,17.33,56.881,55.085,91.337,74.149c26.774,14.814,60.347,16.677,88.596,4.916V-21.605H-25.274z"/>
		<path style="clip-path:url(#SVGID_00000106118107338676042140000001757025576476455333_);fill:#F5BDFF;" d="M525.095,540.773
			v-53.459c-25.583-63.94-94.462-107.785-163.22-103.898c-34.917,1.974-68.141,14.865-102.069,23.347
			c-33.929,8.482-71.277,12.243-102.681-3.148c-34.477-16.898-55.46-53.709-89.055-72.297c-26.106-14.444-58.839-16.26-86.383-4.793
			v214.248H525.095z"/>
		<g style="clip-path:url(#SVGID_00000106118107338676042140000001757025576476455333_);">
			<g>
				<path style="fill:#E8B585;" d="M28.148,192.336c0,0,79.912-22.068,99.977-26.379c20.065-4.311,62.787-2.263,70.79-0.33
					c8.003,1.933-26.575,60.377-36.899,70.453c-10.324,10.076-28.215,19.292-55.055,10.797c-26.84-8.495-70.997,5.719-70.997,5.719
					S12.938,219.922,28.148,192.336z"/>
				<path style="opacity:0.5;fill:#E8B585;" d="M92.795,199.922l-7.718,0.825c0,0-12.307,19.564-29.903,24.173
					c-10.107,2.647-5.54,13.537,0.537,22.701c14.542-2.94,34.306-5.355,49.359-1.283l9.919-14.631l-3.792-20.748L92.795,199.922z"/>
				<path style="fill:#F9AE40;" d="M46.24,258.024c0,0,1.44,7.897-6.179,12.64c-7.619,4.743-142.985,33.987-142.985,33.987
					s-41.025-43.227-12.286-98.607c0,0,124.912-23.515,132.442-24.725c7.53-1.21,13.047,5.992,13.047,5.992
					S35.918,242.546,46.24,258.024z"/>
				<path style="opacity:0.5;fill:#F9AE40;" d="M13.849,236.063c-9.22,4.463-114.449,26.042-136.706,30.429
					c5.9,23.363,19.933,38.159,19.933,38.159s135.365-29.245,142.985-33.987c7.619-4.743,6.179-12.64,6.179-12.64
					c-2.987-4.478-5.579-12.292-7.758-21.126L25.02,219.587C25.02,219.587,24.234,231.037,13.849,236.063z"/>
				<g>
					<path style="fill:#579EFF;" d="M254.645,128.241L185.47,81.342c-5.426-3.679-12.807-2.262-16.486,3.164L72.64,226.611
						c-3.679,5.426-2.262,12.807,3.164,16.486l69.175,46.899c5.426,3.679,12.807,2.262,16.486-3.164l96.344-142.105
						C261.488,139.301,260.072,131.92,254.645,128.241z"/>
					<path style="fill:#FFFEFB;" d="M248.92,131.136l-15.194-10.301c-1.424-0.965-3.36-0.594-4.326,0.83l0,0
						c-0.965,1.424-2.902,1.795-4.326,0.83l-23.321-15.811c-1.424-0.965-1.795-2.902-0.83-4.325l0,0
						c0.965-1.424,0.594-3.36-0.83-4.326l-15.194-10.301c-4.268-2.894-10.128-1.769-13.022,2.499L89.731,211.397
						c-2.894,4.268-1.769,10.128,2.499,13.022l64.019,43.404c4.268,2.894,10.128,1.769,13.022-2.499l82.147-121.166
						C254.313,139.89,253.189,134.03,248.92,131.136z"/>
					
						<rect x="127.388" y="123.287" transform="matrix(0.8277 0.5612 -0.5612 0.8277 125.9648 -69.0545)" style="fill:#D2F4FB;" width="96.098" height="94.638"/>
					
						<rect x="127.388" y="168.933" transform="matrix(0.8277 0.5612 -0.5612 0.8277 125.9647 -69.0545)" style="fill:#FFFEFB;" width="96.098" height="3.346"/>
					<path style="fill:#FFFEFB;" d="M224.14,115.094l-15.164-10.281c-0.641-0.435-1.514-0.268-1.949,0.374
						c-0.435,0.641-0.268,1.514,0.374,1.949l15.164,10.281c0.641,0.435,1.514,0.267,1.949-0.374
						C224.949,116.402,224.782,115.529,224.14,115.094z"/>
					<path style="fill:#FFFEFB;" d="M123.327,260.316c-2.235,3.296-6.718,4.156-10.014,1.922c-3.296-2.235-4.156-6.718-1.922-10.014
						c2.235-3.296,6.718-4.156,10.014-1.922C124.701,252.537,125.562,257.02,123.327,260.316z"/>
					<g>
						<path style="fill:#BC3361;" d="M194.039,150.33c1.27-2.895,1.169-5.52-0.117-7.546l0.59-0.87
							c0.339-0.5,0.209-1.18-0.291-1.519l-2.836-1.923c-0.5-0.339-1.18-0.208-1.519,0.292l-0.468,0.69
							c-2.656-0.942-4.942-0.673-4.942-0.673l-5.43-3.681l-5.43-3.681c0,0-0.596-2.223-2.454-4.342l0.468-0.69
							c0.339-0.5,0.208-1.18-0.292-1.519l-2.836-1.923c-0.5-0.339-1.18-0.208-1.519,0.292l-0.59,0.87
							c-2.358-0.444-4.834,0.434-7.053,2.685c-3.235,3.282-11.466,11.329-12.132,14.916c-0.575,3.099,8.156,3.59,15.693-0.093
							c1.451-0.709,3.161-0.062,3.801,1.422c0.565,1.31,1.75,2.716,4.059,4.282c2.31,1.566,4.055,2.146,5.481,2.186
							c1.615,0.045,2.85,1.394,2.728,3.005c-0.631,8.365,3.057,16.294,5.723,14.612C187.759,165.176,192.187,154.55,194.039,150.33z
							"/>
						<g>
							<path style="fill:#E0588D;" d="M164.941,128.691c-0.521,0.769-0.32,1.814,0.448,2.335c0.768,0.521,1.814,0.32,2.335-0.448
								c0.521-0.768,0.32-1.814-0.448-2.335C166.508,127.722,165.462,127.923,164.941,128.691z"/>
							<path style="fill:#E0588D;" d="M161.271,134.105c-0.521,0.769-0.321,1.814,0.448,2.335c0.769,0.521,1.814,0.32,2.335-0.448
								c0.521-0.769,0.32-1.814-0.448-2.335C162.838,133.136,161.792,133.336,161.271,134.105z"/>
							<path style="fill:#E0588D;" d="M168.148,132.785c-0.769-0.521-1.814-0.32-2.335,0.448c-0.521,0.768-0.32,1.814,0.448,2.335
								c0.768,0.521,1.814,0.32,2.335-0.448C169.117,134.352,168.917,133.306,168.148,132.785z"/>
							<path style="fill:#E0588D;" d="M162.735,129.115c-0.769-0.521-1.814-0.32-2.335,0.448c-0.521,0.769-0.32,1.814,0.448,2.335
								c0.769,0.521,1.814,0.32,2.335-0.448C163.704,130.682,163.503,129.636,162.735,129.115z"/>
							<path style="fill:#E0588D;" d="M178.344,146.954c-0.756,1.115-2.273,1.406-3.388,0.65c-1.115-0.756-1.406-2.273-0.65-3.388
								c0.756-1.115,2.273-1.406,3.388-0.65C178.809,144.322,179.1,145.839,178.344,146.954z"/>
							<path style="fill:#E0588D;" d="M172.384,142.913c-0.756,1.115-2.273,1.406-3.388,0.65c-1.115-0.756-1.406-2.273-0.65-3.388
								c0.756-1.115,2.273-1.406,3.388-0.65C172.849,140.281,173.14,141.798,172.384,142.913z"/>
							
								<rect x="176.835" y="140.425" transform="matrix(0.8277 0.5611 -0.5611 0.8277 109.9028 -75.6458)" style="fill:#E0588D;" width="2.625" height="1.477"/>
							
								<rect x="172.486" y="137.476" transform="matrix(0.8277 0.5612 -0.5612 0.8277 107.51 -73.7167)" style="fill:#E0588D;" width="2.625" height="1.477"/>
							<g>
								<path style="fill:#E0588D;" d="M190.399,144.484l-1.398-0.948c-0.276-0.187-0.652-0.115-0.84,0.161l-0.758,1.118
									c-0.094,0.138-0.126,0.308-0.09,0.471l0.253,1.131c0.07,0.312,0.37,0.516,0.686,0.465l1.145-0.184
									c0.165-0.027,0.311-0.12,0.405-0.258l0.758-1.118C190.747,145.048,190.675,144.672,190.399,144.484z"/>
								<path style="fill:#E0588D;" d="M183.968,150.96l1.398,0.948c0.276,0.187,0.652,0.115,0.84-0.161l0.758-1.118
									c0.094-0.138,0.126-0.309,0.09-0.471l-0.253-1.131c-0.07-0.312-0.37-0.516-0.686-0.465l-1.145,0.184
									c-0.165,0.026-0.311,0.12-0.405,0.258l-0.758,1.118C183.62,150.396,183.692,150.772,183.968,150.96z"/>
								<path style="fill:#E0588D;" d="M190.421,150.937l0.948-1.398c0.187-0.276,0.115-0.652-0.161-0.84l-1.118-0.758
									c-0.138-0.094-0.308-0.126-0.471-0.09l-1.131,0.253c-0.312,0.07-0.515,0.37-0.465,0.686l0.184,1.145
									c0.026,0.165,0.12,0.311,0.258,0.404l1.118,0.758C189.858,151.286,190.234,151.213,190.421,150.937z"/>
								<path style="fill:#E0588D;" d="M183.946,144.507l-0.948,1.398c-0.187,0.276-0.115,0.652,0.161,0.84l1.118,0.758
									c0.138,0.094,0.309,0.126,0.471,0.09l1.131-0.253c0.312-0.07,0.516-0.37,0.465-0.686l-0.184-1.145
									c-0.026-0.165-0.12-0.311-0.258-0.405l-1.118-0.758C184.509,144.158,184.133,144.23,183.946,144.507z"/>
							</g>
						</g>
					</g>
					<g>
						<g>
							<path style="fill:#579EFF;" d="M158.46,176.59l-0.142-0.74l3.342-0.641c2.159-0.414,4.252,1.005,4.666,3.163
								c0.336,1.751,2.033,2.901,3.783,2.566l3.939-0.756l0.142,0.74l-3.939,0.756c-2.158,0.414-4.251-1.005-4.666-3.164
								c-0.336-1.75-2.033-2.901-3.784-2.565L158.46,176.59z"/>
						</g>
						<path style="fill:#579EFF;" d="M145.918,189.871c4.082-0.831,8.202-2.015,11.071-3.379c2.435-1.157,3.781-3.508,3.346-5.774
							l-0.902-4.699l-0.902-4.699c-0.435-2.267-2.556-3.952-5.246-4.126c-3.17-0.205-7.435,0.22-11.535,0.96
							c-7.575,1.366-14.677,4.245-12.857,13.726C130.712,191.361,138.376,191.406,145.918,189.871z"/>
						<path style="fill:#3482E0;" d="M145.353,179.456l14.216-2.728l-0.136-0.709l-0.136-0.709l-14.216,2.728
							c-0.392,0.075-0.648,0.453-0.573,0.845C144.583,179.275,144.962,179.531,145.353,179.456z"/>
					</g>
					<path style="fill:#D2F4FB;" d="M186.531,107.787l-10.059-6.82c-1.591-1.078-3.754-0.663-4.833,0.927s-0.663,3.754,0.927,4.833
						l10.059,6.819c1.591,1.078,3.754,0.663,4.833-0.927S188.121,108.865,186.531,107.787z"/>
					<path style="fill:#D2F4FB;" d="M241.44,145.014l-23.016-15.604c-1.591-1.078-3.754-0.663-4.833,0.927
						c-1.078,1.591-0.663,3.754,0.927,4.833l23.016,15.604c1.591,1.078,3.754,0.663,4.833-0.927S243.031,146.093,241.44,145.014z"/>
					<path style="fill:#AFE7FB;" d="M215.69,154.95l-10.192-6.91c-0.756-0.513-1.785-0.315-2.297,0.441
						c-0.513,0.756-0.315,1.785,0.441,2.297l10.192,6.91c0.756,0.513,1.785,0.315,2.297-0.441
						C216.643,156.491,216.446,155.462,215.69,154.95z"/>
					<path style="fill:#AFE7FB;" d="M224.94,169.29l-23.19-15.722c-0.756-0.513-1.785-0.315-2.297,0.441
						c-0.513,0.756-0.315,1.785,0.441,2.297l23.19,15.722c0.756,0.513,1.785,0.315,2.298-0.441
						C225.893,170.831,225.696,169.803,224.94,169.29z"/>
					<path style="fill:#AFE7FB;" d="M221.192,174.818l-23.19-15.722c-0.756-0.513-1.785-0.315-2.297,0.441
						c-0.513,0.756-0.315,1.785,0.441,2.297l23.19,15.722c0.756,0.513,1.785,0.315,2.297-0.441
						C222.145,176.359,221.948,175.331,221.192,174.818z"/>
					<path style="fill:#AFE7FB;" d="M210.945,175.94l-16.691-11.316c-0.756-0.513-1.785-0.315-2.297,0.441
						c-0.513,0.756-0.315,1.785,0.441,2.297l16.691,11.316c0.756,0.513,1.785,0.315,2.298-0.441
						C211.898,177.481,211.701,176.453,210.945,175.94z"/>
					<path style="fill:#AFE7FB;" d="M188.892,194.475l-10.192-6.91c-0.756-0.513-1.785-0.315-2.297,0.441
						c-0.513,0.756-0.315,1.785,0.441,2.297l10.192,6.91c0.756,0.513,1.785,0.315,2.297-0.441
						C189.846,196.017,189.648,194.988,188.892,194.475z"/>
					<path style="fill:#AFE7FB;" d="M198.142,208.816l-23.19-15.722c-0.756-0.513-1.785-0.315-2.297,0.441
						c-0.513,0.756-0.315,1.785,0.441,2.297l23.19,15.722c0.756,0.513,1.785,0.315,2.297-0.441
						C199.096,210.357,198.898,209.329,198.142,208.816z"/>
					<path style="fill:#AFE7FB;" d="M194.394,214.344l-23.19-15.722c-0.756-0.513-1.785-0.315-2.297,0.441
						c-0.513,0.756-0.315,1.785,0.441,2.297l23.19,15.722c0.756,0.513,1.785,0.315,2.297-0.441
						C195.348,215.885,195.15,214.857,194.394,214.344z"/>
					<path style="fill:#AFE7FB;" d="M184.147,215.466l-16.691-11.316c-0.756-0.513-1.785-0.315-2.297,0.441
						c-0.513,0.756-0.315,1.785,0.441,2.297l16.691,11.316c0.756,0.513,1.785,0.315,2.298-0.441
						C185.101,217.007,184.904,215.979,184.147,215.466z"/>
					<g>
						
							<rect x="99.628" y="200.665" transform="matrix(0.8277 0.5612 -0.5612 0.8277 139.9161 -30.2854)" style="fill:#D2F4FB;" width="39.298" height="24.089"/>
						<path style="fill:#AFE7FB;" d="M114.65,204.196c-1.332,1.965-4.006,2.478-5.971,1.146c-1.965-1.333-2.478-4.006-1.146-5.971
							c1.332-1.965,4.006-2.478,5.971-1.146C115.469,199.557,115.982,202.231,114.65,204.196z"/>
						<g>
							<path style="fill:#AFE7FB;" d="M132.046,212.146l-11.93-8.088c-0.544-0.369-1.285-0.227-1.654,0.317
								c-0.369,0.544-0.227,1.285,0.317,1.654l11.93,8.088c0.544,0.369,1.285,0.227,1.654-0.317
								C132.732,213.256,132.59,212.515,132.046,212.146z"/>
							<path style="fill:#AFE7FB;" d="M134.247,219.393L117.443,208c-0.544-0.369-1.285-0.227-1.654,0.317
								c-0.369,0.544-0.227,1.285,0.318,1.654l16.805,11.393c0.544,0.369,1.285,0.227,1.654-0.317
								C134.934,220.503,134.792,219.762,134.247,219.393z"/>
							<path style="fill:#AFE7FB;" d="M131.574,223.336l-16.805-11.393c-0.544-0.369-1.285-0.227-1.654,0.317
								c-0.369,0.544-0.227,1.285,0.317,1.654l16.805,11.393c0.544,0.369,1.285,0.227,1.654-0.317
								C132.261,224.445,132.119,223.705,131.574,223.336z"/>
							<path style="fill:#AFE7FB;" d="M116.715,219.016l-4.618-3.131c-0.545-0.369-1.285-0.227-1.654,0.317
								c-0.369,0.544-0.227,1.285,0.317,1.654l4.618,3.131c0.544,0.369,1.285,0.227,1.654-0.317
								C117.401,220.125,117.259,219.385,116.715,219.016z"/>
						</g>
					</g>
					<g>
						
							<rect x="137.819" y="226.557" transform="matrix(0.8277 0.5612 -0.5612 0.8277 161.0259 -47.2554)" style="fill:#D2F4FB;" width="39.298" height="24.089"/>
						<path style="fill:#AFE7FB;" d="M152.84,230.088c-1.332,1.965-4.006,2.478-5.971,1.146s-2.478-4.006-1.146-5.971
							c1.332-1.965,4.006-2.478,5.971-1.146C153.66,225.45,154.173,228.123,152.84,230.088z"/>
						<g>
							<path style="fill:#AFE7FB;" d="M170.236,238.038l-11.93-8.088c-0.544-0.369-1.285-0.227-1.654,0.317
								c-0.369,0.544-0.227,1.285,0.318,1.654l11.93,8.088c0.544,0.369,1.285,0.227,1.654-0.318
								C170.923,239.148,170.78,238.407,170.236,238.038z"/>
							<path style="fill:#AFE7FB;" d="M172.438,245.286l-16.805-11.393c-0.544-0.369-1.285-0.227-1.654,0.317
								c-0.369,0.544-0.227,1.285,0.317,1.654l16.805,11.393c0.544,0.369,1.285,0.227,1.654-0.317
								C173.124,246.395,172.982,245.655,172.438,245.286z"/>
							<path style="fill:#AFE7FB;" d="M169.765,249.228l-16.805-11.393c-0.544-0.369-1.285-0.227-1.654,0.317
								c-0.369,0.544-0.227,1.285,0.317,1.654l16.805,11.393c0.544,0.369,1.285,0.227,1.654-0.317
								C170.452,250.338,170.309,249.597,169.765,249.228z"/>
							<path style="fill:#AFE7FB;" d="M154.905,244.908l-4.618-3.131c-0.544-0.369-1.285-0.227-1.654,0.317
								c-0.369,0.544-0.227,1.285,0.318,1.654l4.618,3.131c0.544,0.369,1.285,0.227,1.654-0.317
								C155.592,246.018,155.45,245.277,154.905,244.908z"/>
						</g>
					</g>
				</g>
				<path style="fill:#E8B585;" d="M77.623,178.074c0,0,14.776-25.706,27.535-30.064c12.759-4.357,33.032-11.669,50.336-20.971
					c17.304-9.302,1.981,17.366-5.628,23.139c-7.609,5.773-18.568,5.901-21.414,16.226c-4.74,17.201-24.132,37.274-43.375,34.343
					C73.008,198.909,73.505,187.319,77.623,178.074z"/>
				<path style="fill:#E8B585;" d="M244.09,164.946c0,0,6.332,8.135,5.622,14.378c-0.71,6.242-11.132,13.586-20.334,15.352
					c-9.202,1.766-9.117,0.223-9.548-1.03c-0.431-1.253,0.532-8.825,7.25-12.595c3.688-1.662,9.949-6.162,9.949-6.162
					L244.09,164.946z"/>
				<path style="fill:#E8B585;" d="M196.381,236.394c0,0,5.251,6.746,4.662,11.923c-0.589,5.177-9.231,11.266-16.862,12.73
					c-7.631,1.464-7.56,0.185-7.918-0.854c-0.358-1.039,0.441-7.318,6.012-10.444c3.059-1.378,8.251-5.11,8.251-5.11
					L196.381,236.394z"/>
				<path style="fill:#F9D3B7;" d="M229.378,194.675c1.112-0.213,2.242-0.512,3.371-0.876c2.387-2.71,2.811-7.441-1.065-7.735
					c-3.637-0.275-8.939,2.209-11.345,3.458c-0.618,1.981-0.688,3.602-0.509,4.124C220.261,194.898,220.175,196.441,229.378,194.675
					z"/>
				<path style="fill:#F9D3B7;" d="M187.908,259.992c1.933-2.387,2.198-6.295-1.089-6.544c-3.27-0.248-8.073,2.059-10.068,3.109
					c-0.579,1.742-0.643,3.185-0.488,3.637c0.358,1.039,0.287,2.318,7.917,0.854C185.41,260.811,186.664,260.445,187.908,259.992z"
					/>
				<path style="fill:#F9D3B7;" d="M155.493,127.039c-3.095,1.664-6.286,3.261-9.511,4.792c-1.598,3.987,0.508,7.184,5.137,6.431
					c3.962-0.645,8.675-4.685,11.807-7.803C164.336,125.686,162.926,123.043,155.493,127.039z"/>
				<path style="opacity:0.5;fill:#E8B585;" d="M135.957,157.341c-1.135,0.599-11.031,5.909-12.496,9.675
					c-1.368,3.517-17.699,33.275-42.577,32.49c1.188,0.568,2.574,0.995,4.192,1.241c19.243,2.931,38.635-17.142,43.375-34.343
					C129.706,161.855,132.535,159.286,135.957,157.341z"/>
				<path style="opacity:0.5;fill:#E8B585;" d="M246.96,169.417c-1.43-2.613-2.87-4.472-2.87-4.472l-7.061,9.942l3.056-0.465
					C240.085,174.423,240.528,168.573,246.96,169.417z"/>
				<path style="opacity:0.5;fill:#E8B585;" d="M196.381,236.394l-5.855,8.244c0,0-3.176,2.281-6.024,3.936
					c7.799,2.031,13.814,0.424,16.558-0.632C201.37,242.82,196.381,236.394,196.381,236.394z"/>
				<path style="fill:#E8B585;" d="M209.312,216.243c0,0,6.332,8.135,5.622,14.378c-0.71,6.243-11.132,13.586-20.334,15.352
					c-9.202,1.766-9.117,0.223-9.548-1.03c-0.431-1.253,0.532-8.825,7.25-12.595c3.688-1.662,9.949-6.162,9.949-6.162
					L209.312,216.243z"/>
				<path style="fill:#F9D3B7;" d="M194.599,245.972c1.111-0.213,2.241-0.512,3.368-0.876c2.396-2.708,2.828-7.454-1.055-7.748
					c-3.64-0.276-8.947,2.213-11.35,3.461c-0.621,1.985-0.691,3.611-0.512,4.133C185.483,246.195,185.397,247.738,194.599,245.972z"
					/>
				<path style="opacity:0.5;fill:#E8B585;" d="M209.637,216.681c-0.283,0.097-0.566,0.197-0.848,0.299l-6.537,9.205
					c0,0-2.117,1.52-4.611,3.119c0,0,11.512,2.997,17.302,1.122C215.427,225.064,210.897,218.412,209.637,216.681z"/>
				<path style="fill:#E8B585;" d="M222.744,196.431c0,0,6.332,8.135,5.622,14.378c-0.71,6.243-11.132,13.586-20.334,15.352
					c-9.202,1.766-9.117,0.223-9.548-1.03c-0.431-1.253,0.532-8.825,7.25-12.595c3.688-1.662,9.949-6.163,9.949-6.163
					L222.744,196.431z"/>
				<path style="fill:#F9D3B7;" d="M208.031,226.161c1.141-0.219,2.301-0.525,3.458-0.902c1.922-2.755,2.016-6.823-1.569-7.095
					c-3.51-0.266-8.559,2.035-11.071,3.319c-0.487,1.762-0.53,3.169-0.365,3.648C198.915,226.383,198.829,227.926,208.031,226.161z"
					/>
				<path style="opacity:0.5;fill:#E8B585;" d="M225.4,200.518c-1.356-2.408-2.657-4.087-2.657-4.087l-7.061,9.942l3.365-0.227
					C219.048,206.146,219.285,200.767,225.4,200.518z"/>
				<path style="fill:#2B398E;" d="M63.033,183.143c0,0-8.849,13.919-5.627,33.156c3.57,21.319,14.988,28.693,14.988,28.693
					s1.133,4.537-7.078,7.278c-8.211,2.741-19.075,5.754-19.075,5.754s-32.51-22.512-17.884-69.342
					C34.203,183.119,61.287,177.621,63.033,183.143z"/>
				<path style="opacity:0.5;fill:#2B398E;" d="M72.393,244.991c0,0-8.749-5.651-13.325-21.362
					c-0.081,0.068-15.269,12.753-34.048-4.043c3.084,25.874,21.22,38.437,21.22,38.437s10.863-3.013,19.075-5.754
					C73.526,249.528,72.393,244.991,72.393,244.991z"/>
			</g>
			<g>
				<path style="fill:#F9AE40;" d="M215.042,413.626c-3.693-8.458-10.176-9.606-10.176-9.606l-66.094,1.097
					c0,0-5.806,3.349-7.348,10.838c-1.542,7.488,4.811,163.059,4.811,163.059c43.255,25.447,91.732-10.237,91.732-10.237
					S218.735,422.084,215.042,413.626z"/>
				<path style="opacity:0.5;fill:#F9AE40;" d="M166.601,588.065c-3.586-11.918-14.71-94.705-15.906-123.639
					c-1.716-41.542,17.729-49.501,17.729-49.501c-0.073-2.146-2.108-5.763-5.373-10.21l-24.28,0.403c0,0-5.806,3.349-7.348,10.837
					c-1.542,7.488,4.811,163.059,4.811,163.059C146.3,584.935,156.647,587.544,166.601,588.065z"/>
				<path style="fill:#E8B585;" d="M199.705,352.375c4.683-12.228,18.91-49.142,18.335-56.964c0,0,1.535-12.876-4.179-17.756
					c-5.714-4.881-11.258-2.395-11.258-2.395s2.112-11.478-6.184-14.777c-8.296-3.299-9.744-0.264-9.744-0.264
					s0.369-9.229-8.29-13.227c-8.659-3.998-13.807,2.702-13.807,2.702l0,0c0.217-5.33,0.339-10.85,0.204-15.273
					c-0.388-12.796,0.532-54.198-1.802-56.563c-2.335-2.365-9.16,4.291-12.645,16.315c-3.485,12.024-11.213,78.231-13.003,82.152
					c-19.806-11.916-23.694,1.925-23.694,1.925c-3.209,9.379-4.428,30.538-4.428,30.538c-0.231,14.572,16.322,36.989,30.399,46.424
					c3.081,7.92,4.848,47.511,4.848,47.511s29.23,20.81,54.274,0.393C196.577,384.485,195.023,364.603,199.705,352.375z"/>
				<path style="fill:#D69A69;" d="M164.744,249.677c0.517,2.078,0.892,4.178,1.2,6.31c0.134,1.067,0.271,2.142,0.31,3.238
					c0.059,1.095,0.016,2.244-0.045,3.309c-0.071,2.166-0.183,4.305-0.832,6.351c-0.601,2.051-1.356,4.068-2.588,5.985
					c-0.054,0.084-0.166,0.108-0.25,0.055c-0.043-0.028-0.071-0.072-0.08-0.119c-0.427-2.233-0.414-4.372-0.279-6.483
					c0.072-1.054,0.197-2.098,0.423-3.121c0.22-1.024,0.523-2.035,0.749-3.048c0.228-1.028,0.4-1.985,0.516-3.003
					c0.109-1.016,0.209-2.056,0.273-3.1c0.157-2.092,0.208-4.209,0.268-6.333c0.001-0.094,0.078-0.169,0.172-0.168
					C164.659,249.549,164.725,249.605,164.744,249.677z"/>
				<path style="fill:#D69A69;" d="M186.842,260.213c0.345,2.025,0.508,4.064,0.65,6.122c0.098,2.058,0.108,4.129-0.097,6.229
					c-0.216,2.146-0.341,4.211-1.092,6.131c-0.362,0.963-0.783,1.909-1.301,2.823c-0.508,0.916-1.086,1.81-1.857,2.633
					c-0.07,0.075-0.188,0.079-0.262,0.009c-0.033-0.031-0.052-0.071-0.057-0.113c-0.27-2.201-0.078-4.224,0.227-6.219
					c0.165-0.994,0.419-1.962,0.766-2.909c0.359-0.969,0.692-1.828,0.921-2.791c0.458-1.899,0.781-3.876,1.072-5.865
					c0.309-1.991,0.503-4.008,0.695-6.033c0.007-0.093,0.089-0.163,0.182-0.156C186.766,260.078,186.828,260.139,186.842,260.213z"
					/>
				<path style="fill:#D69A69;" d="M202.77,275.242c0.426,1.716,0.621,3.461,0.799,5.219c0.143,1.758,0.19,3.53,0.112,5.3
					c-0.071,1.764,0.089,3.606-0.537,5.3c-0.57,1.694-1.411,3.33-2.793,4.712c-0.074,0.074-0.194,0.074-0.268,0
					c-0.026-0.026-0.043-0.057-0.05-0.091l-0.003-0.011c-0.225-0.973-0.249-1.861-0.272-2.74c-0.03-0.881,0.032-1.726,0.094-2.57
					c0.115-1.68,0.808-3.255,1.156-4.919c0.347-1.658,0.632-3.336,0.88-5.03c0.274-1.694,0.435-3.409,0.548-5.134l0.001-0.007
					c0.006-0.094,0.087-0.164,0.18-0.158C202.692,275.119,202.752,275.172,202.77,275.242z"/>
				<path style="fill:#D69A69;" d="M138.437,301.138c0.346-0.538,0.717-1.092,0.807-1.723c0.073-0.507-0.044-1.012-0.156-1.503
					c-1.619-6.002,0.729-13.103-0.742-18.933c-0.749-2.97-1.122-3.977-3.688-1.315c-1.988,2.063-3.057,8.031-4.107,10.779
					c-0.264,0.689-0.531,1.402-0.516,2.132c0.02,0.936,0.499,1.764,0.911,2.58c3.406,6.733,3.157,16.735,2.561,24.469
					C134.068,312.44,135.604,305.544,138.437,301.138z"/>
				<path style="opacity:0.5;fill:#E8B585;" d="M165.411,380.111c-5.531-6.278-10.573-14.275-11.448-23.937
					c-0.875-9.662-4.028-12.366-18.866-20.159c-14.575-8.181-25.326-34.484-25.326-34.484l0,0c-0.388,4.25-0.561,7.258-0.561,7.258
					c-0.231,14.572,16.322,36.989,30.399,46.424c2.465,6.337,4.088,32.933,4.639,43.318
					C154.687,399.945,170.565,385.96,165.411,380.111z"/>
				<path style="fill:#F9D3B7;" d="M155.858,182.232c-0.448,3.434-1.33,10.444-1.513,13.69c-0.229,4.058,6.075,9.563,10.109,2.221
					c-0.139-10.696-0.515-19.311-1.475-20.283C161.616,176.479,158.723,178.191,155.858,182.232z"/>
				<path style="fill:#2B398E;" d="M196.426,367.827c0,0-7.322,12.985-26.093,12.526c-18.77-0.459-27.177-5.712-27.177-5.712
					s-3.377-0.706-4.749,7.005c-1.373,7.711,0.365,23.471,0.365,23.471s35.032,23.211,66.094-1.097
					C205.443,393.609,202.55,361.306,196.426,367.827z"/>
				<path style="opacity:0.5;fill:#2B398E;" d="M158.757,379.357l-0.021-0.008c-10.664-1.653-15.58-4.708-15.58-4.708
					s-3.377-0.706-4.749,7.005c-1.373,7.711,0.365,23.471,0.365,23.471s9.756,6.457,23.531,8.991
					C146.838,398.836,158.757,379.357,158.757,379.357z"/>
			</g>
		</g>
		<g style="clip-path:url(#SVGID_00000106118107338676042140000001757025576476455333_);">
			<g>
				<path style="fill:#4F2387;" d="M406.592,344.864c0,0,3.95-46.906,32.265-68.46c1.651,4.034,5.832,24.249-1.036,43.244
					C430.953,338.641,412.912,345.989,406.592,344.864z"/>
				<path style="fill:#E8B585;" d="M366.724,254.348c0,0-24.572-10.439-49.769-15.648c-29.645-6.129-83.975-27.884-87.004-17.145
					c-1.121,3.974,33.206,23.633,43.52,27.455c10.314,3.822,25.813,9.087,33.603,11.827c7.79,2.74,3.864,19.07,5.053,33.762
					c1.432,17.703,35.661,31.917,50.086,34.513c14.426,2.596,28.441-2.132,36.015,1.113c7.574,3.245,84.456,32.069,84.456,32.069
					s24.984-16.32,19.212-47.479c0,0-96.897-40.085-108.389-47.896C382.015,259.108,366.724,254.348,366.724,254.348z"/>
				<path style="fill:#B47EED;" d="M469.079,295.006c0,0,6.091-2.981,17.018-1.366c10.927,1.615,143.17,49.796,143.17,49.796
					s-4.183,57.863-37.893,76.53c-21.552-5.312-125.328-48.608-135.607-53.842c-5.577-5.142-7.103-13.623-7.103-13.623
					S458.978,318.206,469.079,295.006z"/>
				<path style="opacity:0.5;fill:#E8B585;" d="M437.14,324.934c0,0-15.727-0.606-21.745-5.723
					c-6.019-5.117-8.625-18.423-8.625-18.423c-7.363-1.162-30.201,2.879-30.201,2.879l3.65,25.939
					c7.341-0.498,13.713-1.222,18.01,0.619c2.815,1.206,15.21,5.948,29.671,11.429c0.422-0.338,0.742-0.648,0.915-0.916
					C430.882,337.544,437.14,324.934,437.14,324.934z"/>
				<g>
					<path style="fill:#BC3361;" d="M332.497,159.326l-77.595,31.045c-6.087,2.435-9.047,9.343-6.612,15.43l63.775,159.402
						c2.435,6.087,9.344,9.047,15.43,6.611l77.595-31.045c6.087-2.435,9.047-9.343,6.611-15.43l-63.775-159.402
						C345.492,159.851,338.584,156.891,332.497,159.326z"/>
					<path style="fill:#FFFEFB;" d="M331.689,165.69l-17.043,6.819c-1.597,0.639-2.374,2.451-1.735,4.048l0,0
						c0.639,1.597-0.138,3.41-1.735,4.048l-26.159,10.466c-1.597,0.639-3.409-0.138-4.048-1.735l0,0
						c-0.639-1.597-2.451-2.374-4.048-1.735l-17.043,6.819c-4.788,1.916-7.138,7.4-5.222,12.188l61.461,153.618
						c1.916,4.788,7.4,7.138,12.188,5.222l71.812-28.731c4.788-1.916,7.138-7.4,5.222-12.188l-61.461-153.618
						C341.961,166.125,336.477,163.775,331.689,165.69z"/>
					
						<rect x="274.768" y="203.668" transform="matrix(0.9284 -0.3715 0.3715 0.9284 -68.8857 137.6322)" style="fill:#D2F4FB;" width="96.098" height="87.918"/>
					<g>
						<g>
							<path style="fill:#FEBE10;" d="M337.48,231.432l-2.553,1.021l-2.773-6.93c-3.457-8.642-13.301-12.859-21.942-9.402
								c-8.642,3.457-12.859,13.301-9.402,21.942l2.773,6.93l-2.552,1.021l-2.773-6.931c-4.021-10.049,0.884-21.495,10.933-25.516
								c10.049-4.02,21.496,0.884,25.516,10.933L337.48,231.432z"/>
						</g>
						<path style="fill:#E86083;" d="M341.751,228.377l-22.96,9.186l-22.96,9.186c-1.786,0.715-2.535,2.836-1.589,4.512
							c3.198,5.668,10.755,17.559,21.378,24.745l15.992-6.398l15.992-6.398c2.734-12.53,0.004-26.353-1.59-32.662
							C345.542,228.682,343.538,227.662,341.751,228.377z"/>
						<path style="fill:#D8416C;" d="M315.177,238.936l6.692,16.726c0.793,1.982,3.043,2.946,5.025,2.153
							c1.982-0.793,2.946-3.042,2.153-5.024l-6.692-16.726L315.177,238.936z"/>
						<path style="fill:#FEBE10;" d="M327.425,252.467c0.509,1.271-0.11,2.714-1.381,3.223c-1.271,0.509-2.714-0.11-3.223-1.381
							c-0.509-1.271,0.11-2.714,1.381-3.223C325.473,250.578,326.916,251.196,327.425,252.467z"/>
					</g>
					<path style="fill:#D2F4FB;" d="M335.794,182.056l-27.016,10.809c-1.765,0.706-2.623,2.709-1.917,4.474
						c0.706,1.765,2.709,2.623,4.474,1.917l27.016-10.809c1.765-0.706,2.623-2.709,1.917-4.474
						C339.562,182.208,337.559,181.35,335.794,182.056z"/>
					<path style="fill:#D2F4FB;" d="M274.687,206.504l-6.188,2.476c-1.765,0.706-2.623,2.709-1.917,4.474
						c0.706,1.765,2.709,2.623,4.474,1.917l6.188-2.476c1.765-0.706,2.623-2.709,1.917-4.474
						C278.455,206.656,276.452,205.798,274.687,206.504z"/>
					<g>
						<path style="fill:#FEBE10;" d="M333.719,279.612c0.187-0.361-0.153-0.769-0.541-0.649l-2.011,0.618
							c-0.164,0.05-0.341,0.005-0.461-0.117l-1.476-1.5c-0.285-0.29-0.778-0.092-0.785,0.314l-0.034,2.104
							c-0.003,0.171-0.1,0.326-0.254,0.402l-1.882,0.94c-0.364,0.182-0.328,0.712,0.056,0.844l1.99,0.683
							c0.162,0.056,0.279,0.196,0.305,0.365l0.313,2.081c0.06,0.402,0.575,0.532,0.82,0.207l1.264-1.682
							c0.103-0.137,0.273-0.205,0.442-0.177l2.076,0.346c0.401,0.067,0.684-0.383,0.45-0.715l-1.209-1.722
							c-0.098-0.14-0.11-0.323-0.032-0.475L333.719,279.612z"/>
						<path style="fill:#FEBE10;" d="M343.76,275.595c0.188-0.361-0.152-0.769-0.541-0.649l-2.011,0.618
							c-0.164,0.05-0.341,0.005-0.461-0.117l-1.476-1.5c-0.285-0.29-0.778-0.092-0.785,0.314l-0.034,2.104
							c-0.003,0.171-0.1,0.326-0.254,0.402l-1.882,0.94c-0.364,0.182-0.328,0.712,0.056,0.843l1.99,0.683
							c0.162,0.056,0.279,0.196,0.304,0.365l0.313,2.081c0.06,0.402,0.575,0.532,0.82,0.207l1.264-1.682
							c0.103-0.137,0.273-0.205,0.442-0.177l2.076,0.346c0.401,0.067,0.684-0.383,0.45-0.715l-1.209-1.722
							c-0.098-0.14-0.11-0.323-0.032-0.475L343.76,275.595z"/>
						<path style="fill:#FEBE10;" d="M353.802,271.577c0.188-0.361-0.152-0.769-0.541-0.649l-2.011,0.618
							c-0.163,0.05-0.341,0.005-0.461-0.116l-1.476-1.5c-0.285-0.29-0.778-0.092-0.785,0.314l-0.034,2.104
							c-0.003,0.171-0.101,0.326-0.254,0.402l-1.882,0.94c-0.364,0.182-0.328,0.712,0.056,0.843l1.99,0.683
							c0.162,0.055,0.279,0.196,0.304,0.365l0.313,2.081c0.06,0.402,0.575,0.532,0.82,0.207l1.264-1.682
							c0.103-0.137,0.273-0.205,0.442-0.177l2.076,0.346c0.401,0.067,0.684-0.383,0.45-0.715l-1.209-1.722
							c-0.098-0.14-0.111-0.323-0.032-0.475L353.802,271.577z"/>
						<path style="fill:#FEBE10;" d="M363.843,267.56c0.187-0.361-0.153-0.769-0.541-0.649l-2.011,0.618
							c-0.163,0.05-0.341,0.005-0.461-0.117l-1.476-1.5c-0.285-0.29-0.778-0.092-0.785,0.314l-0.034,2.104
							c-0.003,0.171-0.1,0.326-0.253,0.402l-1.882,0.94c-0.364,0.182-0.328,0.712,0.056,0.844l1.99,0.683
							c0.162,0.056,0.279,0.196,0.305,0.365l0.313,2.081c0.06,0.402,0.575,0.532,0.82,0.207l1.264-1.682
							c0.103-0.137,0.273-0.205,0.442-0.177l2.076,0.346c0.401,0.067,0.684-0.383,0.45-0.715l-1.209-1.722
							c-0.098-0.14-0.11-0.323-0.032-0.475L363.843,267.56z"/>
						<path style="fill:#FFFEFB;" d="M373.885,263.543c0.188-0.361-0.152-0.769-0.541-0.649l-2.011,0.618
							c-0.164,0.05-0.341,0.005-0.461-0.117l-1.476-1.5c-0.285-0.29-0.778-0.092-0.785,0.314l-0.034,2.104
							c-0.003,0.171-0.1,0.326-0.253,0.402l-1.882,0.94c-0.364,0.182-0.328,0.711,0.056,0.843l1.99,0.683
							c0.162,0.056,0.279,0.196,0.305,0.365l0.313,2.081c0.06,0.402,0.575,0.532,0.819,0.207l1.264-1.682
							c0.103-0.137,0.273-0.205,0.442-0.177l2.076,0.346c0.401,0.067,0.684-0.383,0.45-0.715l-1.209-1.722
							c-0.098-0.14-0.11-0.323-0.032-0.475L373.885,263.543z"/>
					</g>
					<path style="fill:#AFE7FB;" d="M314.125,286.111l-15.104,6.043c-1.457,0.583-2.165,2.236-1.582,3.693
						c0.583,1.457,2.236,2.165,3.693,1.583l15.104-6.043c1.457-0.583,2.165-2.237,1.582-3.693
						C317.236,286.237,315.582,285.529,314.125,286.111z"/>
					<path style="fill:#AFE7FB;" d="M283.888,222.438l-10.162,4.066c-1.344,0.538-1.997,2.063-1.46,3.407l2.367,5.917
						c0.538,1.344,2.063,1.998,3.407,1.46l10.162-4.066c1.344-0.538,1.997-2.063,1.46-3.407l-2.367-5.917
						C286.757,222.553,285.232,221.9,283.888,222.438z"/>
					<g>
						<path style="fill:#FFFEFB;" d="M333.299,208.006c-0.303,0.016-0.582,0.02-0.838,0.014c-0.256-0.007-0.489-0.045-0.699-0.116
							c-0.211-0.07-0.397-0.18-0.559-0.329c-0.162-0.15-0.296-0.358-0.402-0.624c-0.165-0.412-0.176-0.81-0.035-1.193
							c0.142-0.383,0.428-0.721,0.859-1.013l-0.294-0.736c0.05-0.034,0.129-0.083,0.236-0.147c0.108-0.064,0.223-0.121,0.344-0.169
							c0.236-0.094,0.437-0.127,0.603-0.099c0.166,0.028,0.303,0.176,0.409,0.442l0.047,0.118c0.394-0.101,0.735-0.125,1.02-0.07
							c0.285,0.054,0.479,0.209,0.581,0.463c0.063,0.157,0.081,0.307,0.053,0.448c-0.029,0.141-0.078,0.272-0.15,0.392
							c-0.167-0.032-0.376-0.034-0.625-0.008c-0.249,0.026-0.508,0.092-0.774,0.199c-0.273,0.109-0.457,0.227-0.554,0.354
							c-0.097,0.127-0.122,0.247-0.076,0.363c0.036,0.091,0.105,0.149,0.207,0.175c0.102,0.026,0.241,0.032,0.418,0.017l0.543-0.038
							c0.642-0.046,1.172,0.01,1.591,0.17c0.418,0.16,0.724,0.481,0.918,0.966c0.165,0.412,0.175,0.814,0.029,1.205
							c-0.146,0.392-0.449,0.74-0.91,1.044l0.291,0.727c-0.05,0.034-0.129,0.083-0.237,0.147c-0.107,0.064-0.222,0.121-0.343,0.169
							c-0.236,0.094-0.437,0.128-0.603,0.099c-0.167-0.028-0.303-0.176-0.409-0.442l-0.036-0.091
							c-0.228,0.063-0.442,0.103-0.642,0.12c-0.2,0.017-0.383,0.009-0.546-0.024c-0.164-0.033-0.306-0.092-0.425-0.178
							c-0.118-0.086-0.207-0.202-0.265-0.347c-0.07-0.176-0.079-0.346-0.025-0.512c0.053-0.165,0.127-0.305,0.221-0.42
							c0.223,0.066,0.476,0.098,0.761,0.096c0.284-0.001,0.571-0.06,0.862-0.176c0.297-0.119,0.488-0.247,0.573-0.387
							s0.103-0.269,0.055-0.391c-0.049-0.121-0.134-0.194-0.257-0.219c-0.122-0.025-0.283-0.033-0.483-0.023L333.299,208.006z"/>
						<path style="fill:#FFFEFB;" d="M337.044,202.481c0.345-0.138,0.669-0.217,0.97-0.235c0.302-0.019,0.577,0.01,0.825,0.086
							c0.248,0.077,0.462,0.198,0.642,0.365c0.179,0.167,0.316,0.369,0.41,0.605c0.255,0.636,0.137,1.386-0.354,2.25l-0.809,1.431
							l2.181-0.872c0.064,0.052,0.132,0.123,0.207,0.212c0.074,0.09,0.136,0.195,0.184,0.316c0.087,0.218,0.102,0.393,0.042,0.526
							c-0.059,0.133-0.168,0.231-0.325,0.294l-3.153,1.261c-0.17-0.037-0.321-0.112-0.453-0.224
							c-0.133-0.112-0.238-0.265-0.316-0.459c-0.082-0.206-0.11-0.397-0.082-0.573c0.028-0.176,0.077-0.327,0.145-0.454l0.825-1.574
							c0.104-0.196,0.186-0.368,0.247-0.515c0.061-0.147,0.106-0.276,0.135-0.386c0.03-0.11,0.044-0.207,0.041-0.291
							c-0.002-0.083-0.015-0.158-0.042-0.225c-0.068-0.169-0.196-0.273-0.382-0.311c-0.187-0.037-0.39-0.013-0.608,0.074
							c-0.243,0.097-0.443,0.221-0.604,0.374s-0.287,0.296-0.381,0.432c-0.133-0.032-0.254-0.088-0.364-0.171
							c-0.11-0.082-0.194-0.196-0.253-0.342c-0.126-0.315-0.071-0.609,0.164-0.882C336.173,202.919,336.541,202.682,337.044,202.481
							z"/>
						<path style="fill:#FFFEFB;" d="M345.944,202.282c0.187,0.467,0.292,0.906,0.317,1.317c0.024,0.412-0.023,0.784-0.139,1.115
							c-0.117,0.331-0.3,0.62-0.549,0.868c-0.249,0.247-0.549,0.441-0.9,0.581c-0.357,0.143-0.711,0.211-1.062,0.204
							c-0.35-0.007-0.683-0.09-0.995-0.25c-0.313-0.159-0.602-0.397-0.865-0.713c-0.264-0.316-0.489-0.707-0.676-1.174
							c-0.187-0.466-0.293-0.904-0.319-1.311c-0.027-0.407,0.019-0.777,0.136-1.108c0.116-0.331,0.3-0.621,0.548-0.868
							c0.249-0.247,0.552-0.442,0.909-0.585c0.351-0.141,0.703-0.207,1.053-0.2c0.351,0.007,0.683,0.09,0.996,0.25
							c0.313,0.159,0.602,0.395,0.868,0.707C345.532,201.427,345.758,201.816,345.944,202.282z M344.391,202.904
							c-0.213-0.533-0.455-0.914-0.726-1.143c-0.271-0.229-0.549-0.287-0.833-0.173c-0.285,0.114-0.443,0.346-0.475,0.696
							c-0.032,0.35,0.059,0.791,0.272,1.325c0.213,0.533,0.453,0.917,0.719,1.151c0.266,0.234,0.541,0.294,0.826,0.18
							c0.285-0.114,0.446-0.348,0.483-0.704C344.693,203.881,344.604,203.437,344.391,202.904z"/>
						<path style="fill:#FFFEFB;" d="M351.45,200.08c0.187,0.467,0.292,0.906,0.317,1.317c0.024,0.412-0.023,0.784-0.139,1.115
							c-0.117,0.331-0.3,0.62-0.549,0.868c-0.249,0.247-0.549,0.441-0.9,0.582c-0.357,0.143-0.711,0.211-1.062,0.204
							c-0.35-0.007-0.683-0.09-0.996-0.25c-0.313-0.159-0.602-0.397-0.865-0.713c-0.264-0.316-0.489-0.707-0.676-1.174
							c-0.187-0.467-0.293-0.904-0.319-1.311c-0.027-0.407,0.019-0.777,0.136-1.108c0.116-0.331,0.3-0.621,0.548-0.868
							c0.249-0.247,0.552-0.442,0.909-0.585c0.351-0.141,0.703-0.207,1.053-0.2c0.351,0.007,0.683,0.09,0.996,0.25
							c0.313,0.159,0.602,0.395,0.868,0.707C351.037,199.224,351.263,199.613,351.45,200.08z M349.896,200.701
							c-0.213-0.533-0.455-0.914-0.726-1.143c-0.271-0.229-0.549-0.287-0.833-0.173c-0.285,0.114-0.443,0.346-0.475,0.696
							c-0.032,0.35,0.059,0.792,0.272,1.325s0.453,0.917,0.719,1.151c0.266,0.234,0.541,0.294,0.826,0.18
							c0.285-0.114,0.446-0.349,0.483-0.704C350.198,201.678,350.11,201.234,349.896,200.701z"/>
					</g>
					<path style="fill:#FFFEFB;" d="M362.047,239.76l-3.956-1.695c-0.295-0.127-0.637,0.01-0.764,0.305
						c-0.127,0.295,0.01,0.637,0.306,0.764l3.956,1.695c0.055,0.023,0.081,0.064,0.093,0.095c0.012,0.03,0.022,0.078-0.002,0.133
						l-1.695,3.956c-0.126,0.295,0.01,0.637,0.306,0.764c0.148,0.063,0.307,0.061,0.445,0.005c0.138-0.055,0.255-0.163,0.318-0.311
						l1.695-3.955c0.141-0.328,0.145-0.691,0.012-1.023C362.628,240.16,362.375,239.9,362.047,239.76z"/>
					<path style="fill:#FFFEFB;" d="M287.321,264.824l1.695-3.955c0.126-0.295,0.468-0.432,0.764-0.306
						c0.295,0.126,0.432,0.469,0.305,0.764l-1.695,3.956c-0.024,0.055-0.014,0.102-0.002,0.133c0.012,0.03,0.038,0.072,0.093,0.095
						l3.955,1.695c0.295,0.127,0.432,0.469,0.305,0.764c-0.063,0.148-0.18,0.256-0.319,0.311c-0.138,0.055-0.297,0.058-0.445-0.006
						l-3.955-1.695c-0.328-0.141-0.582-0.401-0.715-0.732C287.176,265.515,287.18,265.152,287.321,264.824z"/>
					<path style="fill:#FFFEFB;" d="M304.521,177.236l-17.01,6.806c-0.72,0.288-1.07,1.105-0.782,1.824
						c0.288,0.72,1.105,1.07,1.824,0.782l17.01-6.805c0.72-0.288,1.069-1.105,0.781-1.824
						C306.058,177.298,305.241,176.948,304.521,177.236z"/>
					<path style="fill:#FEBE10;" d="M325.707,312.719c1.847,4.617-0.398,9.857-5.015,11.704c-4.617,1.847-9.857-0.398-11.704-5.015
						c-1.847-4.617,0.398-9.857,5.015-11.704C318.62,305.856,323.86,308.102,325.707,312.719z"/>
					<g>
						<path style="fill:#D2F4FB;" d="M357.547,294.969l-24.025,9.612c-1.115,0.446-2.382-0.096-2.828-1.212l0,0
							c-0.446-1.115,0.096-2.382,1.212-2.828l24.025-9.612c1.116-0.446,2.382,0.096,2.828,1.212l0,0
							C359.205,293.256,358.663,294.522,357.547,294.969z"/>
						<path style="fill:#D2F4FB;" d="M381.248,293.641l-44.914,17.969c-1.116,0.446-2.382-0.096-2.828-1.212l0,0
							c-0.446-1.116,0.096-2.382,1.212-2.828l44.914-17.969c1.116-0.446,2.382,0.096,2.828,1.212l0,0
							C382.906,291.928,382.364,293.194,381.248,293.641z"/>
						<path style="fill:#D2F4FB;" d="M375.303,304.174l-36.157,14.466c-1.116,0.446-2.382-0.096-2.828-1.212l0,0
							c-0.446-1.116,0.096-2.382,1.212-2.828l36.157-14.466c1.115-0.446,2.382,0.096,2.828,1.212l0,0
							C376.961,302.461,376.419,303.727,375.303,304.174z"/>
					</g>
					<path style="fill:#FEBE10;" d="M336.122,338.751c1.847,4.617-0.398,9.857-5.015,11.704c-4.617,1.847-9.857-0.398-11.704-5.015
						c-1.847-4.617,0.398-9.857,5.015-11.704C329.035,331.888,334.275,334.134,336.122,338.751z"/>
					<g>
						<path style="fill:#D2F4FB;" d="M367.962,321l-24.025,9.612c-1.116,0.446-2.382-0.096-2.828-1.212l0,0
							c-0.446-1.116,0.096-2.382,1.212-2.828l24.025-9.612c1.115-0.446,2.382,0.096,2.828,1.212l0,0
							C369.62,319.288,369.078,320.554,367.962,321z"/>
						<path style="fill:#D2F4FB;" d="M391.663,319.673l-44.914,17.97c-1.115,0.446-2.382-0.096-2.828-1.212l0,0
							c-0.446-1.116,0.096-2.382,1.212-2.828l44.914-17.969c1.116-0.446,2.382,0.096,2.828,1.212l0,0
							C393.321,317.96,392.779,319.226,391.663,319.673z"/>
						<path style="fill:#D2F4FB;" d="M385.718,330.206l-36.157,14.466c-1.115,0.446-2.382-0.096-2.828-1.212l0,0
							c-0.446-1.116,0.096-2.382,1.212-2.828l36.157-14.466c1.116-0.446,2.382,0.096,2.828,1.212l0,0
							C387.376,328.493,386.834,329.759,385.718,330.206z"/>
					</g>
				</g>
				<path style="fill:#E8B585;" d="M269.699,259.242c0,0-13.922,6.763-14.058,14.373c-0.137,7.61,16.731,19.95,38.19,16.932
					c3.702-4.663-10.462-15.219-18.639-17.575C273.667,269.161,269.699,259.242,269.699,259.242z"/>
				<path style="fill:#E8B585;" d="M277.667,279.156c0,0-13.922,6.763-14.058,14.373c-0.137,7.61,16.731,19.95,38.19,16.932
					c3.702-4.663-10.462-15.219-18.639-17.575C281.635,289.076,277.667,279.156,277.667,279.156z"/>
				<path style="fill:#E8B585;" d="M286.797,303.545c0,0-11.455,5.565-11.568,11.827c-0.112,6.262,13.767,16.416,31.425,13.932
					c3.046-3.836-8.608-12.523-15.337-14.461C290.062,311.707,286.797,303.545,286.797,303.545z"/>
				<path style="fill:#E8B585;" d="M416.436,268.851c-1.176-2.038-2.323-3.958-3.214-5.643
					c-8.614-16.286-20.579-28.358-37.508-36.204c-21.573-9.998-30.689-27.089-33.968-24.511c-3.279,2.578-5.404,15.576,6.732,27.765
					c5.497,5.521,16.024,10.8,19.148,18.21c1.811,4.296-0.108,8.971-0.155,13.425c-0.115,10.826,4.852,21.409,12.836,28.849
					c7.445,6.938,22.746,15.574,32.698,9.146c4.528-2.925,9.472-10.879,9.258-16.323
					C422.083,279.006,419.181,273.607,416.436,268.851z"/>
				<path style="fill:#BC3361;" d="M341.746,202.493c-1.089,0.857-2.047,2.867-2.401,5.612c1.267,2.241,4.345,7.33,7.771,10.384
					c3.65,3.252,9.905,0.392,10.07-3.592C348.42,207.365,343.863,200.829,341.746,202.493z"/>
				<path style="fill:#BC3361;" d="M292.294,284.234c-2.775-1.055-7.704-2.637-10.417-1.762c-3.283,1.058-3.653,5.529-1.103,8.091
					c4.06,0.568,8.451,0.632,13.057-0.016C295.102,288.947,294.268,286.653,292.294,284.234z"/>
				<path style="fill:#BC3361;" d="M299.671,303.459c-2.84-0.997-6.9-2.11-9.271-1.345c-3.458,1.114-3.692,6.019-0.677,8.487
					c3.784,0.447,7.838,0.457,12.075-0.139C303.189,308.71,302.059,306.127,299.671,303.459z"/>
				<path style="fill:#BC3361;" d="M306.608,325.936c-2.194-1.392-6.255-3.686-8.789-3.4c-2.984,0.337-4.098,4.048-2.435,6.702
					c3.486,0.538,7.28,0.627,11.27,0.066C307.371,328.401,307.266,327.226,306.608,325.936z"/>
				<path style="opacity:0.5;fill:#E8B585;" d="M391.35,293.273c-8.02-6.733-17.194-14.769-18.679-25.774
					c-0.517-3.832-0.391-7.694-0.48-11.548c-0.055-2.385,0.056-5.411-1.375-7.467c-3.628-5.215-11.599-9.609-11.599-9.609l0,0.002
					c3.601,2.874,6.886,5.978,8.409,9.59c1.811,4.297-0.108,8.971-0.155,13.425c-0.114,10.826,4.852,21.409,12.836,28.848
					c7.445,6.938,22.746,15.574,32.697,9.147c0.161-0.104,0.324-0.228,0.486-0.345C405.448,300.271,397.776,298.669,391.35,293.273z
					"/>
				<path style="opacity:0.5;fill:#B47EED;" d="M472.818,355.992c-9.866-6.302-10.223-21.813-10.223-21.813l-11.193,9.542
					c-1.715,5.379-2.738,8.78-2.738,8.78s1.526,8.481,7.103,13.623c10.279,5.234,114.055,48.53,135.607,53.842
					c6.988-3.869,12.703-9.425,17.379-15.798C578.476,405.123,481.621,361.615,472.818,355.992z"/>
				<path style="fill:#913FD8;" d="M406.592,344.864c0,0,37.884-8.914,32.265-68.46l30.221,18.603c0,0,4.512,36.524-20.415,57.494
					C433.334,351.887,406.592,344.864,406.592,344.864z"/>
				<path style="opacity:0.5;fill:#913FD8;" d="M462.595,334.179c-6.32,2.102-13.879,4.174-18.103,2.499
					c-8.102-3.213-11.711-15.634-11.711-15.634c-9.594,19.908-26.189,23.82-26.189,23.82s26.741,7.023,42.072,7.637
					C455.056,347.124,459.502,340.723,462.595,334.179z"/>
			</g>
			<g>
				<path style="fill:#4F2387;" d="M281.862,469.716c0,0,41.237-9.069,67.222,9.469c-3.018,2.486-19.228,11.435-37.325,10.593
					C293.661,488.935,282.576,475.429,281.862,469.716z"/>
				<path style="fill:#E8B585;" d="M369.399,373.129c-2.46,6.813-4.927,19.295-11.834,23.331c-0.912,0.533-2.133,0.677-2.998,0.071
					c-0.781-0.547-1.09-1.54-1.316-2.467c-0.904-3.707-1.563-7.562-2.062-11.496c-1.473-11.595-1.566-23.879-2.489-35.085
					c-1.181-14.352-1.225-29.71-4.603-43.768c-2.794-11.628-9.013-18.282-11.346-16.128c-2.332,2.154-4.043,41.468-4.979,53.662
					c-0.324,4.215-0.451,9.488-0.48,14.584c0,0-4.617-6.621-13.057-3.189c-8.44,3.432-8.495,12.256-8.495,12.256
					s-1.248-2.961-9.31-0.179c-8.063,2.782-6.555,13.828-6.555,13.828s-5.181-2.617-10.85,1.788
					c-5.668,4.405-4.773,16.76-4.773,16.76c-0.895,7.439,9.784,52.93,13.713,64.806c3.928,11.876-0.137,72.555-3.015,90.241
					c22.997,20.591,51.81,2.023,51.81,2.023s5.139-79.479,8.429-86.901c13.85-8.382,30.637-29.043,31.06-42.959
					c0,0,7.628-44.475,11.92-65.417C386.137,354.898,373.752,361.075,369.399,373.129z"/>
				<path style="fill:#BC3361;" d="M341.091,305.253c0.638-2.154-0.131-7.721-0.799-11.6c-2.811-5.083-6.01-7.478-7.54-6.065
					c-1.012,0.935-1.907,8.871-2.673,18.55C333.661,310.213,340.261,308.058,341.091,305.253z"/>
				<path style="fill:#BC3361;" d="M382.525,358.448c-1.011,3.226-2.664,9.047-2.846,13.146c-0.209,4.722,1.966,5.81,4.832,5.807
					c1.261-6.54,2.531-13.005,3.66-18.51C387.412,357.401,385.211,357.329,382.525,358.448z"/>
				<path style="fill:#D69A69;" d="M327.454,355.816l0.501,7.043c0.169,2.341,0.33,4.682,0.54,6.991
					c0.135,1.153,0.292,2.28,0.555,3.348c0.252,1.097,0.456,2.216,0.584,3.362c0.23,2.301,0.422,4.637,0.142,7.139
					c-0.01,0.092-0.098,0.163-0.195,0.159c-0.053-0.002-0.099-0.027-0.127-0.063c-0.772-0.993-1.347-2.052-1.847-3.137
					c-0.51-1.083-0.899-2.205-1.244-3.346c-0.326-1.146-0.528-2.33-0.581-3.554c-0.036-1.255,0.008-2.478,0.054-3.675
					c0.065-2.395,0.237-4.769,0.457-7.144c0.254-2.375,0.484-4.743,0.83-7.114c0.012-0.086,0.097-0.151,0.188-0.145
					C327.39,355.686,327.449,355.744,327.454,355.816z"/>
				<path style="fill:#D69A69;" d="M305.909,364.891c0.405,2.395,0.767,4.788,1.213,7.165c0.419,2.379,0.845,4.751,1.327,7.09
					c0.269,1.163,0.555,2.322,0.911,3.439c0.323,1.135,0.619,2.192,0.857,3.372c0.492,2.307,0.778,4.647,1.314,7.007l-0.238,0.238
					c-1.2-0.746-1.947-1.83-2.639-2.902c-0.682-1.084-1.203-2.233-1.665-3.392c-0.432-1.142-0.771-2.422-0.895-3.664
					c-0.128-1.252-0.218-2.483-0.31-3.711c-0.214-2.447-0.308-4.885-0.338-7.322c0.003-2.439-0.004-4.869,0.127-7.303
					L305.909,364.891z"/>
				<path style="fill:#D69A69;" d="M290.044,378.543l1.012,6.046c0.339,2.007,0.67,4.013,1.046,5.982
					c0.194,0.979,0.453,1.957,0.746,2.866c0.273,0.875,0.537,1.782,0.747,2.736c0.4,1.906,0.811,3.836,0.973,6.036l0.001,0.007
					c0.008,0.101-0.069,0.19-0.17,0.197c-0.045,0.003-0.087-0.01-0.121-0.034c-0.928-0.666-1.652-1.485-2.284-2.357
					c-0.641-0.87-1.165-1.812-1.595-2.798c-0.424-0.98-0.719-2.035-0.823-3.161c-0.095-1.09-0.09-2.134-0.147-3.174
					c-0.106-2.074-0.102-4.128-0.051-6.183c0.084-2.055,0.147-4.101,0.33-6.15c0.008-0.093,0.091-0.162,0.184-0.154
					C289.97,378.409,290.031,378.468,290.044,378.543z"/>
				<path style="fill:#D69A69;" d="M366.563,381.934c0,0,0-0.001,0-0.001c-1.949,5.833-4.552,11.93-8.998,14.527
					c-0.912,0.533-2.133,0.677-2.998,0.071c-0.781-0.547-1.09-1.54-1.316-2.467c-0.904-3.707-1.563-7.562-2.062-11.496
					c-0.527-4.148-0.874-8.385-1.149-12.629c0,0-0.003-0.001-0.003-0.001s-1.589,33.576,2.438,36.241
					C356.502,408.844,367.3,388.452,366.563,381.934z"/>
				<path style="opacity:0.5;fill:#E8B585;" d="M332.826,464.292c-1.416,7.195,4.22,16.104-12.631,27.827
					c-10.265,7.142,6.023,10.573,20.323,12.165c1.533-17.606,3.27-33.855,4.673-37.017c13.85-8.382,30.636-29.043,31.06-42.959
					c0,0,2.59-16.881,4.434-26.74C380.682,397.583,371.157,444.815,332.826,464.292z"/>
				<path style="fill:#B47EED;" d="M341.169,510.016c0,0,4.171,4.427,5.688,14.218c1.518,9.791-5.557,109.089-5.557,109.089
					s-50.742,17.164-75.685-6.762c-1.171-19.875,9.332-98.874,11.088-109.07c2.925-6.143,9.786-9.702,9.786-9.702
					S318.61,507.521,341.169,510.016z"/>
				<path style="opacity:0.5;fill:#B47EED;" d="M329.369,508.992c-2.072,1.633-3.377,3.43-3.327,5.363c0,0,9.265,8.779,7.162,22.963
					c-1.411,9.521-14.396,85.116-20.725,101.622c15.957-1.267,28.821-5.617,28.821-5.617s7.074-99.299,5.557-109.089
					c-1.517-9.791-5.688-14.218-5.688-14.218C337.435,509.603,333.438,509.267,329.369,508.992z"/>
				<path style="fill:#913FD8;" d="M281.862,469.716c0,0,17.696,30.091,67.222,9.469l-7.915,30.832c0,0-30.095,13.563-54.68-2.227
					C282.945,494.492,281.862,469.716,281.862,469.716z"/>
				<path style="opacity:0.5;fill:#913FD8;" d="M324.269,485.991c1.927,3.641,7.444,16.293,1.773,28.363
					c8.987-1.58,15.127-4.338,15.127-4.338l7.915-30.832C339.701,483.091,331.463,485.175,324.269,485.991z"/>
			</g>
		</g>
	</g>
	<g>
		<path style="fill:#579EFF;" d="M340.525,109.099h-49.002c-2.081,0-3.767,1.687-3.767,3.767v37.602
			c0,1.142,0.926,2.068,2.068,2.068h50.702c2.081,0,3.767-1.687,3.767-3.767v-35.902
			C344.292,110.786,342.606,109.099,340.525,109.099z"/>
		<g>
			<path style="fill:#FFFFFF;" d="M332.491,124.723c1.426,0,2.445,1.379,2.026,2.743l-3.417,11.118
				c-0.273,0.89-1.095,1.497-2.026,1.497h-16.569c-0.931,0-1.753-0.607-2.026-1.497l-4.26-13.861H332.491z"/>
			<g>
				<path style="fill:#FFFFFF;" d="M308.84,130.695c0.106,0,0.214-0.019,0.319-0.06c0.456-0.176,0.683-0.688,0.507-1.144
					l-3.747-9.719c-0.965-2.503-3.415-4.185-6.098-4.185h-5.282c-0.489,0-0.885,0.396-0.885,0.885s0.396,0.885,0.885,0.885h5.282
					c1.956,0,3.743,1.226,4.447,3.051l3.747,9.719C308.15,130.479,308.486,130.695,308.84,130.695z"/>
			</g>
			<path style="fill:#FFFFFF;" d="M312.433,144.303c0,1.352,1.096,2.449,2.449,2.449c1.352,0,2.449-1.096,2.449-2.449
				c0-1.352-1.096-2.449-2.449-2.449C313.529,141.855,312.433,142.951,312.433,144.303z"/>
			<path style="fill:#FFFFFF;" d="M323.993,144.303c0,1.352,1.096,2.449,2.449,2.449c1.352,0,2.449-1.096,2.449-2.449
				c0-1.352-1.096-2.449-2.449-2.449C325.09,141.855,323.993,142.951,323.993,144.303z"/>
		</g>
		<path style="fill:#579EFF;" d="M287.756,150.343v15.607l19.837-13.944C307.593,152.005,289.679,148.552,287.756,150.343z"/>
	</g>
	<g>
		<path style="fill:#F9AE40;" d="M449.019,381.047h-40.47c-2.28,0-4.129,1.848-4.129,4.129v24.119c0,2.28,1.848,4.129,4.129,4.129
			h40.47c2.28,0,4.129-1.848,4.129-4.129v-24.119C453.148,382.895,451.299,381.047,449.019,381.047z"/>
		<path style="fill:#FFFFFF;" d="M438.229,395.941l-16.031-7.277c-0.94-0.427-2.007,0.261-2.007,1.293v14.553
			c0,1.033,1.067,1.72,2.007,1.293l16.031-7.277C439.34,398.024,439.34,396.446,438.229,395.941z"/>
	</g>
	<g>
		<circle style="fill:#913FD8;" cx="101.471" cy="311.638" r="31.614"/>
		<g>
			<path style="fill:#FFFFFF;" d="M97.565,304.357l18.038-8.188c1.633-0.741,3.486,0.453,3.486,2.246v25.273
				c0,1.793-1.853,2.987-3.486,2.246l-18.038-8.188c-0.335-0.152-0.55-0.485-0.55-0.853V305.21
				C97.016,304.842,97.231,304.509,97.565,304.357z"/>
			<path style="fill:#FFFFFF;" d="M91.316,312.392l1.01,12.032c0.085,1.012-0.974,1.724-1.879,1.264l-1.595-0.81
				c-0.435-0.221-0.709-0.667-0.709-1.155v-11.689L91.316,312.392z"/>
			<path style="fill:#FFFFFF;" d="M88.634,304.735h5.73c0.332,0,0.602,0.269,0.602,0.602v11.361c0,0.332-0.269,0.602-0.602,0.602
				h-5.73c-2.173,0-3.935-1.762-3.935-3.935v-4.694C84.7,306.497,86.461,304.735,88.634,304.735z"/>
		</g>
		<polygon style="fill:#913FD8;" points="101.471,284.541 122.349,266.358 121.367,290.651 		"/>
	</g>
	<g>
		<path style="fill:#FFFFFF;" d="M130.548,65.406H45.7c-4.301,0-7.788,3.487-7.788,7.788v44.009c0,4.301,3.487,7.788,7.788,7.788
			h84.848c4.301,0,7.788-3.487,7.788-7.788V73.194C138.336,68.893,134.85,65.406,130.548,65.406z"/>
		<g>
			<rect x="50.653" y="112.168" style="fill:#86C2E0;" width="74.086" height="3.118"/>
			<rect x="54.546" y="84.312" style="fill:#579EFF;" width="7.752" height="27.856"/>
			<rect x="69.234" y="95.587" style="fill:#BC3361;" width="7.753" height="16.58"/>
			<rect x="83.923" y="73.9" style="fill:#F9AE40;" width="7.753" height="38.268"/>
			<rect x="98.612" y="89.358" style="fill:#579EFF;" width="7.752" height="22.809"/>
			<rect x="113.301" y="79.007" style="fill:#BC3361;" width="7.752" height="33.16"/>
		</g>
		<polygon style="fill:#FFFFFF;" points="138.336,117.203 138.336,143.736 100.869,124.991 		"/>
	</g>
	<g>
		<path style="fill:#E86083;" d="M447.741,172.968h-70.373c-3.491,0-6.322,2.83-6.322,6.322v29.092c0,3.491,2.83,6.322,6.322,6.322
			h70.373c3.491,0,6.322-2.83,6.322-6.322v-29.092C454.062,175.798,451.232,172.968,447.741,172.968z"/>
		<rect x="377.615" y="180.944" style="fill:#FFA6BF;" width="26.936" height="19.672"/>
		<path style="fill:#FFA6BF;" d="M445.492,180.944h-33.417c-1.421,0-2.573,1.152-2.573,2.573s1.152,2.573,2.573,2.573h33.417
			c1.421,0,2.573-1.152,2.573-2.573S446.913,180.944,445.492,180.944z"/>
		<path style="fill:#FFA6BF;" d="M445.492,190.78h-33.417c-1.421,0-2.573,1.152-2.573,2.573c0,1.421,1.152,2.573,2.573,2.573h33.417
			c1.421,0,2.573-1.152,2.573-2.573C448.065,191.932,446.913,190.78,445.492,190.78z"/>
		<path style="fill:#FFA6BF;" d="M445.492,200.616h-33.417c-1.421,0-2.573,1.152-2.573,2.573c0,1.421,1.152,2.573,2.573,2.573
			h33.417c1.421,0,2.573-1.152,2.573-2.573C448.065,201.768,446.913,200.616,445.492,200.616z"/>
		<polygon style="fill:#E86083;" points="371.046,208.382 371.046,233.558 399.297,213.579 		"/>
	</g>
	<g>
		
			<ellipse transform="matrix(0.7071 -0.7071 0.7071 0.7071 6.8258 130.534)" style="fill:#E86083;" cx="160.981" cy="57.028" rx="17.34" ry="17.34"/>
		<path style="fill:#FFFFFF;" d="M170.277,50.927c-5.321-5.052-9.295,2.346-9.295,2.346s-3.974-7.398-9.295-2.346
			c-5.593,5.31,9.295,16.452,9.295,16.452S175.869,56.237,170.277,50.927z"/>
	</g>
	<g>
		
			<ellipse transform="matrix(0.7071 -0.7071 0.7071 0.7071 -158.2804 268.7908)" style="fill:#579EFF;" cx="245.319" cy="325.457" rx="17.34" ry="17.34"/>
		<path style="fill:#FFFFFF;" d="M254.614,319.357c-5.321-5.052-9.295,2.346-9.295,2.346s-3.974-7.398-9.295-2.346
			c-5.592,5.31,9.295,16.452,9.295,16.452S260.207,324.667,254.614,319.357z"/>
	</g>
	<g>
		<path style="fill:#E86083;" d="M94.818,368.774H57.615c-2.523,0-4.569,2.045-4.569,4.569v37.203c0,2.523,2.045,4.569,4.569,4.569
			h37.203c2.523,0,4.569-2.046,4.569-4.569v-37.203C99.387,370.82,97.342,368.774,94.818,368.774z"/>
		<g>
			<path style="fill:#FFFFFF;" d="M87.718,387.66c0,6.352-11.501,19.536-11.501,19.536s-11.501-13.184-11.501-19.536
				c0-6.352,5.149-11.501,11.501-11.501C82.569,376.159,87.718,381.308,87.718,387.66z"/>
			<circle style="fill:#579EFF;" cx="76.217" cy="387.097" r="5.698"/>
		</g>
	</g>
	<g>
		<path style="fill:#F9AE40;" d="M274.391,50.484h-69.719c-3.544,0-6.417,2.873-6.417,6.417v38.055c0,3.544,2.873,6.417,6.417,6.417
			h69.719c3.544,0,6.417-2.873,6.417-6.417V56.901C280.808,53.357,277.935,50.484,274.391,50.484z"/>
		<g>
			<path style="fill:#FFFFFF;" d="M225.19,83.861c0.783-0.764,0.351-2.094-0.732-2.252l-4.061-0.59
				c-0.43-0.063-0.802-0.333-0.994-0.722l-1.816-3.68c-0.484-0.981-1.883-0.981-2.368,0l-1.816,3.68
				c-0.192,0.39-0.564,0.66-0.994,0.722l-4.061,0.59c-1.083,0.157-1.515,1.488-0.732,2.252l2.939,2.865
				c0.311,0.303,0.453,0.74,0.38,1.168l-0.694,4.045c-0.185,1.078,0.947,1.901,1.915,1.392l3.632-1.91
				c0.385-0.202,0.844-0.202,1.229,0l3.632,1.91c0.969,0.509,2.1-0.313,1.915-1.392l-0.694-4.045
				c-0.074-0.428,0.068-0.865,0.38-1.168L225.19,83.861z"/>
			<path style="fill:#FFFFFF;" d="M248.318,83.861c0.784-0.764,0.351-2.094-0.732-2.252l-4.061-0.59
				c-0.43-0.063-0.802-0.333-0.994-0.722l-1.816-3.68c-0.484-0.981-1.883-0.981-2.368,0l-1.816,3.68
				c-0.192,0.39-0.564,0.66-0.994,0.722l-4.061,0.59c-1.083,0.157-1.515,1.488-0.732,2.252l2.939,2.865
				c0.311,0.303,0.453,0.74,0.38,1.168l-0.694,4.045c-0.185,1.078,0.947,1.901,1.915,1.392l3.632-1.91
				c0.385-0.202,0.844-0.202,1.229,0l3.632,1.91c0.968,0.509,2.1-0.313,1.915-1.392L245,87.894c-0.073-0.428,0.068-0.865,0.38-1.168
				L248.318,83.861z"/>
			<path style="fill:#FFFFFF;" d="M271.446,83.861c0.784-0.764,0.351-2.094-0.732-2.252l-4.061-0.59
				c-0.43-0.063-0.802-0.333-0.994-0.722l-1.816-3.68c-0.484-0.981-1.883-0.981-2.368,0l-1.816,3.68
				c-0.192,0.39-0.564,0.66-0.994,0.722l-4.061,0.59c-1.083,0.157-1.515,1.488-0.732,2.252l2.939,2.865
				c0.311,0.303,0.453,0.74,0.38,1.168l-0.694,4.045c-0.185,1.078,0.947,1.901,1.915,1.392l3.632-1.91
				c0.385-0.202,0.844-0.202,1.229,0l3.632,1.91c0.969,0.509,2.1-0.313,1.915-1.392l-0.694-4.045
				c-0.073-0.428,0.069-0.865,0.38-1.168L271.446,83.861z"/>
			<path style="fill:#FFFFFF;" d="M237.143,65.007c0.783-0.764,0.351-2.094-0.732-2.252l-4.061-0.59
				c-0.43-0.063-0.802-0.333-0.994-0.722l-1.816-3.68c-0.484-0.981-1.883-0.981-2.368,0l-1.816,3.68
				c-0.192,0.39-0.564,0.66-0.994,0.722l-4.061,0.59c-1.083,0.157-1.515,1.488-0.732,2.252l2.939,2.864
				c0.311,0.303,0.453,0.74,0.38,1.168l-0.694,4.045c-0.185,1.078,0.947,1.901,1.915,1.392l3.632-1.91
				c0.385-0.202,0.844-0.202,1.229,0l3.632,1.91c0.969,0.509,2.1-0.313,1.915-1.392l-0.694-4.045
				c-0.074-0.428,0.068-0.865,0.38-1.168L237.143,65.007z"/>
			<path style="fill:#FFFFFF;" d="M259.924,65.007c0.783-0.764,0.351-2.094-0.732-2.252l-4.061-0.59
				c-0.43-0.063-0.802-0.333-0.994-0.722l-1.816-3.68c-0.484-0.981-1.883-0.981-2.368,0l-1.816,3.68
				c-0.192,0.39-0.564,0.66-0.994,0.722l-4.061,0.59c-1.083,0.157-1.515,1.488-0.732,2.252l2.939,2.864
				c0.311,0.303,0.453,0.74,0.38,1.168l-0.694,4.045c-0.185,1.078,0.947,1.901,1.915,1.392l3.632-1.91
				c0.385-0.202,0.844-0.202,1.229,0l3.632,1.91c0.969,0.509,2.1-0.313,1.915-1.392l-0.694-4.045
				c-0.073-0.428,0.069-0.865,0.38-1.168L259.924,65.007z"/>
		</g>
		<polygon style="fill:#F9AE40;" points="198.255,89.441 198.255,116.978 225.59,101.373 		"/>
	</g>
	<g>
		<circle style="fill:#F9AE40;" cx="400.768" cy="122.897" r="28.016"/>
		<g>
			<path style="fill:#FFFFFF;" d="M411.097,125.836h-0.555v-8.621c0-5.398-4.376-9.775-9.774-9.775
				c-5.399,0-9.775,4.376-9.775,9.775v8.621h-0.554c-2.51,0-4.546,2.035-4.546,4.546c0,2.51,2.035,4.546,4.546,4.546h20.658
				c2.51,0,4.546-2.035,4.546-4.546C415.643,127.872,413.608,125.836,411.097,125.836z"/>
			<path style="fill:#FFFFFF;" d="M395.67,136.524c0,2.815,2.282,5.098,5.098,5.098c2.815,0,5.098-2.282,5.098-5.098H395.67z"/>
		</g>
	</g>
	<path style="fill:#FFFFFF;" d="M76.598,275.533l-4.434-1.212c-1.254-0.343-2.234-1.323-2.577-2.577l-1.212-4.434
		c-0.142-0.519-0.878-0.519-1.02,0l-1.212,4.434c-0.343,1.254-1.323,2.234-2.577,2.577l-4.434,1.212
		c-0.519,0.142-0.519,0.878,0,1.02l4.434,1.212c1.254,0.343,2.234,1.323,2.577,2.577l1.212,4.434c0.142,0.519,0.878,0.519,1.02,0
		l1.212-4.434c0.343-1.254,1.323-2.234,2.577-2.577l4.434-1.212C77.117,276.411,77.117,275.674,76.598,275.533z"/>
	<path style="fill:#FFFFFF;" d="M233.489,255.358l-4.434-1.212c-1.254-0.343-2.234-1.323-2.577-2.577l-1.212-4.434
		c-0.142-0.519-0.878-0.519-1.02,0l-1.212,4.434c-0.343,1.254-1.323,2.234-2.577,2.577l-4.434,1.212
		c-0.519,0.142-0.519,0.878,0,1.02l4.434,1.212c1.254,0.343,2.234,1.323,2.577,2.577l1.212,4.434c0.142,0.519,0.878,0.519,1.02,0
		l1.212-4.434c0.343-1.254,1.323-2.234,2.577-2.577l4.434-1.212C234.008,256.237,234.008,255.5,233.489,255.358z"/>
	<path style="fill:#FFFFFF;" d="M432.846,234.47l-4.434-1.212c-1.254-0.343-2.234-1.323-2.577-2.577l-1.212-4.434
		c-0.142-0.519-0.878-0.519-1.02,0l-1.212,4.434c-0.343,1.254-1.323,2.234-2.577,2.577l-4.434,1.212
		c-0.519,0.142-0.519,0.878,0,1.02l4.434,1.212c1.254,0.343,2.234,1.323,2.577,2.577l1.212,4.434c0.142,0.519,0.878,0.519,1.02,0
		l1.212-4.434c0.343-1.254,1.323-2.234,2.577-2.577l4.434-1.212C433.365,235.348,433.365,234.612,432.846,234.47z"/>
	<path style="fill:#FFFFFF;" d="M280.811,361.784l-4.434-1.212c-1.254-0.343-2.234-1.323-2.577-2.577l-1.212-4.434
		c-0.142-0.519-0.878-0.519-1.02,0l-1.212,4.434c-0.343,1.254-1.323,2.234-2.577,2.577l-4.434,1.212
		c-0.519,0.142-0.519,0.878,0,1.02l4.434,1.212c1.254,0.343,2.234,1.323,2.577,2.577l1.212,4.434c0.142,0.519,0.878,0.519,1.02,0
		l1.212-4.434c0.343-1.254,1.323-2.234,2.577-2.577l4.434-1.212C281.33,362.662,281.33,361.926,280.811,361.784z"/>
	<path style="fill:#FFFFFF;" d="M315.993,83.801l-4.434-1.212c-1.254-0.343-2.234-1.323-2.577-2.577l-1.212-4.434
		c-0.142-0.519-0.878-0.519-1.02,0l-1.212,4.434c-0.343,1.254-1.323,2.234-2.577,2.577l-4.434,1.212
		c-0.519,0.142-0.519,0.878,0,1.02l4.434,1.212c1.254,0.343,2.234,1.323,2.577,2.577l1.212,4.434c0.142,0.519,0.878,0.519,1.02,0
		l1.212-4.434c0.343-1.254,1.323-2.234,2.577-2.577l4.434-1.212C316.512,84.68,316.512,83.943,315.993,83.801z"/>
</g>
</svg>
