<?xml version="1.0" encoding="utf-8"?>
<!-- Generator: Adobe Illustrator 27.5.0, SVG Export Plug-In . SVG Version: 6.00 Build 0)  -->
<svg version="1.1" xmlns="http://www.w3.org/2000/svg" xmlns:xlink="http://www.w3.org/1999/xlink" x="0px" y="0px"
	 viewBox="0 0 500 500" style="enable-background:new 0 0 500 500;" xml:space="preserve">
<g id="Background">
	<rect style="fill:#B9E0FF;" width="500" height="500"/>
</g>
<g id="Objects">
	<g>
		<g>
			<g>
				<defs>
					
						<rect id="SVGID_1_" y="225.395" transform="matrix(-1 -1.224647e-16 1.224647e-16 -1 500 668.415)" width="500" height="217.626"/>
				</defs>
				<clipPath id="SVGID_00000120557226743241400330000018357659881422406835_">
					<use xlink:href="#SVGID_1_"  style="overflow:visible;"/>
				</clipPath>
				<path style="clip-path:url(#SVGID_00000120557226743241400330000018357659881422406835_);fill:#D7EFFF;" d="M-78.406,193.363
					c0,6.874-1.744,13.388-4.848,19.233c27.14,3.014,48.124,23.357,48.124,48.005c0,1.29-0.059,2.567-0.171,3.832
					c6.666-2.514,14.01-3.907,21.723-3.907c29.563,0,53.688,20.44,55.048,46.104c0.769-0.085,1.554-0.134,2.351-0.134
					c7.185,0,13.419,3.553,16.562,8.765c4.562-3.879,10.775-6.27,17.626-6.27c11.15,0,20.614,6.326,24.005,15.111
					c2.377-0.647,4.904-0.997,7.524-0.997c14.001,0,25.348,9.965,25.348,22.258c0,1.13-0.097,2.24-0.282,3.326
					c6.347,1.328,11.758,4.757,15.25,9.397c0.271-0.01,0.543-0.019,0.816-0.019c1.602,0,3.155,0.186,4.64,0.519
					c2.762-3.019,6.395-5.395,10.574-6.822c1.013-11.477,11.933-20.516,25.263-20.516c11.739,0,21.61,7.009,24.492,16.52
					c2.748-1.389,5.93-2.186,9.327-2.186c8.805,0,16.181,5.337,18.184,12.526c2.003-7.19,9.38-12.526,18.185-12.526
					c3.396,0,6.58,0.797,9.327,2.186c2.882-9.511,12.753-16.52,24.491-16.52c13.331,0,24.25,9.038,25.264,20.516
					c4.18,1.428,7.813,3.804,10.573,6.822c1.485-0.333,3.037-0.519,4.64-0.519c0.273,0,0.545,0.009,0.815,0.019
					c3.493-4.64,8.904-8.068,15.251-9.397c-0.186-1.086-0.283-2.196-0.283-3.326c0-12.293,11.348-22.258,25.348-22.258
					c2.62,0,5.148,0.35,7.524,0.997c3.392-8.785,12.854-15.111,24.005-15.111c6.852,0,13.065,2.391,17.627,6.27
					c3.142-5.212,9.377-8.765,16.56-8.765c0.798,0,1.582,0.049,2.352,0.134c1.359-25.664,25.484-46.104,55.047-46.104
					c7.715,0,15.058,1.393,21.724,3.907c-0.112-1.265-0.171-2.542-0.171-3.832c0-24.647,20.984-44.991,48.124-48.005
					c-3.104-5.846-4.849-12.359-4.849-19.233c0-12.58,5.805-23.97,15.191-32.216V441.59H400.99H85.306H-93.598V161.148
					C-84.211,169.394-78.406,180.783-78.406,193.363z"/>
			</g>
			<g>
				<path style="fill:#D7EFFF;" d="M132.775,144.926c1.286-5.338-1.48-10.397-6.515-11.571c-2.597-0.606-5.315-0.059-7.645,1.309
					c0.101-0.969,0.171-1.947,0.171-2.951c0-12.082-7.557-21.877-16.881-21.877c-7.368,0-13.616,6.128-15.92,14.658
					c-2.986-3.039-6.805-4.66-10.5-4.045c-6.504,1.084-10.172,8.689-8.255,17.032c-1.256-0.633-2.653-0.996-4.135-0.996
					c-4.753,0-8.7,3.641-9.533,8.441H132.775z"/>
				<path style="fill:#D7EFFF;" d="M289.451,61.129c1.285-5.338-1.48-10.397-6.516-11.571c-2.596-0.606-5.314-0.059-7.645,1.309
					c0.102-0.969,0.172-1.947,0.172-2.951c0-12.082-7.557-21.877-16.881-21.877c-7.369,0-13.617,6.128-15.92,14.658
					c-2.986-3.039-6.805-4.66-10.5-4.045c-6.504,1.084-10.172,8.689-8.255,17.032c-1.256-0.633-2.653-0.996-4.135-0.996
					c-4.753,0-8.7,3.641-9.533,8.441H289.451z"/>
				<path style="fill:#D7EFFF;" d="M460.129,203.056c1.285-5.338-1.48-10.397-6.516-11.571c-2.596-0.605-5.314-0.059-7.645,1.309
					c0.102-0.969,0.172-1.947,0.172-2.951c0-12.082-7.557-21.877-16.881-21.877c-7.369,0-13.617,6.128-15.92,14.658
					c-2.986-3.039-6.805-4.66-10.5-4.045c-6.504,1.084-10.172,8.689-8.256,17.032c-1.256-0.633-2.652-0.996-4.135-0.996
					c-4.752,0-8.699,3.641-9.533,8.441H460.129z"/>
			</g>
		</g>
		<g>
			<path style="fill:#FFFFFF;" d="M367.202,237.111v-10.699h-6.889c-0.441-1.594-1.074-3.109-1.877-4.516l4.877-4.877l-7.566-7.564
				l-4.883,4.881c-1.406-0.795-2.918-1.426-4.508-1.865v-6.906h-10.699v6.906c-1.592,0.439-3.104,1.07-4.51,1.865l-4.881-4.881
				l-7.566,7.564l4.875,4.877c-0.801,1.406-1.436,2.922-1.877,4.516h-6.889v10.699h6.875c0.439,1.6,1.072,3.119,1.873,4.533
				l-4.857,4.857l7.566,7.567l4.85-4.852c1.414,0.803,2.938,1.441,4.541,1.883v6.859h10.699V251.1
				c1.604-0.442,3.125-1.081,4.539-1.883l4.852,4.852l7.566-7.567l-4.857-4.857c0.801-1.414,1.432-2.934,1.873-4.533H367.202z
				 M341.007,243.068c-6.23,0-11.283-5.053-11.283-11.283c0-6.23,5.053-11.281,11.283-11.281c6.23,0,11.281,5.051,11.281,11.281
				C352.288,238.015,347.237,243.068,341.007,243.068z"/>
			<path style="fill:#FFFFFF;" d="M92.045,345.328v-10.699h-6.889c-0.442-1.594-1.074-3.109-1.877-4.516l4.877-4.877l-7.567-7.564
				l-4.883,4.881c-1.406-0.795-2.918-1.426-4.508-1.865v-6.906H60.5v6.906c-1.592,0.44-3.104,1.07-4.51,1.865l-4.881-4.881
				l-7.566,7.564l4.875,4.877c-0.801,1.406-1.436,2.922-1.877,4.516h-6.889v10.699h6.875c0.439,1.6,1.072,3.119,1.873,4.533
				l-4.857,4.858l7.566,7.566l4.85-4.852c1.414,0.803,2.938,1.441,4.541,1.883v6.859h10.699v-6.859
				c1.603-0.441,3.125-1.08,4.539-1.883l4.852,4.852l7.567-7.566l-4.858-4.858c0.801-1.414,1.432-2.934,1.873-4.533H92.045z
				 M65.85,351.285c-6.231,0-11.283-5.053-11.283-11.283c0-6.23,5.053-11.281,11.283-11.281s11.281,5.051,11.281,11.281
				C77.131,346.232,72.08,351.285,65.85,351.285z"/>
			<path style="fill:#FFFFFF;" d="M91.824,143.224v-10.699h-6.889c-0.441-1.594-1.074-3.109-1.877-4.516l4.877-4.877l-7.566-7.564
				l-4.883,4.881c-1.406-0.795-2.918-1.426-4.508-1.865v-6.906H60.279v6.906c-1.592,0.439-3.104,1.07-4.51,1.865l-4.881-4.881
				l-7.566,7.564l4.875,4.877c-0.801,1.406-1.436,2.922-1.877,4.516h-6.889v10.699h6.875c0.439,1.6,1.072,3.119,1.873,4.533
				l-4.857,4.857l7.566,7.566l4.85-4.852c1.414,0.803,2.938,1.441,4.541,1.883v6.859h10.699v-6.859
				c1.604-0.441,3.125-1.08,4.539-1.883l4.852,4.852l7.566-7.566l-4.857-4.857c0.801-1.414,1.432-2.934,1.873-4.533H91.824z
				 M65.628,149.181c-6.231,0-11.283-5.053-11.283-11.283c0-6.23,5.053-11.281,11.283-11.281s11.281,5.051,11.281,11.281
				C76.91,144.128,71.859,149.181,65.628,149.181z"/>
			<path style="fill:#FFFFFF;" d="M469.106,334.189v-10.699h-6.889c-0.441-1.594-1.074-3.109-1.877-4.516l4.877-4.877l-7.566-7.565
				l-4.883,4.881c-1.406-0.795-2.918-1.426-4.508-1.865v-6.906h-10.699v6.906c-1.592,0.439-3.103,1.07-4.51,1.865l-4.881-4.881
				l-7.566,7.565l4.875,4.877c-0.801,1.406-1.436,2.922-1.877,4.516h-6.889v10.699h6.875c0.439,1.6,1.072,3.119,1.873,4.533
				l-4.857,4.857l7.566,7.566l4.85-4.852c1.414,0.803,2.938,1.441,4.541,1.883v6.859h10.699v-6.859
				c1.604-0.441,3.125-1.08,4.539-1.883l4.852,4.852l7.566-7.566l-4.857-4.857c0.801-1.414,1.432-2.934,1.873-4.533H469.106z
				 M442.911,340.146c-6.23,0-11.283-5.053-11.283-11.283s5.053-11.281,11.283-11.281c6.23,0,11.281,5.051,11.281,11.281
				S449.142,340.146,442.911,340.146z"/>
			<path style="fill:#FFFFFF;" d="M230.919,76.582V65.883h-6.889c-0.441-1.594-1.074-3.109-1.877-4.516l4.877-4.877l-7.566-7.564
				l-4.883,4.881c-1.406-0.795-2.918-1.426-4.508-1.865v-6.906h-10.699v6.906c-1.592,0.44-3.104,1.07-4.51,1.865l-4.881-4.881
				l-7.566,7.564l4.875,4.877c-0.801,1.406-1.436,2.922-1.877,4.516h-6.889v10.699h6.875c0.439,1.6,1.072,3.119,1.873,4.533
				l-4.857,4.858l7.566,7.566l4.85-4.852c1.414,0.803,2.938,1.441,4.541,1.883v6.859h10.699V90.57
				c1.604-0.441,3.125-1.08,4.539-1.883l4.852,4.852l7.566-7.566l-4.857-4.858c0.801-1.414,1.432-2.934,1.873-4.533H230.919z
				 M204.724,82.539c-6.23,0-11.283-5.053-11.283-11.283c0-6.23,5.053-11.281,11.283-11.281c6.23,0,11.281,5.051,11.281,11.281
				C216.005,77.486,210.954,82.539,204.724,82.539z"/>
		</g>
		<g>
			<g>
				<g id="XMLID_18_">
					<path id="XMLID_8_" style="fill-rule:evenodd;clip-rule:evenodd;fill:#90A835;" d="M49.319,308.198
						c0,0-19.311,30.274-21.199,46.945c-1.888,16.649,14.762,23.837,23.087,14.375C59.531,360.057,49.319,330.533,49.319,308.198
						L49.319,308.198z"/>
					<path id="XMLID_5_" style="fill-rule:evenodd;clip-rule:evenodd;fill:#7E8C2D;" d="M27.176,344.029
						c0,0-3.175,12.702-1.91,18.689c1.266,5.964,7.875,6.543,9.655,2.295C36.703,360.787,29.751,351.754,27.176,344.029
						L27.176,344.029z"/>
				</g>
				<path id="XMLID_7_" style="fill-rule:evenodd;clip-rule:evenodd;fill:#603D2A;" d="M37.968,403.955
					c0.236-10.213,0.429-19.653,0.902-28.879c-2.082-1.287-9.763-6.823-10.75-18.323c0,0,0.451,2.94,1.802,6.222l1.696-3.54
					l-1.416,4.205c0.558,1.267,1.244,2.532,2.081,3.691c2.403,3.326,5.343,5.343,6.673,6.137c0.429-7.874,1.094-15.599,2.188-23.537
					c-0.601-0.772-1.587-2.231-2.424-4.441c-1.331-3.498-1.803-7.659-1.803-7.659s0.472,2.746,1.803,5.943
					c0.944,2.296,2.081,3.904,2.639,4.655c0.943-6.33,2.167-12.787,3.797-19.589c0,0-2.038,15.362-3.369,30.252
					c0.751-0.342,2.017-1.051,3.733-2.445c2.94-2.36,5.6-6.802,5.6-6.802s-1.717,4.056-3.412,5.943
					c-1.502,1.695-5.257,4.549-6.071,5.192c-0.58,6.63-0.966,13.045-0.923,17.809c0.085,15.791,1.781,25.359,1.781,25.359
					S38.141,403.955,37.968,403.955L37.968,403.955z"/>
				<path style="fill:#4F3628;" d="M47.357,406.087c-1.237-3.168-4.031-5.383-7.285-5.383c-3.253,0-6.047,2.215-7.284,5.383H47.357z
					"/>
			</g>
			<g>
				<g id="XMLID_13_">
					<path id="XMLID_15_" style="fill-rule:evenodd;clip-rule:evenodd;fill:#90A835;" d="M395.34,308.198
						c0,0-19.31,30.274-21.198,46.945c-1.888,16.649,14.762,23.837,23.087,14.375C405.553,360.057,395.34,330.533,395.34,308.198
						L395.34,308.198z"/>
					<path id="XMLID_14_" style="fill-rule:evenodd;clip-rule:evenodd;fill:#7E8C2D;" d="M373.197,344.029
						c0,0-3.175,12.702-1.909,18.689c1.267,5.964,7.874,6.543,9.655,2.295C382.725,360.787,375.772,351.754,373.197,344.029
						L373.197,344.029z"/>
				</g>
				<path id="XMLID_12_" style="fill-rule:evenodd;clip-rule:evenodd;fill:#603D2A;" d="M383.99,403.955
					c0.236-10.213,0.429-19.653,0.901-28.879c-2.082-1.287-9.763-6.823-10.75-18.323c0,0,0.45,2.94,1.802,6.222l1.696-3.54
					l-1.416,4.205c0.558,1.267,1.244,2.532,2.081,3.691c2.402,3.326,5.342,5.343,6.672,6.137c0.43-7.874,1.095-15.599,2.189-23.537
					c-0.602-0.772-1.588-2.231-2.425-4.441c-1.331-3.498-1.803-7.659-1.803-7.659s0.472,2.746,1.803,5.943
					c0.944,2.296,2.081,3.904,2.64,4.655c0.943-6.33,2.166-12.787,3.797-19.589c0,0-2.038,15.362-3.369,30.252
					c0.752-0.342,2.018-1.051,3.734-2.445c2.939-2.36,5.6-6.802,5.6-6.802s-1.717,4.056-3.412,5.943
					c-1.502,1.695-5.256,4.549-6.07,5.192c-0.58,6.63-0.967,13.045-0.924,17.809c0.086,15.791,1.781,25.359,1.781,25.359
					S384.162,403.955,383.99,403.955L383.99,403.955z"/>
				<path style="fill:#4F3628;" d="M393.379,406.087c-1.237-3.168-4.031-5.383-7.285-5.383c-3.253,0-6.047,2.215-7.283,5.383
					H393.379z"/>
			</g>
			<g>
				<g id="XMLID_2_">
					<path id="XMLID_4_" style="fill-rule:evenodd;clip-rule:evenodd;fill:#90A835;" d="M112.493,277.142
						c0,0-25.437,39.879-27.924,61.84c-2.487,21.932,19.445,31.399,30.412,18.936C125.945,345.453,112.493,306.563,112.493,277.142
						L112.493,277.142z"/>
					<path id="XMLID_3_" style="fill-rule:evenodd;clip-rule:evenodd;fill:#7E8C2D;" d="M83.325,324.341
						c0,0-4.183,16.732-2.515,24.617c1.667,7.857,10.372,8.619,12.718,3.023C95.873,346.415,86.716,334.516,83.325,324.341
						L83.325,324.341z"/>
				</g>
				<path id="XMLID_1_" style="fill-rule:evenodd;clip-rule:evenodd;fill:#603D2A;" d="M97.541,403.278
					c0.311-13.453,0.565-25.889,1.188-38.041c-2.743-1.695-12.86-8.988-14.161-24.137c0,0,0.594,3.872,2.374,8.196l2.234-4.663
					l-1.865,5.539c0.734,1.668,1.639,3.335,2.74,4.861c3.166,4.381,7.038,7.037,8.79,8.083c0.565-10.372,1.441-20.547,2.883-31.004
					c-0.791-1.018-2.091-2.94-3.193-5.851c-1.753-4.608-2.374-10.09-2.374-10.09s0.621,3.618,2.374,7.829
					c1.243,3.024,2.741,5.143,3.476,6.133c1.243-8.339,2.854-16.845,5.002-25.804c0,0-2.685,20.236-4.438,39.85
					c0.989-0.45,2.657-1.384,4.918-3.221c3.873-3.109,7.377-8.96,7.377-8.96s-2.262,5.342-4.494,7.829
					c-1.979,2.232-6.925,5.991-7.998,6.84c-0.764,8.732-1.273,17.184-1.216,23.458c0.113,20.801,2.347,33.405,2.347,33.405
					S97.768,403.278,97.541,403.278L97.541,403.278z"/>
				<path style="fill:#4F3628;" d="M109.909,406.087c-1.63-4.173-5.31-7.091-9.596-7.091c-4.286,0-7.966,2.918-9.595,7.091H109.909z
					"/>
			</g>
			<g>
				<g id="XMLID_17_">
					<path id="XMLID_20_" style="fill-rule:evenodd;clip-rule:evenodd;fill:#90A835;" d="M468.241,277.142
						c0,0-25.438,39.879-27.924,61.84c-2.488,21.932,19.444,31.399,30.411,18.936C481.693,345.453,468.241,306.563,468.241,277.142
						L468.241,277.142z"/>
					<path id="XMLID_19_" style="fill-rule:evenodd;clip-rule:evenodd;fill:#7E8C2D;" d="M439.073,324.341
						c0,0-4.183,16.732-2.516,24.617c1.668,7.857,10.373,8.619,12.719,3.023C451.622,346.415,442.465,334.516,439.073,324.341
						L439.073,324.341z"/>
				</g>
				<path id="XMLID_16_" style="fill-rule:evenodd;clip-rule:evenodd;fill:#603D2A;" d="M453.29,403.278
					c0.311-13.453,0.564-25.889,1.187-38.041c-2.742-1.695-12.86-8.988-14.16-24.137c0,0,0.594,3.872,2.373,8.196l2.234-4.663
					l-1.865,5.539c0.734,1.668,1.639,3.335,2.74,4.861c3.166,4.381,7.038,7.037,8.79,8.083c0.565-10.372,1.441-20.547,2.883-31.004
					c-0.791-1.018-2.091-2.94-3.193-5.851c-1.753-4.608-2.374-10.09-2.374-10.09s0.621,3.618,2.374,7.829
					c1.243,3.024,2.741,5.143,3.477,6.133c1.243-8.339,2.853-16.845,5.002-25.804c0,0-2.685,20.236-4.438,39.85
					c0.989-0.45,2.657-1.384,4.918-3.221c3.872-3.109,7.377-8.96,7.377-8.96s-2.262,5.342-4.494,7.829
					c-1.979,2.232-6.925,5.991-7.997,6.84c-0.765,8.732-1.273,17.184-1.217,23.458c0.113,20.801,2.347,33.405,2.347,33.405
					S453.517,403.278,453.29,403.278L453.29,403.278z"/>
				<path style="fill:#4F3628;" d="M465.657,406.087c-1.63-4.173-5.31-7.091-9.596-7.091c-4.285,0-7.966,2.918-9.595,7.091H465.657z
					"/>
			</g>
			<g>
				<g id="XMLID_9_">
					<path id="XMLID_11_" style="fill-rule:evenodd;clip-rule:evenodd;fill:#90A835;" d="M130.036,324.134
						c0,0-16.167,25.346-17.748,39.303c-1.581,13.94,12.359,19.957,19.329,12.035C138.586,367.55,130.036,342.833,130.036,324.134
						L130.036,324.134z"/>
					<path id="XMLID_10_" style="fill-rule:evenodd;clip-rule:evenodd;fill:#7E8C2D;" d="M111.498,354.132
						c0,0-2.658,10.634-1.599,15.646c1.06,4.994,6.592,5.479,8.083,1.922C119.474,368.161,113.653,360.599,111.498,354.132
						L111.498,354.132z"/>
				</g>
				<path id="XMLID_6_" style="fill-rule:evenodd;clip-rule:evenodd;fill:#603D2A;" d="M120.533,404.302
					c0.198-8.55,0.359-16.454,0.755-24.178c-1.743-1.077-8.173-5.712-9-15.34c0,0,0.377,2.461,1.509,5.209l1.419-2.964l-1.186,3.521
					c0.467,1.061,1.042,2.119,1.742,3.09c2.012,2.784,4.473,4.473,5.587,5.137c0.359-6.592,0.916-13.059,1.832-19.704
					c-0.502-0.647-1.329-1.868-2.03-3.719c-1.114-2.929-1.509-6.413-1.509-6.413s0.395,2.3,1.509,4.977
					c0.791,1.922,1.742,3.268,2.21,3.898c0.79-5.3,1.813-10.706,3.179-16.4c0,0-1.706,12.862-2.82,25.327
					c0.629-0.286,1.689-0.879,3.126-2.047c2.461-1.977,4.688-5.694,4.688-5.694s-1.438,3.395-2.856,4.976
					c-1.257,1.419-4.401,3.808-5.083,4.348c-0.485,5.55-0.809,10.921-0.773,14.909c0.072,13.22,1.492,21.23,1.492,21.23
					S120.678,404.302,120.533,404.302L120.533,404.302z"/>
				<path style="fill:#4F3628;" d="M128.394,406.087c-1.036-2.652-3.375-4.507-6.099-4.507c-2.724,0-5.063,1.854-6.098,4.507
					H128.394z"/>
			</g>
		</g>
		<rect y="399.082" style="fill:#AAC6F9;" width="500" height="100.918"/>
		<g>
			<rect x="65.849" y="137.548" style="fill:#33588A;" width="100.531" height="133.657"/>
			<rect x="65.849" y="137.548" style="fill:#2C2E33;" width="100.531" height="11.831"/>
			<g>
				<g>
					<rect x="72.734" y="157.725" style="fill:#E09730;" width="41.183" height="2.719"/>
					<rect x="72.734" y="163.781" style="fill:#65A4CD;" width="15.527" height="2.72"/>
					<rect x="92.061" y="163.781" style="fill:#9FD3E8;" width="24.355" height="2.72"/>
					<rect x="102.256" y="169.837" style="fill:#9FD3E8;" width="23.058" height="2.719"/>
					<rect x="120.331" y="163.781" style="fill:#E09730;" width="11.313" height="2.72"/>
					<rect x="135.325" y="163.781" style="fill:#9FD3E8;" width="15.526" height="2.72"/>
					<rect x="72.734" y="169.837" style="fill:#65A4CD;" width="26.655" height="2.719"/>
				</g>
				<g>
					<rect x="72.734" y="225.705" style="fill:#65A4CD;" width="15.527" height="2.719"/>
					<rect x="92.061" y="225.705" style="fill:#9FD3E8;" width="24.355" height="2.719"/>
					<rect x="102.256" y="231.761" style="fill:#9FD3E8;" width="9.862" height="2.719"/>
					<rect x="120.331" y="225.705" style="fill:#9FD3E8;" width="11.313" height="2.719"/>
					<rect x="72.734" y="231.761" style="fill:#E09730;" width="26.655" height="2.719"/>
				</g>
				<g>
					<rect x="72.734" y="258.998" style="fill:#E09730;" width="15.527" height="2.719"/>
					<rect x="92.061" y="258.998" style="fill:#9FD3E8;" width="24.355" height="2.719"/>
				</g>
				<g>
					<rect x="80.922" y="180.096" style="fill:#65A4CD;" width="15.528" height="2.72"/>
					<rect x="100.248" y="180.096" style="fill:#E09730;" width="14.678" height="2.72"/>
					<rect x="110.444" y="186.153" style="fill:#9FD3E8;" width="13.029" height="2.72"/>
					<rect x="126.888" y="186.153" style="fill:#E09730;" width="21.522" height="2.72"/>
					<rect x="117.758" y="180.096" style="fill:#9FD3E8;" width="22.074" height="2.72"/>
					<rect x="80.922" y="192.044" style="fill:#65A4CD;" width="15.528" height="2.719"/>
					<rect x="100.248" y="192.044" style="fill:#9FD3E8;" width="14.678" height="2.719"/>
					<rect x="117.758" y="192.044" style="fill:#9FD3E8;" width="22.074" height="2.719"/>
					<rect x="143.514" y="180.096" style="fill:#9FD3E8;" width="15.527" height="2.72"/>
					<rect x="80.922" y="186.153" style="fill:#65A4CD;" width="26.657" height="2.72"/>
				</g>
				<g>
					<rect x="80.922" y="239.549" style="fill:#65A4CD;" width="15.528" height="2.719"/>
					<rect x="100.248" y="239.549" style="fill:#9FD3E8;" width="17.51" height="2.719"/>
					<rect x="100.248" y="245.605" style="fill:#9FD3E8;" width="23.226" height="2.721"/>
					<rect x="126.888" y="245.605" style="fill:#9FD3E8;" width="9.818" height="2.721"/>
					<rect x="121.558" y="239.549" style="fill:#E09730;" width="29.012" height="2.719"/>
					<rect x="80.922" y="251.498" style="fill:#65A4CD;" width="15.528" height="2.721"/>
					<rect x="100.248" y="251.498" style="fill:#E09730;" width="14.678" height="2.721"/>
					<rect x="117.758" y="251.498" style="fill:#9FD3E8;" width="22.074" height="2.721"/>
					<rect x="80.922" y="245.605" style="fill:#65A4CD;" width="15.528" height="2.721"/>
				</g>
				<g>
					<rect x="110.444" y="216.724" style="fill:#9FD3E8;" width="13.029" height="2.719"/>
					<rect x="126.888" y="216.724" style="fill:#9FD3E8;" width="21.522" height="2.719"/>
					<rect x="80.922" y="209.884" style="fill:#65A4CD;" width="15.528" height="2.72"/>
					<rect x="100.248" y="209.884" style="fill:#9FD3E8;" width="14.678" height="2.72"/>
					<rect x="117.758" y="209.884" style="fill:#E09730;" width="22.074" height="2.72"/>
					<rect x="80.922" y="216.724" style="fill:#65A4CD;" width="26.657" height="2.719"/>
				</g>
				<g>
					<rect x="120.273" y="200.902" style="fill:#9FD3E8;" width="13.028" height="2.72"/>
					<rect x="90.753" y="200.902" style="fill:#E09730;" width="26.656" height="2.72"/>
				</g>
			</g>
			<g>
				<g>
					<path style="fill:#E09730;" d="M77.055,143.555c0,1.06-0.859,1.92-1.92,1.92c-1.061,0-1.919-0.86-1.919-1.92
						c0-1.061,0.858-1.92,1.919-1.92C76.195,141.635,77.055,142.494,77.055,143.555z"/>
					<path style="fill:#E09730;" d="M84.623,143.555c0,1.06-0.86,1.92-1.919,1.92c-1.062,0-1.92-0.86-1.92-1.92
						c0-1.061,0.858-1.92,1.92-1.92C83.763,141.635,84.623,142.494,84.623,143.555z"/>
					<path style="fill:#E09730;" d="M92.19,143.555c0,1.06-0.859,1.92-1.918,1.92c-1.061,0-1.92-0.86-1.92-1.92
						c0-1.061,0.859-1.92,1.92-1.92C91.331,141.635,92.19,142.494,92.19,143.555z"/>
				</g>
			</g>
		</g>
		<path style="fill:#94BAF2;" d="M383.886,421.057c0,3.221-2.611,5.83-5.829,5.83H121.942c-3.218,0-5.828-2.609-5.828-5.83l0,0
			c0-3.219,2.61-5.828,5.828-5.828h256.114C381.274,415.228,383.886,417.838,383.886,421.057L383.886,421.057z"/>
		<g>
			<g>
				<g>
					
						<rect x="214.47" y="385.305" transform="matrix(-1 -1.224647e-16 1.224647e-16 -1 499.623 791.3906)" style="fill:#FFFFFF;" width="70.684" height="20.781"/>
					
						<rect x="214.47" y="399.129" transform="matrix(-1 -1.224647e-16 1.224647e-16 -1 499.623 805.2148)" style="fill:#D7EFF5;" width="70.684" height="6.957"/>
					<path style="fill:#FFFFFF;" d="M213.84,406.086h71.943c8.438,0,15.276,6.703,15.276,14.973H198.566
						C198.566,412.789,205.404,406.086,213.84,406.086z"/>
				</g>
				<g>
					<path style="fill:#D7EFF5;" d="M135.805,385.305h228.387c2.307,0,4.17-1.867,4.17-4.168V236.79c0-2.299-1.863-4.164-4.17-4.164
						H135.805c-2.301,0-4.166,1.865-4.166,4.164v144.347C131.639,383.438,133.503,385.305,135.805,385.305z"/>
					<path style="fill:#2C2E33;" d="M138.265,383.24h223.471c2.297,0,4.164-1.863,4.164-4.164V238.853
						c0-2.3-1.867-4.165-4.164-4.165H138.265c-2.3,0-4.165,1.865-4.165,4.165v140.223C134.1,381.377,135.965,383.24,138.265,383.24z
						"/>
					<path style="fill:#33588A;" d="M147.686,371h204.63c2.005,0,3.636-1.625,3.636-3.631V250.561c0-2.008-1.631-3.637-3.636-3.637
						h-204.63c-2.007,0-3.634,1.628-3.634,3.637v116.808C144.052,369.375,145.679,371,147.686,371z"/>
				</g>
			</g>
			<g>
				<g>
					<rect x="155.776" y="258.566" style="fill:#E09730;" width="78.376" height="3.284"/>
					<rect x="155.776" y="265.881" style="fill:#65A4CD;" width="29.55" height="3.287"/>
					<rect x="192.556" y="265.881" style="fill:#9FD3E8;" width="46.352" height="3.287"/>
					<rect x="211.958" y="273.201" style="fill:#9FD3E8;" width="43.883" height="3.283"/>
					<rect x="246.359" y="265.881" style="fill:#9FD3E8;" width="21.532" height="3.287"/>
					<rect x="274.894" y="265.881" style="fill:#9FD3E8;" width="29.549" height="3.287"/>
					<rect x="155.776" y="273.201" style="fill:#65A4CD;" width="50.729" height="3.283"/>
				</g>
				<g>
					<rect x="155.776" y="340.703" style="fill:#65A4CD;" width="29.55" height="3.285"/>
					<rect x="192.556" y="340.703" style="fill:#9FD3E8;" width="46.352" height="3.285"/>
					<rect x="211.958" y="348.02" style="fill:#E09730;" width="18.771" height="3.285"/>
					<rect x="246.359" y="340.703" style="fill:#9FD3E8;" width="21.532" height="3.285"/>
					<rect x="155.776" y="348.02" style="fill:#E09730;" width="50.729" height="3.285"/>
				</g>
				<g>
					<rect x="171.358" y="285.596" style="fill:#9FD3E8;" width="29.552" height="3.285"/>
					<rect x="208.139" y="285.596" style="fill:#E09730;" width="27.934" height="3.285"/>
					<rect x="227.543" y="292.914" style="fill:#9FD3E8;" width="24.796" height="3.285"/>
					<rect x="258.838" y="292.914" style="fill:#9FD3E8;" width="40.96" height="3.285"/>
					<rect x="241.463" y="285.596" style="fill:#E09730;" width="42.01" height="3.285"/>
					<rect x="171.358" y="300.033" style="fill:#65A4CD;" width="29.552" height="3.285"/>
					<rect x="208.139" y="300.033" style="fill:#9FD3E8;" width="27.934" height="3.285"/>
					<rect x="241.463" y="300.033" style="fill:#9FD3E8;" width="42.01" height="3.285"/>
					<rect x="290.477" y="285.596" style="fill:#9FD3E8;" width="29.55" height="3.285"/>
					<rect x="171.358" y="292.914" style="fill:#65A4CD;" width="50.731" height="3.285"/>
				</g>
				<g>
					<rect x="171.358" y="357.43" style="fill:#65A4CD;" width="29.552" height="3.285"/>
					<rect x="208.139" y="357.43" style="fill:#9FD3E8;" width="33.324" height="3.285"/>
					<rect x="248.693" y="357.43" style="fill:#E09730;" width="55.214" height="3.285"/>
				</g>
				<g>
					<rect x="227.543" y="329.852" style="fill:#9FD3E8;" width="24.796" height="3.285"/>
					<rect x="258.838" y="329.852" style="fill:#9FD3E8;" width="40.96" height="3.285"/>
					<rect x="171.358" y="321.588" style="fill:#65A4CD;" width="29.552" height="3.285"/>
					<rect x="208.139" y="321.588" style="fill:#9FD3E8;" width="27.934" height="3.285"/>
					<rect x="241.463" y="321.588" style="fill:#E09730;" width="42.01" height="3.285"/>
					<rect x="171.358" y="329.852" style="fill:#E09730;" width="50.731" height="3.285"/>
				</g>
				<g>
					<rect x="246.249" y="310.734" style="fill:#9FD3E8;" width="24.796" height="3.285"/>
					<rect x="190.068" y="310.734" style="fill:#E09730;" width="50.73" height="3.285"/>
				</g>
			</g>
		</g>
		<g>
			<g>
				<g>
					<path style="fill:#D7EFF5;" d="M285.974,154.522h-71.947c-8.658,0-15.702,6.431-15.702,14.333v160.801
						c0,7.904,7.044,14.332,15.702,14.332h71.947c8.656,0,15.702-6.428,15.702-14.332V168.855
						C301.676,160.953,294.63,154.522,285.974,154.522z"/>
				</g>
				<g>
					<path style="fill:#FFFFFF;" d="M284.049,157.122h-68.097c-8.193,0-14.861,6.249-14.861,13.922v156.429
						c0,7.676,6.668,13.916,14.861,13.916h68.097c8.191,0,14.854-6.24,14.854-13.916V171.044
						C298.903,163.37,292.24,157.122,284.049,157.122z"/>
				</g>
				<g>
					<path style="fill:#65A4CD;" d="M211.008,325.309h77.657c2.109,0,3.819-1.602,3.819-3.578V176.988
						c0-1.974-1.71-3.572-3.819-3.572h-77.657c-2.102,0-3.814,1.599-3.814,3.572V321.73
						C207.193,323.707,208.906,325.309,211.008,325.309z"/>
				</g>
				<g>
					<path style="fill:#FFFFFF;" d="M269.094,163.04h-38.189c-4.596,0-8.335,3.505-8.335,7.808v6.857
						c0,4.306,3.739,7.805,8.335,7.805h38.189c4.595,0,8.331-3.499,8.331-7.805v-6.857
						C277.425,166.545,273.689,163.04,269.094,163.04z"/>
				</g>
			</g>
		</g>
		<g>
			<g>
				<polyline style="fill:none;stroke:#2C2E33;stroke-width:2.4931;stroke-miterlimit:10;" points="475.025,89.736 397.896,45.869 
					258.667,89.212 				"/>
				<g>
					<g>
						<g>
							
								<rect x="413.321" y="89.809" transform="matrix(-1 -1.224647e-16 1.224647e-16 -1 857.4961 210.4702)" style="fill:none;stroke:#2C2E33;stroke-width:3.7396;stroke-miterlimit:10;" width="30.853" height="30.852"/>
							
								<line style="fill:none;stroke:#2C2E33;stroke-width:3.7396;stroke-miterlimit:10;" x1="444.175" y1="89.809" x2="413.321" y2="120.661"/>
							
								<line style="fill:none;stroke:#2C2E33;stroke-width:3.7396;stroke-miterlimit:10;" x1="413.321" y1="89.809" x2="444.175" y2="120.661"/>
						</g>
						<g>
							
								<rect x="444.175" y="89.809" transform="matrix(-1 -1.224647e-16 1.224647e-16 -1 919.2002 210.4702)" style="fill:none;stroke:#2C2E33;stroke-width:3.7396;stroke-miterlimit:10;" width="30.851" height="30.852"/>
							
								<line style="fill:none;stroke:#2C2E33;stroke-width:3.7396;stroke-miterlimit:10;" x1="444.175" y1="120.661" x2="475.025" y2="89.809"/>
							
								<line style="fill:none;stroke:#2C2E33;stroke-width:3.7396;stroke-miterlimit:10;" x1="444.175" y1="89.809" x2="475.025" y2="120.661"/>
						</g>
					</g>
					<g>
						<polyline style="fill:none;stroke:#2C2E33;stroke-width:3.7396;stroke-miterlimit:10;" points="258.667,89.285 
							228.21,120.661 259.061,120.661 						"/>
						<g>
							<g>
								
									<rect x="289.915" y="89.809" transform="matrix(-1 -1.224647e-16 1.224647e-16 -1 610.6806 210.4702)" style="fill:none;stroke:#2C2E33;stroke-width:3.7396;stroke-miterlimit:10;" width="30.851" height="30.852"/>
								
									<line style="fill:none;stroke:#2C2E33;stroke-width:3.7396;stroke-miterlimit:10;" x1="320.766" y1="89.809" x2="289.915" y2="120.661"/>
								
									<line style="fill:none;stroke:#2C2E33;stroke-width:3.7396;stroke-miterlimit:10;" x1="289.915" y1="89.809" x2="320.766" y2="120.661"/>
							</g>
							<g>
								
									<rect x="259.061" y="89.809" transform="matrix(-1 -1.224647e-16 1.224647e-16 -1 548.9765 210.4702)" style="fill:none;stroke:#2C2E33;stroke-width:3.7396;stroke-miterlimit:10;" width="30.854" height="30.852"/>
								
									<line style="fill:none;stroke:#2C2E33;stroke-width:3.7396;stroke-miterlimit:10;" x1="289.915" y1="89.809" x2="259.061" y2="120.661"/>
								
									<line style="fill:none;stroke:#2C2E33;stroke-width:3.7396;stroke-miterlimit:10;" x1="259.061" y1="89.809" x2="289.915" y2="120.661"/>
							</g>
							<g>
								
									<rect x="320.766" y="89.809" transform="matrix(-1 -1.224647e-16 1.224647e-16 -1 672.3838 210.4702)" style="fill:none;stroke:#2C2E33;stroke-width:3.7396;stroke-miterlimit:10;" width="30.853" height="30.852"/>
								
									<line style="fill:none;stroke:#2C2E33;stroke-width:3.7396;stroke-miterlimit:10;" x1="351.618" y1="89.809" x2="320.766" y2="120.661"/>
								
									<line style="fill:none;stroke:#2C2E33;stroke-width:3.7396;stroke-miterlimit:10;" x1="320.766" y1="89.809" x2="351.618" y2="120.661"/>
							</g>
							<g>
								
									<rect x="351.618" y="89.809" transform="matrix(-1 -1.224647e-16 1.224647e-16 -1 734.0889 210.4702)" style="fill:none;stroke:#2C2E33;stroke-width:3.7396;stroke-miterlimit:10;" width="30.852" height="30.852"/>
								
									<line style="fill:none;stroke:#2C2E33;stroke-width:3.7396;stroke-miterlimit:10;" x1="382.471" y1="89.809" x2="351.618" y2="120.661"/>
								
									<line style="fill:none;stroke:#2C2E33;stroke-width:3.7396;stroke-miterlimit:10;" x1="351.618" y1="89.809" x2="382.471" y2="120.661"/>
							</g>
						</g>
					</g>
					<g>
						<g>
							
								<rect x="382.471" y="367.477" transform="matrix(-1 -1.224647e-16 1.224647e-16 -1 795.792 765.8067)" style="fill:none;stroke:#2C2E33;stroke-width:3.7396;stroke-miterlimit:10;" width="30.851" height="30.854"/>
							
								<line style="fill:none;stroke:#2C2E33;stroke-width:3.7396;stroke-miterlimit:10;" x1="413.321" y1="367.477" x2="382.471" y2="398.33"/>
							
								<line style="fill:none;stroke:#2C2E33;stroke-width:3.7396;stroke-miterlimit:10;" x1="382.471" y1="367.477" x2="413.321" y2="398.33"/>
						</g>
						<g>
							
								<rect x="382.471" y="336.625" transform="matrix(-1 -1.224647e-16 1.224647e-16 -1 795.792 704.1016)" style="fill:none;stroke:#2C2E33;stroke-width:3.7396;stroke-miterlimit:10;" width="30.851" height="30.852"/>
							
								<line style="fill:none;stroke:#2C2E33;stroke-width:3.7396;stroke-miterlimit:10;" x1="413.321" y1="336.625" x2="382.471" y2="367.477"/>
							
								<line style="fill:none;stroke:#2C2E33;stroke-width:3.7396;stroke-miterlimit:10;" x1="382.471" y1="336.625" x2="413.321" y2="367.477"/>
						</g>
						<g>
							
								<rect x="382.471" y="305.773" transform="matrix(-1 -1.224647e-16 1.224647e-16 -1 795.792 642.3984)" style="fill:none;stroke:#2C2E33;stroke-width:3.7396;stroke-miterlimit:10;" width="30.851" height="30.852"/>
							
								<line style="fill:none;stroke:#2C2E33;stroke-width:3.7396;stroke-miterlimit:10;" x1="413.321" y1="305.773" x2="382.471" y2="336.625"/>
							
								<line style="fill:none;stroke:#2C2E33;stroke-width:3.7396;stroke-miterlimit:10;" x1="382.471" y1="305.773" x2="413.321" y2="336.625"/>
						</g>
						<g>
							
								<rect x="382.471" y="274.922" transform="matrix(-1 -1.224647e-16 1.224647e-16 -1 795.792 580.6953)" style="fill:none;stroke:#2C2E33;stroke-width:3.7396;stroke-miterlimit:10;" width="30.851" height="30.851"/>
							
								<line style="fill:none;stroke:#2C2E33;stroke-width:3.7396;stroke-miterlimit:10;" x1="413.321" y1="274.922" x2="382.471" y2="305.773"/>
							
								<line style="fill:none;stroke:#2C2E33;stroke-width:3.7396;stroke-miterlimit:10;" x1="382.471" y1="274.922" x2="413.321" y2="305.773"/>
						</g>
						<g>
							
								<rect x="382.471" y="244.069" transform="matrix(-1 -1.224647e-16 1.224647e-16 -1 795.792 518.9912)" style="fill:none;stroke:#2C2E33;stroke-width:3.7396;stroke-miterlimit:10;" width="30.851" height="30.853"/>
							
								<line style="fill:none;stroke:#2C2E33;stroke-width:3.7396;stroke-miterlimit:10;" x1="413.321" y1="244.069" x2="382.471" y2="274.922"/>
							
								<line style="fill:none;stroke:#2C2E33;stroke-width:3.7396;stroke-miterlimit:10;" x1="382.471" y1="244.069" x2="413.321" y2="274.922"/>
						</g>
						<g>
							
								<rect x="382.471" y="213.216" transform="matrix(-1 -1.224647e-16 1.224647e-16 -1 795.792 457.2856)" style="fill:none;stroke:#2C2E33;stroke-width:3.7396;stroke-miterlimit:10;" width="30.851" height="30.853"/>
							
								<line style="fill:none;stroke:#2C2E33;stroke-width:3.7396;stroke-miterlimit:10;" x1="413.321" y1="213.216" x2="382.471" y2="244.069"/>
							
								<line style="fill:none;stroke:#2C2E33;stroke-width:3.7396;stroke-miterlimit:10;" x1="382.471" y1="213.216" x2="413.321" y2="244.069"/>
						</g>
						<g>
							
								<rect x="382.471" y="182.365" transform="matrix(-1 -1.224647e-16 1.224647e-16 -1 795.792 395.5815)" style="fill:none;stroke:#2C2E33;stroke-width:3.7396;stroke-miterlimit:10;" width="30.851" height="30.851"/>
							
								<line style="fill:none;stroke:#2C2E33;stroke-width:3.7396;stroke-miterlimit:10;" x1="413.321" y1="182.365" x2="382.471" y2="213.216"/>
							
								<line style="fill:none;stroke:#2C2E33;stroke-width:3.7396;stroke-miterlimit:10;" x1="382.471" y1="182.365" x2="413.321" y2="213.216"/>
						</g>
						<g>
							
								<rect x="382.471" y="151.513" transform="matrix(-1 -1.224647e-16 1.224647e-16 -1 795.792 333.8779)" style="fill:none;stroke:#2C2E33;stroke-width:3.7396;stroke-miterlimit:10;" width="30.851" height="30.853"/>
							
								<line style="fill:none;stroke:#2C2E33;stroke-width:3.7396;stroke-miterlimit:10;" x1="413.321" y1="151.513" x2="382.471" y2="182.365"/>
							
								<line style="fill:none;stroke:#2C2E33;stroke-width:3.7396;stroke-miterlimit:10;" x1="382.471" y1="151.513" x2="413.321" y2="182.365"/>
						</g>
						<g>
							
								<rect x="382.471" y="120.661" transform="matrix(-1 -1.224647e-16 1.224647e-16 -1 795.792 272.1738)" style="fill:none;stroke:#2C2E33;stroke-width:3.7396;stroke-miterlimit:10;" width="30.851" height="30.852"/>
							
								<line style="fill:none;stroke:#2C2E33;stroke-width:3.7396;stroke-miterlimit:10;" x1="413.321" y1="120.661" x2="382.471" y2="151.513"/>
							
								<line style="fill:none;stroke:#2C2E33;stroke-width:3.7396;stroke-miterlimit:10;" x1="382.471" y1="120.661" x2="413.321" y2="151.513"/>
						</g>
					</g>
					<g>
						<g>
							
								<rect x="382.471" y="89.809" transform="matrix(-1 -1.224647e-16 1.224647e-16 -1 795.792 210.4702)" style="fill:none;stroke:#2C2E33;stroke-width:3.7396;stroke-miterlimit:10;" width="30.851" height="30.852"/>
							
								<line style="fill:none;stroke:#2C2E33;stroke-width:3.7396;stroke-miterlimit:10;" x1="413.321" y1="89.809" x2="382.471" y2="120.661"/>
							
								<line style="fill:none;stroke:#2C2E33;stroke-width:3.7396;stroke-miterlimit:10;" x1="382.471" y1="89.809" x2="413.321" y2="120.661"/>
						</g>
						<g>
							
								<rect x="382.471" y="58.957" transform="matrix(-1 -1.224647e-16 1.224647e-16 -1 795.792 148.7661)" style="fill:none;stroke:#2C2E33;stroke-width:3.7396;stroke-miterlimit:10;" width="30.851" height="30.852"/>
							
								<line style="fill:none;stroke:#2C2E33;stroke-width:3.7396;stroke-miterlimit:10;" x1="413.321" y1="58.957" x2="382.471" y2="89.809"/>
							
								<line style="fill:none;stroke:#2C2E33;stroke-width:3.7396;stroke-miterlimit:10;" x1="382.471" y1="58.957" x2="413.321" y2="89.809"/>
						</g>
					</g>
				</g>
				<rect x="475.026" y="87.951" style="fill:#2C2E33;" width="8.704" height="34.569"/>
				<polygon style="fill:#2C2E33;" points="228.209,120.663 259.061,120.663 259.061,89.811 				"/>
				<g>
					
						<rect x="385.742" y="43.584" transform="matrix(-1 -1.224647e-16 1.224647e-16 -1 795.792 100.6817)" style="fill:#2C2E33;" width="24.308" height="13.514"/>
				</g>
				<g>
					
						<rect x="375.114" y="400.117" transform="matrix(-1 -1.224647e-16 1.224647e-16 -1 795.793 809.8613)" style="fill:#FFFFFF;" width="45.564" height="9.627"/>
					
						<rect x="375.114" y="405.85" transform="matrix(-1 -1.224647e-16 1.224647e-16 -1 795.793 815.5937)" style="fill:#D7EFF5;" width="45.564" height="3.895"/>
					<path style="fill:#FFFFFF;" d="M374.709,409.744h46.375c5.438,0,9.845,4.725,9.845,10.551h-66.066
						C364.862,414.469,369.27,409.744,374.709,409.744z"/>
				</g>
				<g>
					
						<line style="fill:none;stroke:#2C2E33;stroke-width:2.4931;stroke-miterlimit:10;" x1="305.6" y1="120.4" x2="305.6" y2="177.281"/>
					
						<rect x="298.588" y="116.556" transform="matrix(-1 -1.224647e-16 1.224647e-16 -1 611.1992 240.7994)" style="fill:#E9BC42;" width="14.023" height="7.687"/>
					
						<rect x="298.588" y="163.197" transform="matrix(6.123234e-17 -1 1 6.123234e-17 138.5593 472.64)" style="fill:#E9BC42;" width="14.023" height="7.688"/>
					<path style="fill:none;stroke:#2C2E33;stroke-width:2.4931;stroke-miterlimit:10;" d="M308.923,177.634
						c-1.006-0.483-2.133-0.753-3.323-0.753c-4.245,0-7.686,3.441-7.686,7.687c0,4.247,3.441,7.688,7.686,7.688
						c1.725,0,3.316-0.568,4.599-1.527"/>
				</g>
			</g>
			<g>
				<g>
					<path style="fill:#2C2E33;" d="M332.349,279.895h-56.681c-0.616,0-1.115-0.5-1.115-1.115v-56.682
						c0-0.615,0.499-1.115,1.115-1.115h56.681c0.617,0,1.116,0.5,1.116,1.115v56.682
						C333.465,279.395,332.966,279.895,332.349,279.895z"/>
					<path style="fill:#E9BC42;" d="M328.877,276.424H279.14c-0.616,0-1.115-0.5-1.115-1.117V225.57
						c0-0.615,0.499-1.115,1.115-1.115h49.737c0.616,0,1.115,0.5,1.115,1.115v49.736
						C329.992,275.924,329.493,276.424,328.877,276.424z"/>
					<path style="fill:#E4A940;" d="M323.148,255.178c0,10.572-8.569,19.141-19.14,19.141c-10.571,0-19.141-8.568-19.141-19.141
						c0-10.57,8.569-19.139,19.141-19.139C314.579,236.039,323.148,244.607,323.148,255.178z"/>
					<path style="fill:#FDFCFF;" d="M315.399,241.559c0,4.904-3.977,8.881-8.88,8.881c-4.905,0-8.882-3.977-8.882-8.881
						c0-4.904,3.977-8.881,8.882-8.881C311.423,232.678,315.399,236.654,315.399,241.559z"/>
					<g>
						<path style="fill:#FDFCFF;" d="M329.992,274.83v-11.402l-8.733-11.541c-0.999-1.32-2.984-1.32-3.982,0l-18.568,24.537H328.4
							C329.281,276.424,329.992,275.711,329.992,274.83z"/>
						<polygon style="fill:#E3EFF6;" points="316.351,276.424 307.53,264.768 323.968,276.424 						"/>
						<path style="fill:#FDFCFF;" d="M286.599,244.025l-8.574,11.33v19.475c0,0.881,0.713,1.594,1.592,1.594h36.756l-24.516-32.398
							C290.537,242.283,287.916,242.283,286.599,244.025z"/>
					</g>
				</g>
				<polyline style="fill:none;stroke:#2C2E33;stroke-width:2.4931;stroke-miterlimit:10;" points="330.781,222.357 
					305.163,187.851 277.235,222.357 				"/>
			</g>
		</g>
		<g>
			<path style="fill:#E8BB42;" d="M150.621,296.528h114.307c0.71,0,1.293-0.576,1.293-1.29v-41.551c0-0.712-0.583-1.292-1.293-1.292
				H150.621c-0.713,0-1.292,0.58-1.292,1.292v41.551C149.329,295.952,149.908,296.528,150.621,296.528z"/>
			<path style="fill:#FFFFFF;" d="M150.621,252.395c-0.713,0-1.292,0.58-1.292,1.292v41.551c0,0.714,0.579,1.29,1.292,1.29h42.84
				v-44.133H150.621z"/>
			<g>
				<g>
					<rect x="197.594" y="271.932" style="fill:#BA7820;" width="64.651" height="1.494"/>
					<rect x="197.594" y="275.751" style="fill:#BA7820;" width="33.014" height="1.496"/>
					<rect x="232.918" y="275.751" style="fill:#BA7820;" width="29.327" height="1.496"/>
					<rect x="197.594" y="279.57" style="fill:#BA7820;" width="13.902" height="1.497"/>
					<rect x="213.671" y="279.57" style="fill:#BA7820;" width="25.488" height="1.497"/>
				</g>
			</g>
			<g>
				<rect x="197.594" y="257.593" style="fill:#2C2E33;" width="53.485" height="3.647"/>
				<rect x="197.594" y="263.453" style="fill:#2C2E33;" width="25.538" height="3.645"/>
				<rect x="226.281" y="263.453" style="fill:#2C2E33;" width="35.964" height="3.645"/>
			</g>
			<path style="fill:#FDFCFF;" d="M262.245,288.995c0,1.61-1.307,2.917-2.915,2.917h-16.264c-1.611,0-2.917-1.307-2.917-2.917l0,0
				c0-1.608,1.306-2.915,2.917-2.915h16.264C260.939,286.08,262.245,287.387,262.245,288.995L262.245,288.995z"/>
			<rect x="197.594" y="288.249" style="fill:#BA7820;" width="38.245" height="1.495"/>
			<g>
				
					<rect x="153.36" y="256.783" transform="matrix(-1 -1.224647e-16 1.224647e-16 -1 342.6656 549.5088)" style="fill:none;stroke:#A7C7CE;stroke-width:1.6222;stroke-miterlimit:10;" width="35.945" height="35.942"/>
				
					<line style="fill:none;stroke:#A7C7CE;stroke-width:1.6222;stroke-miterlimit:10;" x1="189.305" y1="256.783" x2="153.36" y2="292.726"/>
				
					<line style="fill:none;stroke:#A7C7CE;stroke-width:1.6222;stroke-miterlimit:10;" x1="153.36" y1="256.783" x2="189.305" y2="292.726"/>
			</g>
		</g>
		<g>
			<path style="fill:#E8BB42;" d="M235.641,205.808h46.396c0.418,0,0.758-0.337,0.758-0.757V180.63c0-0.419-0.34-0.76-0.758-0.76
				h-46.396c-0.421,0-0.76,0.341-0.76,0.76v24.421C234.881,205.471,235.22,205.808,235.641,205.808z"/>
			<g>
				<rect x="239.03" y="188.54" style="fill:#FDFCFF;" width="32.855" height="3.299"/>
				<rect x="239.03" y="193.842" style="fill:#FDFCFF;" width="15.69" height="3.297"/>
				<rect x="256.653" y="193.842" style="fill:#FDFCFF;" width="22.093" height="3.297"/>
			</g>
		</g>
		<g>
			<path style="fill:#E8BB42;" d="M242.143,332.208c0,11.224,9.098,20.324,20.324,20.324c11.226,0,20.326-9.101,20.326-20.324
				c0-11.226-9.101-20.326-20.326-20.326C251.241,311.882,242.143,320.982,242.143,332.208z"/>
			<path style="fill:#FDFBFF;" d="M253.722,327.319c0,4.83,3.914,8.746,8.745,8.746c4.832,0,8.746-3.916,8.746-8.746
				c0-4.828-3.914-8.745-8.746-8.745C257.636,318.574,253.722,322.491,253.722,327.319z"/>
			<path style="fill:#FDFBFF;" d="M262.467,352.532c-5.152,0-9.854-1.92-13.436-5.078c0.655-6.848,6.42-12.2,13.436-12.2
				c7.018,0,12.782,5.353,13.435,12.2C272.32,350.612,267.619,352.532,262.467,352.532z"/>
		</g>
		<g>
			<path style="fill:#2C2E33;" d="M224.543,229.048h-40.774c-0.442,0-0.802-0.358-0.802-0.801v-31.285
				c0-0.443,0.36-0.803,0.802-0.803h40.774c0.444,0,0.802,0.36,0.802,0.803v31.285C225.346,228.69,224.987,229.048,224.543,229.048z
				"/>
			<path style="fill:#E9BC42;" d="M222.045,226.474h-35.778c-0.444,0-0.803-0.359-0.803-0.803V199.46
				c0-0.443,0.359-0.803,0.803-0.803h35.778c0.444,0,0.804,0.36,0.804,0.803v26.211C222.849,226.114,222.49,226.474,222.045,226.474
				z"/>
			<path style="fill:#FDFBFF;" d="M199.878,206.491v12.149c0,1.215,1.384,1.909,2.359,1.185l8.17-6.074
				c0.795-0.591,0.795-1.781,0-2.371l-8.17-6.074C201.262,204.581,199.878,205.276,199.878,206.491z"/>
		</g>
		<g>
			<g>
				<path style="fill:#FFFFFF;" d="M152.895,320.305c0,14.364-11.643,26.009-26.008,26.009c-14.364,0-26.008-11.645-26.008-26.009
					c0-14.363,11.644-26.008,26.008-26.008C141.253,294.297,152.895,305.941,152.895,320.305z"/>
				
					<text transform="matrix(1 0 0 1 109.8008 326.2119)" style="fill:#2C2E33;stroke:#2C2E33;stroke-miterlimit:10; font-family:'Quicksand-Bold'; font-size:20.3656px;">&lt;\&gt;</text>
			</g>
			<g>
				<circle style="fill:#FFFFFF;" cx="346.035" cy="167.04" r="26.008"/>
				<g>
					
						<text transform="matrix(1 0 0 1 329.3701 171.5898)" style="fill:#2E2E2E;stroke:#2C2E33;stroke-miterlimit:10; font-family:'Quicksand-Bold'; font-size:20.3656px;">{   }</text>
					<g>
						
							<line style="fill:#2E2E2E;stroke:#2C2E33;stroke-width:2.5417;stroke-linecap:round;stroke-linejoin:round;stroke-miterlimit:10;" x1="344.66" y1="161.847" x2="351.174" y2="161.847"/>
						
							<line style="fill:#2E2E2E;stroke:#2C2E33;stroke-width:2.5417;stroke-linecap:round;stroke-linejoin:round;stroke-miterlimit:10;" x1="341.006" y1="166.665" x2="351.174" y2="166.665"/>
						
							<line style="fill:#2E2E2E;stroke:#2C2E33;stroke-width:2.5417;stroke-linecap:round;stroke-linejoin:round;stroke-miterlimit:10;" x1="341.006" y1="171.483" x2="351.174" y2="171.483"/>
					</g>
				</g>
			</g>
			<g>
				<path style="fill:#FFFFFF;" d="M84.805,258.566c0,14.363-11.643,26.008-26.008,26.008c-14.364,0-26.008-11.645-26.008-26.008
					c0-14.364,11.643-26.009,26.008-26.009C73.162,232.558,84.805,244.202,84.805,258.566z"/>
				
					<text transform="matrix(1 0 0 1 43.9121 264.8149)" style="fill:#2E2E2E;stroke:#2C2E33;stroke-miterlimit:10; font-family:'Quicksand-Bold'; font-size:16px;">C++</text>
			</g>
			<g>
				<circle style="fill:#FFFFFF;" cx="166.38" cy="135.843" r="26.008"/>
				
					<text transform="matrix(1 0 0 1 144.5728 141.0376)" style="fill:#2E2E2E;stroke:#2C2E33;stroke-miterlimit:10; font-family:'Quicksand-Bold'; font-size:16px;">HTML</text>
			</g>
			<g>
				<path style="fill:#FFFFFF;" d="M454.756,244.069c0,14.364-11.643,26.009-26.008,26.009c-14.364,0-26.008-11.645-26.008-26.009
					c0-14.364,11.644-26.008,26.008-26.008C443.113,218.061,454.756,229.706,454.756,244.069z"/>
				
					<text transform="matrix(1 0 0 1 413.6978 250.5728)" style="fill:#2E2E2E;stroke:#2C2E33;stroke-miterlimit:10; font-family:'Quicksand-Bold'; font-size:16px;">PHP</text>
			</g>
		</g>
	</g>
</g>
</svg>
